{
.appVersion = "3221";
.formatVersion = 3;
axes = (
{
name = Weight;
tag = wght;
},
{
name = "Optical size";
tag = opsz;
}
);
customParameters = (
{
name = fsType;
value = (
);
},
{
name = "Use Typo Metrics";
value = 1;
},
{
name = "Variable Font Origin";
value = "131D8093-96F9-49D1-BC5C-300C1D47CA92";
}
);
date = "2020-11-03 13:50:06 +0000";
familyName = "Bodoni Moda";
featurePrefixes = (
{
automatic = 1;
code = "languagesystem DFLT dflt;

languagesystem latn dflt;
languagesystem latn AZE;
languagesystem latn CRT;
languagesystem latn KAZ;
languagesystem latn TAT;
languagesystem latn TRK;
languagesystem latn ROM;
languagesystem latn MOL;
languagesystem latn CAT;
";
name = Languagesystems;
},
{
automatic = 1;
code = "table GDEF {
  # automatic
  GlyphClassDef
    [A B C D Eth E F G H I J K L M N O P Q R S T U V W X Y Z R.ss02 a b c d e f g h i idotless j jdotless k l m n o p q r s longs t u v w x y z a.sc b.sc c.sc d.sc dcroat.sc e.sc f.sc g.sc h.sc i.sc k.sc l.sc m.sc n.sc o.sc p.sc thorn.sc q.sc r.sc s.sc t.sc u.sc v.sc w.sc x.sc y.sc z.sc ordfeminine ordmasculine cent yen micro copyright registered trademark uniF8E8], # Base
    , # Liga
    [dieresiscomb dotaccentcomb gravecomb acutecomb hungarumlautcomb caroncomb.alt circumflexcomb caroncomb brevecomb ringcomb tildecomb macroncomb breveinvertedcomb commaturnedabovecomb dotbelowcomb commaaccentcomb cedillacomb ogonekcomb], # Mark
    ;
} GDEF;
";
name = Prefix;
}
);
features = (
{
automatic = 1;
code = "feature locl;
feature sups;
feature frac;
feature ordn;
feature lnum;
feature pnum;
feature tnum;
feature onum;
feature c2sc;
feature smcp;
feature case;
feature ss01;
feature ss02;
feature ss03;
";
tag = aalt;
},
{
automatic = 1;
code = "lookup ccmp_Other_1 {
	@CombiningTopAccents = [acutecomb brevecomb breveinvertedcomb caroncomb circumflexcomb commaturnedabovecomb dieresiscomb dotaccentcomb gravecomb hungarumlautcomb macroncomb ringcomb tildecomb];
	lookupflag UseMarkFilteringSet @CombiningTopAccents;

glyphs = (
{
color = (0,171,232,255);
glyphname = A;
lastChange = "2023-10-06 08:49:31 +0000";
layers = (
{
anchors = (
{
name = bottom;
pos = (686,0);
},
{
name = ogonek;
pos = (1186,0);
},
{
name = top;
pos = (764,1500);
}
);
background = {
anchors = (
{
name = bottom;
pos = (686,0);
},
{
name = ogonek;
pos = (1186,0);
},
{
name = top;
pos = (764,1500);
}
);
shapes = (
{
closed = 1;
nodes = (
(1037,486,l),
(1037,490,l),
(401,490,l),
(401,486,l)
);
},
{
closed = 1;
nodes = (
(762,1530,l),
(230,4,l),
(37,4,l),
(37,0,l),
(477,0,l),
(477,4,l),
(234,4,l),
(672,1256,l),
(1076,4,l),
(857,4,l),
(857,0,l),
(1437,0,l),
(1437,4,l),
(1295,4,l),
(766,1530,l)
);
}
);
};
layerId = "131D8093-96F9-49D1-BC5C-300C1D47CA92";
shapes = (
{
closed = 1;
nodes = (
(1037,486,l),
(1037,490,l),
(401,490,l),
(401,486,l)
);
},
{
closed = 1;
nodes = (
(762,1530,l),
(230,4,l),
(37,4,l),
(37,0,l),
(477,0,l),
(477,4,l),
(234,4,l),
(672,1256,l),
(1076,4,l),
(857,4,l),
(857,0,l),
(1437,0,l),
(1437,4,l),
(1295,4,l),
(766,1530,l)
);
}
);
width = 1473;
},
{
anchors = (
{
name = bottom;
pos = (746,0);
},
{
name = ogonek;
pos = (1236,0);
},
{
name = top;
pos = (842,1500);
}
);
background = {
anchors = (
{
name = bottom;
pos = (746,0);
},
{
name = ogonek;
pos = (1236,0);
},
{
name = top;
pos = (842,1500);
}
);
shapes = (
{
closed = 1;
nodes = (
(900,488,l),
(900,492,l),
(398,492,l),
(398,488,l)
);
},
{
closed = 1;
nodes = (
(764,1530,l),
(223,4,l),
(30,4,l),
(30,0,l),
(470,0,l),
(470,4,l),
(229,4,l),
(626,1126,l),
(989,4,l),
(850,4,l),
(850,0,l),
(1630,0,l),
(1630,4,l),
(1489,4,l),
(960,1530,l)
);
}
);
};
layerId = "96DEB648-6659-45A7-975A-5247D52A4CB5";
shapes = (
{
closed = 1;
nodes = (
(900,488,l),
(900,492,l),
(398,492,l),
(398,488,l)
);
},
{
closed = 1;
nodes = (
(764,1530,l),
(223,4,l),
(30,4,l),
(30,0,l),
(470,0,l),
(470,4,l),
(229,4,l),
(626,1126,l),
(989,4,l),
(850,4,l),
(850,0,l),
(1630,0,l),
(1630,4,l),
(1489,4,l),
(960,1530,l)
);
}
);
width = 1659;
},
{
anchors = (
{
name = bottom;
pos = (746,0);
},
{
name = ogonek;
pos = (1236,0);
},
{
name = top;
pos = (842,1500);
}
);
background = {
anchors = (
{
name = bottom;
pos = (746,0);
},
{
name = ogonek;
pos = (1236,0);
},
{
name = top;
pos = (842,1500);
}
);
shapes = (
{
closed = 1;
nodes = (
(1028,438,l),
(1028,510,l),
(370,510,l),
(370,438,l)
);
},
{
closed = 1;
nodes = (
(720,1528,l),
(204,72,l),
(28,72,l),
(28,0,l),
(472,0,l),
(472,72,l),
(287,72,l),
(640,1076,l),
(967,72,l),
(816,72,l),
(816,0,l),
(1630,0,l),
(1630,72,l),
(1465,72,l),
(960,1528,l)
);
}
);
};
layerId = "78E0DE70-2ED7-4EA0-A1D7-377506C0A4B3";
shapes = (
{
closed = 1;
nodes = (
(1028,438,l),
(1028,510,l),
(370,510,l),
(370,438,l)
);
},
{
closed = 1;
nodes = (
(720,1528,l),
(204,72,l),
(28,72,l),
(28,0,l),
(472,0,l),
(472,72,l),
(287,72,l),
(640,1076,l),
(967,72,l),
(816,72,l),
(816,0,l),
(1630,0,l),
(1630,72,l),
(1465,72,l),
(960,1528,l)
);
}
);
width = 1658;
},
{
anchors = (
{
name = bottom;
pos = (746,0);
},
{
name = ogonek;
pos = (1266,0);
},
{
name = top;
pos = (814,1500);
}
);
background = {
anchors = (
{
name = bottom;
pos = (746,0);
},
{
name = ogonek;
pos = (1266,0);
},
{
name = top;
pos = (814,1500);
}
);
shapes = (
{
closed = 1;
nodes = (
(1121,453,l),
(1121,526,l),
(461,526,l),
(461,453,l)
);
},
{
closed = 1;
nodes = (
(776,1529,l),
(260,73,l),
(86,73,l),
(86,0,l),
(526,0,l),
(526,73,l),
(343,73,l),
(754,1256,l),
(1136,73,l),
(945,73,l),
(945,0,l),
(1525,0,l),
(1525,73,l),
(1356,73,l),
(851,1529,l)
);
}
);
};
layerId = master01;
shapes = (
{
closed = 1;
nodes = (
(1121,453,l),
(1121,526,l),
(461,526,l),
(461,453,l)
);
},
{
closed = 1;
nodes = (
(776,1529,l),
(260,73,l),
(86,73,l),
(86,0,l),
(526,0,l),
(526,73,l),
(343,73,l),
(754,1256,l),
(1136,73,l),
(945,73,l),
(945,0,l),
(1525,0,l),
(1525,73,l),
(1356,73,l),
(851,1529,l)
);
}
);
width = 1611;
}
);
unicode = 65;
},
{
color = 10;
glyphname = Aacute;
lastChange = "2023-10-05 14:16:21 +0000";
layers = (
{
background = {
anchors = (
{
name = bottom;
pos = (686,0);
},
{
name = ogonek;
pos = (1186,0);
},
{
name = top;
pos = (764,1500);
}
);
shapes = (
{
closed = 1;
nodes = (
(1037,486,l),
(1037,490,l),
(401,490,l),
(401,486,l)
);
},
{
closed = 1;
nodes = (
(762,1530,l),
(230,4,l),
(37,4,l),
(37,0,l),
(477,0,l),
(477,4,l),
(234,4,l),
(672,1256,l),
(1076,4,l),
(857,4,l),
(857,0,l),
(1437,0,l),
(1437,4,l),
(1295,4,l),
(766,1530,l)
);
},
{
closed = 1;
nodes = (
(966,1817,ls),
(1000,1832,o),
(1012,1882,o),
(993,1915,cs),
(974,1948,o),
(918,1971,o),
(881,1926,cs),
(690,1696,l),
(692,1693,l)
);
}
);
};
layerId = "131D8093-96F9-49D1-BC5C-300C1D47CA92";
shapes = (
{
ref = A;
},
{
pos = (346,0);
ref = acutecomb;
}
);
width = 1473;
},
{
background = {
anchors = (
{
name = bottom;
pos = (746,0);
},
{
name = ogonek;
pos = (1236,0);
},
{
name = top;
pos = (842,1500);
}
);
shapes = (
{
closed = 1;
nodes = (
(900,488,l),
(900,492,l),
(398,492,l),
(398,488,l)
);
},
{
closed = 1;
nodes = (
(764,1530,l),
(223,4,l),
(30,4,l),
(30,0,l),
(470,0,l),
(470,4,l),
(229,4,l),
(626,1126,l),
(989,4,l),
(850,4,l),
(850,0,l),
(1630,0,l),
(1630,4,l),
(1489,4,l),
(960,1530,l)
);
},
{
closed = 1;
nodes = (
(1011,1718,ls),
(1170,1739,o),
(1227,1905,o),
(1161,2001,cs),
(1107,2079,o),
(931,2104,o),
(856,1956,cs),
(717,1683,l),
(719,1680,l)
);
}
);
};
layerId = "96DEB648-6659-45A7-975A-5247D52A4CB5";
shapes = (
{
ref = A;
},
{
pos = (452,0);
ref = acutecomb;
}
);
width = 1659;
},
{
background = {
anchors = (
{
name = bottom;
pos = (746,0);
},
{
name = ogonek;
pos = (1236,0);
},
{
name = top;
pos = (842,1500);
}
);
shapes = (
{
closed = 1;
nodes = (
(1028,438,l),
(1028,510,l),
(370,510,l),
(370,438,l)
);
},
{
closed = 1;
nodes = (
(720,1528,l),
(204,72,l),
(28,72,l),
(28,0,l),
(472,0,l),
(472,72,l),
(287,72,l),
(640,1076,l),
(967,72,l),
(816,72,l),
(816,0,l),
(1630,0,l),
(1630,72,l),
(1465,72,l),
(960,1528,l)
);
},
{
closed = 1;
nodes = (
(1011,1718,ls),
(1169,1752,o),
(1227,1905,o),
(1161,2001,cs),
(1107,2079,o),
(942,2099,o),
(856,1956,cs),
(707,1708,l),
(739,1660,l)
);
}
);
};
layerId = "78E0DE70-2ED7-4EA0-A1D7-377506C0A4B3";
shapes = (
{
ref = A;
},
{
pos = (447,0);
ref = acutecomb;
}
);
width = 1658;
},
{
background = {
anchors = (
{
name = bottom;
pos = (746,0);
},
{
name = ogonek;
pos = (1266,0);
},
{
name = top;
pos = (814,1500);
}
);
shapes = (
{
closed = 1;
nodes = (
(1121,453,l),
(1121,526,l),
(461,526,l),
(461,453,l)
);
},
{
closed = 1;
nodes = (
(776,1529,l),
(260,73,l),
(86,73,l),
(86,0,l),
(526,0,l),
(526,73,l),
(343,73,l),
(754,1256,l),
(1136,73,l),
(945,73,l),
(945,0,l),
(1525,0,l),
(1525,73,l),
(1356,73,l),
(851,1529,l)
);
},
{
closed = 1;
nodes = (
(1016,1817,ls),
(1048,1836,o),
(1062,1882,o),
(1043,1915,cs),
(1024,1948,o),
(973,1967,o),
(931,1926,cs),
(719,1719,l),
(764,1670,l)
);
}
);
};
layerId = master01;
shapes = (
{
ref = A;
},
{
pos = (385,0);
ref = acutecomb;
}
);
width = 1611;
}
);
unicode = 193;
},
{
color = 10;
glyphname = Abreve;
lastChange = "2023-10-05 14:16:21 +0000";
layers = (
{
background = {
anchors = (
{
name = bottom;
pos = (686,0);
},
{
name = ogonek;
pos = (1186,0);
},
{
name = top;
pos = (764,1500);
}
);
shapes = (
{
closed = 1;
nodes = (
(1037,486,l),
(1037,490,l),
(401,490,l),
(401,486,l)
);
},
{
closed = 1;
nodes = (
(762,1530,l),
(230,4,l),
(37,4,l),
(37,0,l),
(477,0,l),
(477,4,l),
(234,4,l),
(672,1256,l),
(1076,4,l),
(857,4,l),
(857,0,l),
(1437,0,l),
(1437,4,l),
(1295,4,l),
(766,1530,l)
);
},
{
closed = 1;
nodes = (
(944,1680,o),
(984,1816,o),
(984,1938,c),
(980,1938,l),
(980,1840,o),
(872,1790,o),
(764,1790,cs),
(656,1790,o),
(548,1840,o),
(548,1938,c),
(544,1938,l),
(544,1816,o),
(584,1680,o),
(764,1680,cs)
);
}
);
};
layerId = "131D8093-96F9-49D1-BC5C-300C1D47CA92";
shapes = (
{
ref = A;
},
{
pos = (264,0);
ref = brevecomb;
}
);
width = 1473;
},
{
background = {
anchors = (
{
name = bottom;
pos = (746,0);
},
{
name = ogonek;
pos = (1236,0);
},
{
name = top;
pos = (842,1500);
}
);
shapes = (
{
closed = 1;
nodes = (
(900,488,l),
(900,492,l),
(398,492,l),
(398,488,l)
);
},
{
closed = 1;
nodes = (
(764,1530,l),
(223,4,l),
(30,4,l),
(30,0,l),
(470,0,l),
(470,4,l),
(229,4,l),
(626,1126,l),
(989,4,l),
(850,4,l),
(850,0,l),
(1630,0,l),
(1630,4,l),
(1489,4,l),
(960,1530,l)
);
},
{
closed = 1;
nodes = (
(1002,1680,o),
(1102,1796,o),
(1102,2058,c),
(1098,2058,l),
(1098,1970,o),
(950,1950,o),
(842,1950,cs),
(734,1950,o),
(586,1970,o),
(586,2058,c),
(582,2058,l),
(582,1796,o),
(682,1680,o),
(842,1680,cs)
);
}
);
};
layerId = "96DEB648-6659-45A7-975A-5247D52A4CB5";
shapes = (
{
ref = A;
},
{
pos = (342,0);
ref = brevecomb;
}
);
width = 1659;
},
{
background = {
anchors = (
{
name = bottom;
pos = (746,0);
},
{
name = ogonek;
pos = (1236,0);
},
{
name = top;
pos = (842,1500);
}
);
shapes = (
{
closed = 1;
nodes = (
(1028,438,l),
(1028,510,l),
(370,510,l),
(370,438,l)
);
},
{
closed = 1;
nodes = (
(720,1528,l),
(204,72,l),
(28,72,l),
(28,0,l),
(472,0,l),
(472,72,l),
(287,72,l),
(640,1076,l),
(967,72,l),
(816,72,l),
(816,0,l),
(1630,0,l),
(1630,72,l),
(1465,72,l),
(960,1528,l)
);
},
{
closed = 1;
nodes = (
(1002,1680,o),
(1102,1796,o),
(1102,2058,c),
(1030,2058,l),
(1030,1970,o),
(950,1950,o),
(842,1950,cs),
(734,1950,o),
(654,1970,o),
(654,2058,c),
(582,2058,l),
(582,1796,o),
(682,1680,o),
(842,1680,cs)
);
}
);
};
layerId = "78E0DE70-2ED7-4EA0-A1D7-377506C0A4B3";
shapes = (
{
ref = A;
},
{
pos = (342,0);
ref = brevecomb;
}
);
width = 1658;
},
{
background = {
anchors = (
{
name = bottom;
pos = (746,0);
},
{
name = ogonek;
pos = (1266,0);
},
{
name = top;
pos = (814,1500);
}
);
shapes = (
{
closed = 1;
nodes = (
(1121,453,l),
(1121,526,l),
(461,526,l),
(461,453,l)
);
},
{
closed = 1;
nodes = (
(776,1529,l),
(260,73,l),
(86,73,l),
(86,0,l),
(526,0,l),
(526,73,l),
(343,73,l),
(754,1256,l),
(1136,73,l),
(945,73,l),
(945,0,l),
(1525,0,l),
(1525,73,l),
(1356,73,l),
(851,1529,l)
);
},
{
closed = 1;
nodes = (
(994,1680,o),
(1035,1816,o),
(1035,1938,c),
(995,1938,l),
(995,1840,o),
(921,1790,o),
(814,1790,cs),
(707,1790,o),
(635,1840,o),
(635,1938,c),
(596,1938,l),
(596,1816,o),
(634,1680,o),
(814,1680,cs)
);
}
);
};
layerId = master01;
shapes = (
{
ref = A;
},
{
pos = (315,0);
ref = brevecomb;
}
);
width = 1611;
}
);
unicode = 258;
},
{
color = 10;
glyphname = Acircumflex;
lastChange = "2023-10-05 14:16:21 +0000";
layers = (
{
background = {
anchors = (
{
name = bottom;
pos = (686,0);
},
{
name = ogonek;
pos = (1186,0);
},
{
name = top;
pos = (764,1500);
}
);
shapes = (
{
closed = 1;
nodes = (
(1037,486,l),
(1037,490,l),
(401,490,l),
(401,486,l)
);
},
{
closed = 1;
nodes = (
(762,1530,l),
(230,4,l),
(37,4,l),
(37,0,l),
(477,0,l),
(477,4,l),
(234,4,l),
(672,1256,l),
(1076,4,l),
(857,4,l),
(857,0,l),
(1437,0,l),
(1437,4,l),
(1295,4,l),
(766,1530,l)
);
},
{
closed = 1;
nodes = (
(764,1849,l),
(1048,1715,l),
(1050,1719,l),
(830,1939,l),
(700,1939,l),
(480,1719,l),
(482,1715,l)
);
}
);
};
layerId = "131D8093-96F9-49D1-BC5C-300C1D47CA92";
shapes = (
{
ref = A;
},
{
pos = (265,0);
ref = circumflexcomb;
}
);
width = 1473;
},
{
background = {
anchors = (
{
name = bottom;
pos = (746,0);
},
{
name = ogonek;
pos = (1236,0);
},
{
name = top;
pos = (842,1500);
}
);
shapes = (
{
closed = 1;
nodes = (
(900,488,l),
(900,492,l),
(398,492,l),
(398,488,l)
);
},
{
closed = 1;
nodes = (
(764,1530,l),
(223,4,l),
(30,4,l),
(30,0,l),
(470,0,l),
(470,4,l),
(229,4,l),
(626,1126,l),
(989,4,l),
(850,4,l),
(850,0,l),
(1630,0,l),
(1630,4,l),
(1489,4,l),
(960,1530,l)
);
},
{
closed = 1;
nodes = (
(842,1845,l),
(1206,1713,l),
(1208,1715,l),
(948,2035,l),
(738,2035,l),
(478,1715,l),
(480,1713,l)
);
}
);
};
layerId = "96DEB648-6659-45A7-975A-5247D52A4CB5";
shapes = (
{
ref = A;
},
{
pos = (343,0);
ref = circumflexcomb;
}
);
width = 1659;
},
{
background = {
anchors = (
{
name = bottom;
pos = (746,0);
},
{
name = ogonek;
pos = (1236,0);
},
{
name = top;
pos = (842,1500);
}
);
shapes = (
{
closed = 1;
nodes = (
(1028,438,l),
(1028,510,l),
(370,510,l),
(370,438,l)
);
},
{
closed = 1;
nodes = (
(720,1528,l),
(204,72,l),
(28,72,l),
(28,0,l),
(472,0,l),
(472,72,l),
(287,72,l),
(640,1076,l),
(967,72,l),
(816,72,l),
(816,0,l),
(1630,0,l),
(1630,72,l),
(1465,72,l),
(960,1528,l)
);
},
{
closed = 1;
nodes = (
(842,1845,l),
(1170,1679,l),
(1208,1715,l),
(948,2035,l),
(738,2035,l),
(478,1715,l),
(514,1679,l)
);
}
);
};
layerId = "78E0DE70-2ED7-4EA0-A1D7-377506C0A4B3";
shapes = (
{
ref = A;
},
{
pos = (343,0);
ref = circumflexcomb;
}
);
width = 1658;
},
{
background = {
anchors = (
{
name = bottom;
pos = (746,0);
},
{
name = ogonek;
pos = (1266,0);
},
{
name = top;
pos = (814,1500);
}
);
shapes = (
{
closed = 1;
nodes = (
(1121,453,l),
(1121,526,l),
(461,526,l),
(461,453,l)
);
},
{
closed = 1;
nodes = (
(776,1529,l),
(260,73,l),
(86,73,l),
(86,0,l),
(526,0,l),
(526,73,l),
(343,73,l),
(754,1256,l),
(1136,73,l),
(945,73,l),
(945,0,l),
(1525,0,l),
(1525,73,l),
(1356,73,l),
(851,1529,l)
);
},
{
closed = 1;
nodes = (
(814,1849,l),
(1063,1682,l),
(1100,1719,l),
(880,1939,l),
(750,1939,l),
(530,1719,l),
(567,1682,l)
);
}
);
};
layerId = master01;
shapes = (
{
ref = A;
},
{
pos = (315,0);
ref = circumflexcomb;
}
);
width = 1611;
}
);
unicode = 194;
},
{
color = 10;
glyphname = Adieresis;
lastChange = "2023-10-05 14:16:21 +0000";
layers = (
{
background = {
anchors = (
{
name = bottom;
pos = (686,0);
},
{
name = ogonek;
pos = (1186,0);
},
{
name = top;
pos = (764,1500);
}
);
shapes = (
{
closed = 1;
nodes = (
(1037,486,l),
(1037,490,l),
(401,490,l),
(401,486,l)
);
},
{
closed = 1;
nodes = (
(762,1530,l),
(230,4,l),
(37,4,l),
(37,0,l),
(477,0,l),
(477,4,l),
(234,4,l),
(672,1256,l),
(1076,4,l),
(857,4,l),
(857,0,l),
(1437,0,l),
(1437,4,l),
(1295,4,l),
(766,1530,l)
);
},
{
closed = 1;
nodes = (
(976,1690,o),
(1019,1733,o),
(1019,1786,cs),
(1019,1839,o),
(976,1883,o),
(923,1883,cs),
(870,1883,o),
(827,1839,o),
(827,1786,cs),
(827,1733,o),
(870,1690,o),
(923,1690,cs)
);
},
{
closed = 1;
nodes = (
(656,1690,o),
(699,1733,o),
(699,1786,cs),
(699,1839,o),
(656,1883,o),
(603,1883,cs),
(550,1883,o),
(507,1839,o),
(507,1786,cs),
(507,1733,o),
(550,1690,o),
(603,1690,cs)
);
}
);
};
layerId = "131D8093-96F9-49D1-BC5C-300C1D47CA92";
shapes = (
{
ref = A;
},
{
pos = (263,0);
ref = dieresiscomb;
}
);
width = 1473;
},
{
background = {
anchors = (
{
name = bottom;
pos = (746,0);
},
{
name = ogonek;
pos = (1236,0);
},
{
name = top;
pos = (842,1500);
}
);
shapes = (
{
closed = 1;
nodes = (
(900,488,l),
(900,492,l),
(398,492,l),
(398,488,l)
);
},
{
closed = 1;
nodes = (
(764,1530,l),
(223,4,l),
(30,4,l),
(30,0,l),
(470,0,l),
(470,4,l),
(229,4,l),
(626,1126,l),
(989,4,l),
(850,4,l),
(850,0,l),
(1630,0,l),
(1630,4,l),
(1489,4,l),
(960,1530,l)
);
},
{
closed = 1;
nodes = (
(1130,1680,o),
(1191,1740,o),
(1191,1814,cs),
(1191,1888,o),
(1130,1949,o),
(1056,1949,cs),
(982,1949,o),
(922,1888,o),
(922,1814,cs),
(922,1740,o),
(982,1680,o),
(1056,1680,cs)
);
},
{
closed = 1;
nodes = (
(702,1680,o),
(763,1740,o),
(763,1814,cs),
(763,1888,o),
(702,1949,o),
(628,1949,cs),
(554,1949,o),
(494,1888,o),
(494,1814,cs),
(494,1740,o),
(554,1680,o),
(628,1680,cs)
);
}
);
};
layerId = "96DEB648-6659-45A7-975A-5247D52A4CB5";
shapes = (
{
ref = A;
},
{
pos = (342,0);
ref = dieresiscomb;
}
);
width = 1659;
},
{
background = {
anchors = (
{
name = bottom;
pos = (746,0);
},
{
name = ogonek;
pos = (1236,0);
},
{
name = top;
pos = (842,1500);
}
);
shapes = (
{
closed = 1;
nodes = (
(1028,438,l),
(1028,510,l),
(370,510,l),
(370,438,l)
);
},
{
closed = 1;
nodes = (
(720,1528,l),
(204,72,l),
(28,72,l),
(28,0,l),
(472,0,l),
(472,72,l),
(287,72,l),
(640,1076,l),
(967,72,l),
(816,72,l),
(816,0,l),
(1630,0,l),
(1630,72,l),
(1465,72,l),
(960,1528,l)
);
},
{
closed = 1;
nodes = (
(1130,1680,o),
(1191,1740,o),
(1191,1814,cs),
(1191,1888,o),
(1130,1949,o),
(1056,1949,cs),
(982,1949,o),
(922,1888,o),
(922,1814,cs),
(922,1740,o),
(982,1680,o),
(1056,1680,cs)
);
},
{
closed = 1;
nodes = (
(702,1680,o),
(763,1740,o),
(763,1814,cs),
(763,1888,o),
(702,1949,o),
(628,1949,cs),
(554,1949,o),
(494,1888,o),
(494,1814,cs),
(494,1740,o),
(554,1680,o),
(628,1680,cs)
);
}
);
};
layerId = "78E0DE70-2ED7-4EA0-A1D7-377506C0A4B3";
shapes = (
{
ref = A;
},
{
pos = (342,0);
ref = dieresiscomb;
}
);
width = 1658;
},
{
background = {
anchors = (
{
name = bottom;
pos = (746,0);
},
{
name = ogonek;
pos = (1266,0);
},
{
name = top;
pos = (814,1500);
}
);
shapes = (
{
closed = 1;
nodes = (
(1121,453,l),
(1121,526,l),
(461,526,l),
(461,453,l)
);
},
{
closed = 1;
nodes = (
(776,1529,l),
(260,73,l),
(86,73,l),
(86,0,l),
(526,0,l),
(526,73,l),
(343,73,l),
(754,1256,l),
(1136,73,l),
(945,73,l),
(945,0,l),
(1525,0,l),
(1525,73,l),
(1356,73,l),
(851,1529,l)
);
},
{
closed = 1;
nodes = (
(1026,1690,o),
(1069,1733,o),
(1069,1786,cs),
(1069,1839,o),
(1026,1883,o),
(973,1883,cs),
(920,1883,o),
(877,1839,o),
(877,1786,cs),
(877,1733,o),
(920,1690,o),
(973,1690,cs)
);
},
{
closed = 1;
nodes = (
(706,1690,o),
(749,1733,o),
(749,1786,cs),
(749,1839,o),
(706,1883,o),
(653,1883,cs),
(600,1883,o),
(557,1839,o),
(557,1786,cs),
(557,1733,o),
(600,1690,o),
(653,1690,cs)
);
}
);
};
layerId = master01;
shapes = (
{
ref = A;
},
{
pos = (313,0);
ref = dieresiscomb;
}
);
width = 1611;
}
);
unicode = 196;
},
{
color = 10;
glyphname = Agrave;
lastChange = "2023-10-05 14:16:21 +0000";
layers = (
{
background = {
anchors = (
{
name = bottom;
pos = (686,0);
},
{
name = ogonek;
pos = (1186,0);
},
{
name = top;
pos = (764,1500);
}
);
shapes = (
{
closed = 1;
nodes = (
(1037,486,l),
(1037,490,l),
(401,490,l),
(401,486,l)
);
},
{
closed = 1;
nodes = (
(762,1530,l),
(230,4,l),
(37,4,l),
(37,0,l),
(477,0,l),
(477,4,l),
(234,4,l),
(672,1256,l),
(1076,4,l),
(857,4,l),
(857,0,l),
(1437,0,l),
(1437,4,l),
(1295,4,l),
(766,1530,l)
);
},
{
closed = 1;
nodes = (
(838,1696,l),
(647,1926,ls),
(610,1971,o),
(554,1948,o),
(535,1915,cs),
(516,1882,o),
(528,1832,o),
(562,1817,cs),
(836,1693,l)
);
}
);
};
layerId = "131D8093-96F9-49D1-BC5C-300C1D47CA92";
shapes = (
{
ref = A;
},
{
pos = (182,0);
ref = gravecomb;
}
);
width = 1473;
},
{
background = {
anchors = (
{
name = bottom;
pos = (746,0);
},
{
name = ogonek;
pos = (1236,0);
},
{
name = top;
pos = (842,1500);
}
);
shapes = (
{
closed = 1;
nodes = (
(900,488,l),
(900,492,l),
(398,492,l),
(398,488,l)
);
},
{
closed = 1;
nodes = (
(764,1530,l),
(223,4,l),
(30,4,l),
(30,0,l),
(470,0,l),
(470,4,l),
(229,4,l),
(626,1126,l),
(989,4,l),
(850,4,l),
(850,0,l),
(1630,0,l),
(1630,4,l),
(1489,4,l),
(960,1530,l)
);
},
{
closed = 1;
nodes = (
(964,1683,l),
(825,1956,ls),
(749,2104,o),
(574,2079,o),
(520,2001,cs),
(454,1905,o),
(510,1739,o),
(670,1718,cs),
(962,1680,l)
);
}
);
};
layerId = "96DEB648-6659-45A7-975A-5247D52A4CB5";
shapes = (
{
ref = A;
},
{
pos = (228,0);
ref = gravecomb;
}
);
width = 1659;
},
{
background = {
anchors = (
{
name = bottom;
pos = (746,0);
},
{
name = ogonek;
pos = (1236,0);
},
{
name = top;
pos = (842,1500);
}
);
shapes = (
{
closed = 1;
nodes = (
(1028,438,l),
(1028,510,l),
(370,510,l),
(370,438,l)
);
},
{
closed = 1;
nodes = (
(720,1528,l),
(204,72,l),
(28,72,l),
(28,0,l),
(472,0,l),
(472,72,l),
(287,72,l),
(640,1076,l),
(967,72,l),
(816,72,l),
(816,0,l),
(1630,0,l),
(1630,72,l),
(1465,72,l),
(960,1528,l)
);
},
{
closed = 1;
nodes = (
(974,1708,l),
(825,1956,ls),
(739,2099,o),
(573,2079,o),
(520,2001,cs),
(454,1905,o),
(512,1752,o),
(670,1718,cs),
(942,1660,l)
);
}
);
};
layerId = "78E0DE70-2ED7-4EA0-A1D7-377506C0A4B3";
shapes = (
{
ref = A;
},
{
pos = (233,0);
ref = gravecomb;
}
);
width = 1658;
},
{
background = {
anchors = (
{
name = bottom;
pos = (746,0);
},
{
name = ogonek;
pos = (1266,0);
},
{
name = top;
pos = (814,1500);
}
);
shapes = (
{
closed = 1;
nodes = (
(1121,453,l),
(1121,526,l),
(461,526,l),
(461,453,l)
);
},
{
closed = 1;
nodes = (
(776,1529,l),
(260,73,l),
(86,73,l),
(86,0,l),
(526,0,l),
(526,73,l),
(343,73,l),
(754,1256,l),
(1136,73,l),
(945,73,l),
(945,0,l),
(1525,0,l),
(1525,73,l),
(1356,73,l),
(851,1529,l)
);
},
{
closed = 1;
nodes = (
(909,1719,l),
(697,1926,ls),
(655,1967,o),
(604,1948,o),
(585,1915,cs),
(566,1882,o),
(580,1836,o),
(612,1817,cs),
(864,1670,l)
);
}
);
};
layerId = master01;
shapes = (
{
ref = A;
},
{
pos = (243,0);
ref = gravecomb;
}
);
width = 1611;
}
);
unicode = 192;
},
{
color = 10;
glyphname = Amacron;
lastChange = "2023-10-05 14:16:21 +0000";
layers = (
{
background = {
anchors = (
{
name = bottom;
pos = (686,0);
},
{
name = ogonek;
pos = (1186,0);
},
{
name = top;
pos = (764,1500);
}
);
shapes = (
{
closed = 1;
nodes = (
(1037,486,l),
(1037,490,l),
(401,490,l),
(401,486,l)
);
},
{
closed = 1;
nodes = (
(762,1530,l),
(230,4,l),
(37,4,l),
(37,0,l),
(477,0,l),
(477,4,l),
(234,4,l),
(672,1256,l),
(1076,4,l),
(857,4,l),
(857,0,l),
(1437,0,l),
(1437,4,l),
(1295,4,l),
(766,1530,l)
);
},
{
closed = 1;
nodes = (
(1004,1700,l),
(1004,1704,l),
(524,1704,l),
(524,1700,l)
);
}
);
};
layerId = "131D8093-96F9-49D1-BC5C-300C1D47CA92";
shapes = (
{
ref = A;
},
{
pos = (264,0);
ref = macroncomb;
}
);
width = 1473;
},
{
background = {
anchors = (
{
name = bottom;
pos = (746,0);
},
{
name = ogonek;
pos = (1236,0);
},
{
name = top;
pos = (842,1500);
}
);
shapes = (
{
closed = 1;
nodes = (
(900,488,l),
(900,492,l),
(398,492,l),
(398,488,l)
);
},
{
closed = 1;
nodes = (
(764,1530,l),
(223,4,l),
(30,4,l),
(30,0,l),
(470,0,l),
(470,4,l),
(229,4,l),
(626,1126,l),
(989,4,l),
(850,4,l),
(850,0,l),
(1630,0,l),
(1630,4,l),
(1489,4,l),
(960,1530,l)
);
},
{
closed = 1;
nodes = (
(1082,1700,l),
(1082,1704,l),
(602,1704,l),
(602,1700,l)
);
}
);
};
layerId = "96DEB648-6659-45A7-975A-5247D52A4CB5";
shapes = (
{
ref = A;
},
{
pos = (342,0);
ref = macroncomb;
}
);
width = 1659;
},
{
background = {
anchors = (
{
name = bottom;
pos = (746,0);
},
{
name = ogonek;
pos = (1236,0);
},
{
name = top;
pos = (842,1500);
}
);
shapes = (
{
closed = 1;
nodes = (
(1028,438,l),
(1028,510,l),
(370,510,l),
(370,438,l)
);
},
{
closed = 1;
nodes = (
(720,1528,l),
(204,72,l),
(28,72,l),
(28,0,l),
(472,0,l),
(472,72,l),
(287,72,l),
(640,1076,l),
(967,72,l),
(816,72,l),
(816,0,l),
(1630,0,l),
(1630,72,l),
(1465,72,l),
(960,1528,l)
);
},
{
closed = 1;
nodes = (
(1082,1700,l),
(1082,1772,l),
(602,1772,l),
(602,1700,l)
);
}
);
};
layerId = "78E0DE70-2ED7-4EA0-A1D7-377506C0A4B3";
shapes = (
{
ref = A;
},
{
pos = (342,0);
ref = macroncomb;
}
);
width = 1658;
},
{
background = {
anchors = (
{
name = bottom;
pos = (746,0);
},
{
name = ogonek;
pos = (1266,0);
},
{
name = top;
pos = (814,1500);
}
);
shapes = (
{
closed = 1;
nodes = (
(1121,453,l),
(1121,526,l),
(461,526,l),
(461,453,l)
);
},
{
closed = 1;
nodes = (
(776,1529,l),
(260,73,l),
(86,73,l),
(86,0,l),
(526,0,l),
(526,73,l),
(343,73,l),
(754,1256,l),
(1136,73,l),
(945,73,l),
(945,0,l),
(1525,0,l),
(1525,73,l),
(1356,73,l),
(851,1529,l)
);
},
{
closed = 1;
nodes = (
(1054,1700,l),
(1054,1772,l),
(574,1772,l),
(574,1700,l)
);
}
);
};
layerId = master01;
shapes = (
{
ref = A;
},
{
pos = (314,0);
ref = macroncomb;
}
);
width = 1611;
}
);
unicode = 256;
},
{
color = 10;
glyphname = Aogonek;
lastChange = "2023-10-05 14:16:21 +0000";
layers = (
{
background = {
anchors = (
{
name = bottom;
pos = (686,0);
},
{
name = ogonek;
pos = (1186,0);
},
{
name = top;
pos = (764,1500);
}
);
shapes = (
{
closed = 1;
nodes = (
(1037,486,l),
(1037,490,l),
(401,490,l),
(401,486,l)
);
},
{
closed = 1;
nodes = (
(762,1530,l),
(230,4,l),
(37,4,l),
(37,0,l),
(477,0,l),
(477,4,l),
(234,4,l),
(672,1256,l),
(1076,4,l),
(857,4,l),
(857,0,l),
(1437,0,l),
(1437,4,l),
(1295,4,l),
(766,1530,l)
);
},
{
closed = 1;
nodes = (
(1311,-419,o),
(1369,-329,o),
(1399,-273,c),
(1397,-271,l),
(1359,-333,o),
(1325,-383,o),
(1253,-383,cs),
(1185,-383,o),
(1139,-311,o),
(1139,-217,cs),
(1139,-91,o),
(1173,1,o),
(1235,35,c),
(1231,39,l),
(1109,-1,o),
(953,-87,o),
(953,-247,cs),
(953,-367,o),
(1067,-419,o),
(1169,-419,cs)
);
}
);
};
layerId = "131D8093-96F9-49D1-BC5C-300C1D47CA92";
shapes = (
{
ref = A;
},
{
pos = (676,-47);
ref = ogonekcomb;
}
);
width = 1473;
},
{
background = {
anchors = (
{
name = bottom;
pos = (746,0);
},
{
name = ogonek;
pos = (1236,0);
},
{
name = top;
pos = (842,1500);
}
);
shapes = (
{
closed = 1;
nodes = (
(900,488,l),
(900,492,l),
(398,492,l),
(398,488,l)
);
},
{
closed = 1;
nodes = (
(764,1530,l),
(223,4,l),
(30,4,l),
(30,0,l),
(470,0,l),
(470,4,l),
(229,4,l),
(626,1126,l),
(989,4,l),
(850,4,l),
(850,0,l),
(1630,0,l),
(1630,4,l),
(1489,4,l),
(960,1530,l)
);
},
{
closed = 1;
nodes = (
(1331,-474,o),
(1369,-384,o),
(1399,-328,c),
(1397,-326,l),
(1367,-384,o),
(1341,-422,o),
(1297,-422,cs),
(1249,-422,o),
(1199,-366,o),
(1199,-232,cs),
(1199,-86,o),
(1251,6,o),
(1273,20,c),
(1271,24,l),
(1089,-26,o),
(853,-142,o),
(853,-302,cs),
(853,-422,o),
(967,-474,o),
(1129,-474,cs)
);
}
);
};
layerId = "96DEB648-6659-45A7-975A-5247D52A4CB5";
shapes = (
{
ref = A;
},
{
pos = (626,-37);
ref = ogonekcomb;
}
);
width = 1659;
},
{
background = {
anchors = (
{
name = bottom;
pos = (746,0);
},
{
name = ogonek;
pos = (1236,0);
},
{
name = top;
pos = (842,1500);
}
);
shapes = (
{
closed = 1;
nodes = (
(1028,438,l),
(1028,510,l),
(370,510,l),
(370,438,l)
);
},
{
closed = 1;
nodes = (
(720,1528,l),
(204,72,l),
(28,72,l),
(28,0,l),
(472,0,l),
(472,72,l),
(287,72,l),
(640,1076,l),
(967,72,l),
(816,72,l),
(816,0,l),
(1630,0,l),
(1630,72,l),
(1465,72,l),
(960,1528,l)
);
},
{
closed = 1;
nodes = (
(1331,-474,o),
(1371,-384,o),
(1399,-328,c),
(1337,-300,l),
(1319,-332,o),
(1303,-358,o),
(1267,-358,cs),
(1227,-358,o),
(1199,-320,o),
(1199,-235,cs),
(1199,-109,o),
(1259,-12,o),
(1279,2,c),
(1261,54,l),
(1079,4,o),
(853,-142,o),
(853,-302,cs),
(853,-422,o),
(967,-474,o),
(1129,-474,cs)
);
}
);
};
layerId = "78E0DE70-2ED7-4EA0-A1D7-377506C0A4B3";
shapes = (
{
ref = A;
},
{
pos = (626,-37);
ref = ogonekcomb;
}
);
width = 1658;
},
{
background = {
anchors = (
{
name = bottom;
pos = (746,0);
},
{
name = ogonek;
pos = (1266,0);
},
{
name = top;
pos = (814,1500);
}
);
shapes = (
{
closed = 1;
nodes = (
(1121,453,l),
(1121,526,l),
(461,526,l),
(461,453,l)
);
},
{
closed = 1;
nodes = (
(776,1529,l),
(260,73,l),
(86,73,l),
(86,0,l),
(526,0,l),
(526,73,l),
(343,73,l),
(754,1256,l),
(1136,73,l),
(945,73,l),
(945,0,l),
(1525,0,l),
(1525,73,l),
(1356,73,l),
(851,1529,l)
);
},
{
closed = 1;
nodes = (
(1392,-419,o),
(1449,-331,o),
(1478,-274,c),
(1431,-242,l),
(1410,-284,o),
(1371,-322,o),
(1314,-322,cs),
(1246,-322,o),
(1219,-271,o),
(1219,-197,cs),
(1219,-111,o),
(1274,-34,o),
(1336,0,c),
(1315,38,l),
(1191,-2,o),
(1033,-88,o),
(1033,-247,cs),
(1033,-367,o),
(1147,-419,o),
(1249,-419,cs)
);
}
);
};
layerId = master01;
shapes = (
{
ref = A;
},
{
pos = (755,-47);
ref = ogonekcomb;
}
);
width = 1611;
}
);
unicode = 260;
},
{
color = 10;
glyphname = Aring;
lastChange = "2023-10-05 14:16:21 +0000";
layers = (
{
background = {
anchors = (
{
name = bottom;
pos = (686,0);
},
{
name = ogonek;
pos = (1186,0);
},
{
name = top;
pos = (764,1500);
}
);
shapes = (
{
closed = 1;
nodes = (
(1037,486,l),
(1037,490,l),
(401,490,l),
(401,486,l)
);
},
{
closed = 1;
nodes = (
(762,1530,l),
(230,4,l),
(37,4,l),
(37,0,l),
(477,0,l),
(477,4,l),
(234,4,l),
(672,1256,l),
(1076,4,l),
(857,4,l),
(857,0,l),
(1437,0,l),
(1437,4,l),
(1295,4,l),
(766,1530,l)
);
},
{
closed = 1;
nodes = (
(866,1680,o),
(944,1758,o),
(944,1860,cs),
(944,1962,o),
(866,2040,o),
(764,2040,cs),
(662,2040,o),
(584,1962,o),
(584,1860,cs),
(584,1758,o),
(662,1680,o),
(764,1680,cs)
);
},
{
closed = 1;
nodes = (
(670,1684,o),
(654,1776,o),
(654,1860,cs),
(654,1944,o),
(670,2036,o),
(764,2036,cs),
(858,2036,o),
(874,1944,o),
(874,1860,cs),
(874,1776,o),
(858,1684,o),
(764,1684,cs)
);
}
);
};
layerId = "131D8093-96F9-49D1-BC5C-300C1D47CA92";
shapes = (
{
ref = A;
},
{
pos = (264,0);
ref = ringcomb;
}
);
width = 1473;
},
{
background = {
anchors = (
{
name = bottom;
pos = (746,0);
},
{
name = ogonek;
pos = (1236,0);
},
{
name = top;
pos = (842,1500);
}
);
shapes = (
{
closed = 1;
nodes = (
(900,488,l),
(900,492,l),
(398,492,l),
(398,488,l)
);
},
{
closed = 1;
nodes = (
(764,1530,l),
(223,4,l),
(30,4,l),
(30,0,l),
(470,0,l),
(470,4,l),
(229,4,l),
(626,1126,l),
(989,4,l),
(850,4,l),
(850,0,l),
(1630,0,l),
(1630,4,l),
(1489,4,l),
(960,1530,l)
);
},
{
closed = 1;
nodes = (
(984,1680,o),
(1062,1758,o),
(1062,1860,cs),
(1062,1962,o),
(984,2040,o),
(842,2040,cs),
(700,2040,o),
(622,1962,o),
(622,1860,cs),
(622,1758,o),
(700,1680,o),
(842,1680,cs)
);
},
{
closed = 1;
nodes = (
(808,1684,o),
(792,1736,o),
(792,1860,cs),
(792,1984,o),
(808,2036,o),
(842,2036,cs),
(876,2036,o),
(892,1984,o),
(892,1860,cs),
(892,1736,o),
(876,1684,o),
(842,1684,cs)
);
}
);
};
layerId = "96DEB648-6659-45A7-975A-5247D52A4CB5";
shapes = (
{
ref = A;
},
{
pos = (342,0);
ref = ringcomb;
}
);
width = 1659;
},
{
background = {
anchors = (
{
name = bottom;
pos = (746,0);
},
{
name = ogonek;
pos = (1236,0);
},
{
name = top;
pos = (842,1500);
}
);
shapes = (
{
closed = 1;
nodes = (
(1028,438,l),
(1028,510,l),
(370,510,l),
(370,438,l)
);
},
{
closed = 1;
nodes = (
(720,1528,l),
(204,72,l),
(28,72,l),
(28,0,l),
(472,0,l),
(472,72,l),
(287,72,l),
(640,1076,l),
(967,72,l),
(816,72,l),
(816,0,l),
(1630,0,l),
(1630,72,l),
(1465,72,l),
(960,1528,l)
);
},
{
closed = 1;
nodes = (
(986,1680,o),
(1062,1758,o),
(1062,1860,cs),
(1062,1962,o),
(986,2040,o),
(842,2040,cs),
(698,2040,o),
(622,1962,o),
(622,1860,cs),
(622,1758,o),
(698,1680,o),
(842,1680,cs)
);
},
{
closed = 1;
nodes = (
(808,1754,o),
(792,1780,o),
(792,1860,cs),
(792,1940,o),
(808,1968,o),
(842,1968,cs),
(876,1968,o),
(892,1940,o),
(892,1860,cs),
(892,1780,o),
(876,1754,o),
(842,1754,cs)
);
}
);
};
layerId = "78E0DE70-2ED7-4EA0-A1D7-377506C0A4B3";
shapes = (
{
ref = A;
},
{
pos = (342,0);
ref = ringcomb;
}
);
width = 1658;
},
{
background = {
anchors = (
{
name = bottom;
pos = (746,0);
},
{
name = ogonek;
pos = (1266,0);
},
{
name = top;
pos = (814,1500);
}
);
shapes = (
{
closed = 1;
nodes = (
(1121,453,l),
(1121,526,l),
(461,526,l),
(461,453,l)
);
},
{
closed = 1;
nodes = (
(776,1529,l),
(260,73,l),
(86,73,l),
(86,0,l),
(526,0,l),
(526,73,l),
(343,73,l),
(754,1256,l),
(1136,73,l),
(945,73,l),
(945,0,l),
(1525,0,l),
(1525,73,l),
(1356,73,l),
(851,1529,l)
);
},
{
closed = 1;
nodes = (
(916,1680,o),
(994,1757,o),
(994,1859,cs),
(994,1961,o),
(916,2040,o),
(814,2040,cs),
(712,2040,o),
(635,1961,o),
(635,1859,cs),
(635,1757,o),
(712,1680,o),
(814,1680,cs)
);
},
{
closed = 1;
nodes = (
(759,1754,o),
(713,1790,o),
(713,1859,cs),
(713,1928,o),
(759,1967,o),
(814,1967,cs),
(869,1967,o),
(916,1928,o),
(916,1859,cs),
(916,1790,o),
(869,1754,o),
(814,1754,cs)
);
}
);
};
layerId = master01;
shapes = (
{
ref = A;
},
{
pos = (314,0);
ref = ringcomb;
}
);
width = 1611;
}
);
unicode = 197;
},
{
color = 10;
glyphname = Atilde;
lastChange = "2023-10-05 14:16:21 +0000";
layers = (
{
background = {
anchors = (
{
name = bottom;
pos = (686,0);
},
{
name = ogonek;
pos = (1186,0);
},
{
name = top;
pos = (764,1500);
}
);
shapes = (
{
closed = 1;
nodes = (
(1037,486,l),
(1037,490,l),
(401,490,l),
(401,486,l)
);
},
{
closed = 1;
nodes = (
(762,1530,l),
(230,4,l),
(37,4,l),
(37,0,l),
(477,0,l),
(477,4,l),
(234,4,l),
(672,1256,l),
(1076,4,l),
(857,4,l),
(857,0,l),
(1437,0,l),
(1437,4,l),
(1295,4,l),
(766,1530,l)
);
},
{
closed = 1;
nodes = (
(1056,1680,o),
(1116,1744,o),
(1116,1934,c),
(1112,1934,l),
(1112,1830,o),
(1056,1796,o),
(970,1796,cs),
(858,1796,o),
(758,1954,o),
(618,1954,cs),
(520,1954,o),
(420,1870,o),
(420,1700,c),
(424,1700,l),
(424,1804,o),
(500,1838,o),
(566,1838,cs),
(692,1838,o),
(804,1680,o),
(938,1680,cs)
);
}
);
};
layerId = "131D8093-96F9-49D1-BC5C-300C1D47CA92";
shapes = (
{
ref = A;
},
{
pos = (268,0);
ref = tildecomb;
}
);
width = 1473;
},
{
background = {
anchors = (
{
name = bottom;
pos = (746,0);
},
{
name = ogonek;
pos = (1236,0);
},
{
name = top;
pos = (842,1500);
}
);
shapes = (
{
closed = 1;
nodes = (
(900,488,l),
(900,492,l),
(398,492,l),
(398,488,l)
);
},
{
closed = 1;
nodes = (
(764,1530,l),
(223,4,l),
(30,4,l),
(30,0,l),
(470,0,l),
(470,4,l),
(229,4,l),
(626,1126,l),
(989,4,l),
(850,4,l),
(850,0,l),
(1630,0,l),
(1630,4,l),
(1489,4,l),
(960,1530,l)
);
},
{
closed = 1;
nodes = (
(1184,1640,o),
(1184,1784,o),
(1184,1974,c),
(1180,1974,l),
(1180,1930,o),
(1144,1876,o),
(1058,1876,cs),
(906,1876,o),
(866,2034,o),
(686,2034,cs),
(528,2034,o),
(488,1870,o),
(488,1700,c),
(492,1700,l),
(492,1744,o),
(528,1798,o),
(614,1798,cs),
(780,1798,o),
(832,1640,o),
(1006,1640,cs)
);
}
);
};
layerId = "96DEB648-6659-45A7-975A-5247D52A4CB5";
shapes = (
{
ref = A;
},
{
pos = (336,0);
ref = tildecomb;
}
);
width = 1659;
},
{
background = {
anchors = (
{
name = bottom;
pos = (746,0);
},
{
name = ogonek;
pos = (1236,0);
},
{
name = top;
pos = (842,1500);
}
);
shapes = (
{
closed = 1;
nodes = (
(1028,438,l),
(1028,510,l),
(370,510,l),
(370,438,l)
);
},
{
closed = 1;
nodes = (
(720,1528,l),
(204,72,l),
(28,72,l),
(28,0,l),
(472,0,l),
(472,72,l),
(287,72,l),
(640,1076,l),
(967,72,l),
(816,72,l),
(816,0,l),
(1630,0,l),
(1630,72,l),
(1465,72,l),
(960,1528,l)
);
},
{
closed = 1;
nodes = (
(1184,1640,o),
(1184,1786,o),
(1184,1974,c),
(1112,1974,l),
(1112,1930,o),
(1080,1876,o),
(1034,1876,cs),
(910,1876,o),
(866,2034,o),
(686,2034,cs),
(528,2034,o),
(488,1870,o),
(488,1700,c),
(562,1700,l),
(562,1744,o),
(592,1796,o),
(638,1796,cs),
(774,1796,o),
(832,1640,o),
(1006,1640,cs)
);
}
);
};
layerId = "78E0DE70-2ED7-4EA0-A1D7-377506C0A4B3";
shapes = (
{
ref = A;
},
{
pos = (336,0);
ref = tildecomb;
}
);
width = 1658;
},
{
background = {
anchors = (
{
name = bottom;
pos = (746,0);
},
{
name = ogonek;
pos = (1266,0);
},
{
name = top;
pos = (814,1500);
}
);
shapes = (
{
closed = 1;
nodes = (
(1121,453,l),
(1121,526,l),
(461,526,l),
(461,453,l)
);
},
{
closed = 1;
nodes = (
(776,1529,l),
(260,73,l),
(86,73,l),
(86,0,l),
(526,0,l),
(526,73,l),
(343,73,l),
(754,1256,l),
(1136,73,l),
(945,73,l),
(945,0,l),
(1525,0,l),
(1525,73,l),
(1356,73,l),
(851,1529,l)
);
},
{
closed = 1;
nodes = (
(1082,1680,o),
(1166,1745,o),
(1166,1934,c),
(1093,1934,l),
(1093,1830,o),
(1047,1796,o),
(981,1796,cs),
(889,1796,o),
(866,1954,o),
(692,1954,cs),
(594,1954,o),
(470,1870,o),
(470,1700,c),
(544,1700,l),
(544,1804,o),
(589,1838,o),
(655,1838,cs),
(760,1838,o),
(796,1680,o),
(964,1680,cs)
);
}
);
};
layerId = master01;
shapes = (
{
ref = A;
},
{
pos = (318,0);
ref = tildecomb;
}
);
width = 1611;
}
);
unicode = 195;
},
{
color = (0,171,232,255);
glyphname = AE;
lastChange = "2023-10-06 08:49:31 +0000";
layers = (
{
background = {
shapes = (
{
closed = 1;
nodes = (
(226,0,l),
(1056,1500,l),
(1050,1500,l),
(220,0,l)
);
},
{
closed = 1;
nodes = (
(470,0,l),
(470,4,l),
(30,4,l),
(30,0,l)
);
},
{
closed = 1;
nodes = (
(1070,488,l),
(1070,492,l),
(494,492,l),
(494,488,l)
);
},
{
closed = 1;
nodes = (
(1940,0,l),
(1940,450,l),
(1936,450,l),
(1936,196,o),
(1834,4,o),
(1560,4,cs),
(870,4,l),
(870,0,l)
);
},
{
closed = 1;
nodes = (
(1240,0,l),
(1240,1500,l),
(1050,1500,l),
(1050,0,l)
);
},
{
closed = 1;
nodes = (
(1580,556,l),
(1580,986,l),
(1576,986,l),
(1576,852,o),
(1474,778,o),
(1360,778,cs),
(1240,778,l),
(1240,774,l),
(1360,774,ls),
(1474,774,o),
(1576,690,o),
(1576,556,c)
);
},
{
closed = 1;
nodes = (
(1920,1090,l),
(1920,1500,l),
(1050,1500,l),
(1050,1496,l),
(1580,1496,ls),
(1814,1496,o),
(1916,1304,o),
(1916,1090,c)
);
}
);
};
layerId = "131D8093-96F9-49D1-BC5C-300C1D47CA92";
shapes = (
{
closed = 1;
nodes = (
(226,0,l),
(1056,1500,l),
(1050,1500,l),
(220,0,l)
);
},
{
closed = 1;
nodes = (
(470,0,l),
(470,4,l),
(30,4,l),
(30,0,l)
);
},
{
closed = 1;
nodes = (
(1070,488,l),
(1070,492,l),
(494,492,l),
(494,488,l)
);
},
{
closed = 1;
nodes = (
(1940,0,l),
(1940,450,l),
(1936,450,l),
(1936,196,o),
(1834,4,o),
(1560,4,cs),
(870,4,l),
(870,0,l)
);
},
{
closed = 1;
nodes = (
(1240,0,l),
(1240,1500,l),
(1050,1500,l),
(1050,0,l)
);
},
{
closed = 1;
nodes = (
(1580,556,l),
(1580,986,l),
(1576,986,l),
(1576,852,o),
(1474,778,o),
(1360,778,cs),
(1240,778,l),
(1240,774,l),
(1360,774,ls),
(1474,774,o),
(1576,690,o),
(1576,556,c)
);
},
{
closed = 1;
nodes = (
(1920,1090,l),
(1920,1500,l),
(1050,1500,l),
(1050,1496,l),
(1580,1496,ls),
(1814,1496,o),
(1916,1304,o),
(1916,1090,c)
);
}
);
width = 2000;
},
{
background = {
shapes = (
{
closed = 1;
nodes = (
(216,0,l),
(1056,1500,l),
(1050,1500,l),
(210,0,l)
);
},
{
closed = 1;
nodes = (
(470,0,l),
(470,4,l),
(30,4,l),
(30,0,l)
);
},
{
closed = 1;
nodes = (
(1070,488,l),
(1070,492,l),
(490,492,l),
(490,488,l)
);
},
{
closed = 1;
nodes = (
(2120,0,l),
(2120,450,l),
(2116,450,l),
(2056,196,o),
(1854,4,o),
(1600,4,cs),
(870,4,l),
(870,0,l)
);
},
{
closed = 1;
nodes = (
(1480,0,l),
(1480,1500,l),
(1050,1500,l),
(1050,0,l)
);
},
{
closed = 1;
nodes = (
(1820,496,l),
(1820,1046,l),
(1816,1046,l),
(1756,912,o),
(1614,778,o),
(1500,778,cs),
(1380,778,l),
(1380,774,l),
(1500,774,ls),
(1614,774,o),
(1756,630,o),
(1816,496,c)
);
},
{
closed = 1;
nodes = (
(2100,1090,l),
(2100,1500,l),
(1050,1500,l),
(1050,1496,l),
(1620,1496,ls),
(1834,1496,o),
(2036,1304,o),
(2096,1090,c)
);
}
);
};
layerId = "96DEB648-6659-45A7-975A-5247D52A4CB5";
shapes = (
{
closed = 1;
nodes = (
(216,0,l),
(1056,1500,l),
(1050,1500,l),
(210,0,l)
);
},
{
closed = 1;
nodes = (
(470,0,l),
(470,4,l),
(30,4,l),
(30,0,l)
);
},
{
closed = 1;
nodes = (
(1070,488,l),
(1070,492,l),
(490,492,l),
(490,488,l)
);
},
{
closed = 1;
nodes = (
(2120,0,l),
(2120,450,l),
(2116,450,l),
(2056,196,o),
(1854,4,o),
(1600,4,cs),
(870,4,l),
(870,0,l)
);
},
{
closed = 1;
nodes = (
(1480,0,l),
(1480,1500,l),
(1050,1500,l),
(1050,0,l)
);
},
{
closed = 1;
nodes = (
(1820,496,l),
(1820,1046,l),
(1816,1046,l),
(1756,912,o),
(1614,778,o),
(1500,778,cs),
(1380,778,l),
(1380,774,l),
(1500,774,ls),
(1614,774,o),
(1756,630,o),
(1816,496,c)
);
},
{
closed = 1;
nodes = (
(2100,1090,l),
(2100,1500,l),
(1050,1500,l),
(1050,1496,l),
(1620,1496,ls),
(1834,1496,o),
(2036,1304,o),
(2096,1090,c)
);
}
);
width = 2179;
},
{
background = {
shapes = (
{
closed = 1;
nodes = (
(228,0,l),
(1096,1500,l),
(1016,1500,l),
(136,0,l)
);
},
{
closed = 1;
nodes = (
(472,0,l),
(472,72,l),
(28,72,l),
(28,0,l)
);
},
{
closed = 1;
nodes = (
(1070,452,l),
(1070,526,l),
(490,526,l),
(456,452,l)
);
},
{
closed = 1;
nodes = (
(2152,0,l),
(2152,450,l),
(2080,450,l),
(2020,196,o),
(1854,72,o),
(1600,72,cs),
(870,72,l),
(870,0,l)
);
},
{
closed = 1;
nodes = (
(1480,0,l),
(1480,1500,l),
(1050,1500,l),
(1050,0,l)
);
},
{
closed = 1;
nodes = (
(1854,496,l),
(1854,1046,l),
(1780,1046,l),
(1720,912,o),
(1612,812,o),
(1500,812,cs),
(1380,812,l),
(1380,740,l),
(1500,740,ls),
(1612,740,o),
(1720,630,o),
(1780,496,c)
);
},
{
closed = 1;
nodes = (
(2132,1090,l),
(2132,1500,l),
(1050,1500,l),
(1050,1428,l),
(1620,1428,ls),
(1834,1428,o),
(2000,1304,o),
(2060,1090,c)
);
}
);
};
layerId = "78E0DE70-2ED7-4EA0-A1D7-377506C0A4B3";
shapes = (
{
closed = 1;
nodes = (
(228,0,l),
(1096,1500,l),
(1016,1500,l),
(136,0,l)
);
},
{
closed = 1;
nodes = (
(472,0,l),
(472,72,l),
(28,72,l),
(28,0,l)
);
},
{
closed = 1;
nodes = (
(1070,452,l),
(1070,526,l),
(490,526,l),
(456,452,l)
);
},
{
closed = 1;
nodes = (
(2152,0,l),
(2152,450,l),
(2080,450,l),
(2020,196,o),
(1854,72,o),
(1600,72,cs),
(870,72,l),
(870,0,l)
);
},
{
closed = 1;
nodes = (
(1480,0,l),
(1480,1500,l),
(1050,1500,l),
(1050,0,l)
);
},
{
closed = 1;
nodes = (
(1854,496,l),
(1854,1046,l),
(1780,1046,l),
(1720,912,o),
(1612,812,o),
(1500,812,cs),
(1380,812,l),
(1380,740,l),
(1500,740,ls),
(1612,740,o),
(1720,630,o),
(1780,496,c)
);
},
{
closed = 1;
nodes = (
(2132,1090,l),
(2132,1500,l),
(1050,1500,l),
(1050,1428,l),
(1620,1428,ls),
(1834,1428,o),
(2000,1304,o),
(2060,1090,c)
);
}
);
width = 2212;
},
{
background = {
shapes = (
{
closed = 1;
nodes = (
(250,0,l),
(1121,1500,l),
(1050,1500,l),
(170,0,l)
);
},
{
closed = 1;
nodes = (
(471,0,l),
(471,73,l),
(29,73,l),
(29,0,l)
);
},
{
closed = 1;
nodes = (
(1070,453,l),
(1070,526,l),
(490,526,l),
(490,453,l)
);
},
{
closed = 1;
nodes = (
(1973,0,l),
(1973,450,l),
(1900,450,l),
(1900,196,o),
(1834,73,o),
(1561,73,cs),
(870,73,l),
(870,0,l)
);
},
{
closed = 1;
nodes = (
(1240,0,l),
(1240,1500,l),
(1050,1500,l),
(1050,0,l)
);
},
{
closed = 1;
nodes = (
(1613,557,l),
(1613,986,l),
(1540,986,l),
(1540,852,o),
(1472,812,o),
(1359,812,cs),
(1240,812,l),
(1240,739,l),
(1359,739,ls),
(1472,739,o),
(1540,691,o),
(1540,557,c)
);
},
{
closed = 1;
nodes = (
(1953,1090,l),
(1953,1500,l),
(1050,1500,l),
(1050,1427,l),
(1580,1427,ls),
(1814,1427,o),
(1880,1304,o),
(1880,1090,c)
);
}
);
};
layerId = master01;
shapes = (
{
closed = 1;
nodes = (
(250,0,l),
(1121,1500,l),
(1050,1500,l),
(170,0,l)
);
},
{
closed = 1;
nodes = (
(471,0,l),
(471,73,l),
(29,73,l),
(29,0,l)
);
},
{
closed = 1;
nodes = (
(1070,453,l),
(1070,526,l),
(490,526,l),
(490,453,l)
);
},
{
closed = 1;
nodes = (
(1973,0,l),
(1973,450,l),
(1900,450,l),
(1900,196,o),
(1834,73,o),
(1561,73,cs),
(870,73,l),
(870,0,l)
);
},
{
closed = 1;
nodes = (
(1240,0,l),
(1240,1500,l),
(1050,1500,l),
(1050,0,l)
);
},
{
closed = 1;
nodes = (
(1613,557,l),
(1613,986,l),
(1540,986,l),
(1540,852,o),
(1472,812,o),
(1359,812,cs),
(1240,812,l),
(1240,739,l),
(1359,739,ls),
(1472,739,o),
(1540,691,o),
(1540,557,c)
);
},
{
closed = 1;
nodes = (
(1953,1090,l),
(1953,1500,l),
(1050,1500,l),
(1050,1427,l),
(1580,1427,ls),
(1814,1427,o),
(1880,1304,o),
(1880,1090,c)
);
}
);
width = 2033;
}
);
unicode = 198;
},
{
color = (0,171,232,255);
glyphname = B;
lastChange = "2023-10-06 08:49:31 +0000";
layers = (
{
anchors = (
{
name = bottom;
pos = (566,0);
},
{
name = top;
pos = (494,1500);
}
);
background = {
anchors = (
{
name = bottom;
pos = (566,0);
},
{
name = top;
pos = (494,1500);
}
);
shapes = (
{
closed = 1;
nodes = (
(657,0,ls),
(979,0,o),
(1176,120,o),
(1176,420,cs),
(1176,680,o),
(939,772,o),
(657,772,cs),
(397,772,l),
(397,768,l),
(636,768,ls),
(808,768,o),
(957,658,o),
(957,420,cs),
(957,182,o),
(808,4,o),
(636,4,cs),
(37,4,l),
(37,0,l)
);
},
{
closed = 1;
nodes = (
(407,2,l),
(407,1498,l),
(216,1498,l),
(216,2,l)
);
},
{
closed = 1;
nodes = (
(617,768,ls),
(939,768,o),
(1117,870,o),
(1117,1130,cs),
(1117,1390,o),
(919,1500,o),
(617,1500,cs),
(37,1500,l),
(37,1496,l),
(617,1496,ls),
(769,1496,o),
(917,1348,o),
(917,1110,cs),
(917,872,o),
(769,772,o),
(617,772,cs),
(397,772,l),
(397,768,l)
);
}
);
};
layerId = "131D8093-96F9-49D1-BC5C-300C1D47CA92";
shapes = (
{
closed = 1;
nodes = (
(657,0,ls),
(979,0,o),
(1176,120,o),
(1176,420,cs),
(1176,680,o),
(939,772,o),
(657,772,cs),
(397,772,l),
(397,768,l),
(636,768,ls),
(808,768,o),
(957,658,o),
(957,420,cs),
(957,182,o),
(808,4,o),
(636,4,cs),
(37,4,l),
(37,0,l)
);
},
{
closed = 1;
nodes = (
(407,2,l),
(407,1498,l),
(216,1498,l),
(216,2,l)
);
},
{
closed = 1;
nodes = (
(617,768,ls),
(939,768,o),
(1117,870,o),
(1117,1130,cs),
(1117,1390,o),
(919,1500,o),
(617,1500,cs),
(37,1500,l),
(37,1496,l),
(617,1496,ls),
(769,1496,o),
(917,1348,o),
(917,1110,cs),
(917,872,o),
(769,772,o),
(617,772,cs),
(397,772,l),
(397,768,l)
);
}
);
width = 1259;
},
{
anchors = (
{
name = bottom;
pos = (746,0);
},
{
name = top;
pos = (784,1500);
}
);
background = {
anchors = (
{
name = bottom;
pos = (746,0);
},
{
name = top;
pos = (784,1500);
}
);
shapes = (
{
closed = 1;
nodes = (
(850,0,ls),
(1232,0,o),
(1450,100,o),
(1450,380,cs),
(1450,680,o),
(1192,772,o),
(850,772,cs),
(550,772,l),
(550,768,l),
(750,768,ls),
(902,768,o),
(990,658,o),
(990,420,cs),
(990,182,o),
(902,4,o),
(750,4,cs),
(30,4,l),
(30,0,l)
);
},
{
closed = 1;
nodes = (
(640,2,l),
(640,1498,l),
(210,1498,l),
(210,2,l)
);
},
{
closed = 1;
nodes = (
(810,768,ls),
(1192,768,o),
(1390,890,o),
(1390,1130,cs),
(1390,1390,o),
(1172,1500,o),
(810,1500,cs),
(30,1500,l),
(30,1496,l),
(730,1496,ls),
(862,1496,o),
(950,1348,o),
(950,1110,cs),
(950,872,o),
(862,772,o),
(730,772,cs),
(550,772,l),
(550,768,l)
);
}
);
};
layerId = "96DEB648-6659-45A7-975A-5247D52A4CB5";
shapes = (
{
closed = 1;
nodes = (
(850,0,ls),
(1232,0,o),
(1450,100,o),
(1450,380,cs),
(1450,680,o),
(1192,772,o),
(850,772,cs),
(550,772,l),
(550,768,l),
(750,768,ls),
(902,768,o),
(990,658,o),
(990,420,cs),
(990,182,o),
(902,4,o),
(750,4,cs),
(30,4,l),
(30,0,l)
);
},
{
closed = 1;
nodes = (
(640,2,l),
(640,1498,l),
(210,1498,l),
(210,2,l)
);
},
{
closed = 1;
nodes = (
(810,768,ls),
(1192,768,o),
(1390,890,o),
(1390,1130,cs),
(1390,1390,o),
(1172,1500,o),
(810,1500,cs),
(30,1500,l),
(30,1496,l),
(730,1496,ls),
(862,1496,o),
(950,1348,o),
(950,1110,cs),
(950,872,o),
(862,772,o),
(730,772,cs),
(550,772,l),
(550,768,l)
);
}
);
width = 1529;
},
{
anchors = (
{
name = bottom;
pos = (746,0);
},
{
name = top;
pos = (784,1500);
}
);
background = {
anchors = (
{
name = bottom;
pos = (746,0);
},
{
name = top;
pos = (784,1500);
}
);
shapes = (
{
closed = 1;
nodes = (
(850,0,ls),
(1232,0,o),
(1450,100,o),
(1450,380,cs),
(1450,680,o),
(1192,780,o),
(850,780,cs),
(550,780,l),
(550,732,l),
(750,732,ls),
(902,732,o),
(990,658,o),
(990,420,cs),
(990,182,o),
(902,72,o),
(750,72,cs),
(28,72,l),
(28,0,l)
);
},
{
closed = 1;
nodes = (
(640,40,l),
(640,1460,l),
(210,1460,l),
(210,40,l)
);
},
{
closed = 1;
nodes = (
(812,760,ls),
(1194,760,o),
(1392,890,o),
(1392,1130,cs),
(1392,1390,o),
(1172,1500,o),
(812,1500,cs),
(28,1500,l),
(28,1428,l),
(730,1428,ls),
(862,1428,o),
(950,1346,o),
(950,1108,cs),
(950,870,o),
(862,808,o),
(730,808,cs),
(550,808,l),
(550,760,l)
);
}
);
};
layerId = "78E0DE70-2ED7-4EA0-A1D7-377506C0A4B3";
shapes = (
{
closed = 1;
nodes = (
(850,0,ls),
(1232,0,o),
(1450,100,o),
(1450,380,cs),
(1450,680,o),
(1192,780,o),
(850,780,cs),
(550,780,l),
(550,732,l),
(750,732,ls),
(902,732,o),
(990,658,o),
(990,420,cs),
(990,182,o),
(902,72,o),
(750,72,cs),
(28,72,l),
(28,0,l)
);
},
{
closed = 1;
nodes = (
(640,40,l),
(640,1460,l),
(210,1460,l),
(210,40,l)
);
},
{
closed = 1;
nodes = (
(812,760,ls),
(1194,760,o),
(1392,890,o),
(1392,1130,cs),
(1392,1390,o),
(1172,1500,o),
(812,1500,cs),
(28,1500,l),
(28,1428,l),
(730,1428,ls),
(862,1428,o),
(950,1346,o),
(950,1108,cs),
(950,870,o),
(862,808,o),
(730,808,cs),
(550,808,l),
(550,760,l)
);
}
);
width = 1528;
},
{
anchors = (
{
name = bottom;
pos = (606,0);
},
{
name = top;
pos = (534,1500);
}
);
background = {
anchors = (
{
name = bottom;
pos = (606,0);
},
{
name = top;
pos = (534,1500);
}
);
shapes = (
{
closed = 1;
nodes = (
(707,0,ls),
(1029,0,o),
(1227,120,o),
(1227,420,cs),
(1227,680,o),
(989,779,o),
(707,779,cs),
(446,779,l),
(446,734,l),
(687,734,ls),
(859,734,o),
(1006,658,o),
(1006,420,cs),
(1006,182,o),
(859,73,o),
(687,73,cs),
(86,73,l),
(86,0,l)
);
},
{
closed = 1;
nodes = (
(457,28,l),
(457,1472,l),
(267,1472,l),
(267,28,l)
);
},
{
closed = 1;
nodes = (
(666,760,ls),
(988,760,o),
(1166,871,o),
(1166,1130,cs),
(1166,1390,o),
(968,1500,o),
(666,1500,cs),
(86,1500,l),
(86,1427,l),
(666,1427,ls),
(818,1427,o),
(967,1347,o),
(967,1109,cs),
(967,871,o),
(818,807,o),
(666,807,cs),
(446,807,l),
(446,760,l)
);
}
);
};
layerId = master01;
shapes = (
{
closed = 1;
nodes = (
(707,0,ls),
(1029,0,o),
(1227,120,o),
(1227,420,cs),
(1227,680,o),
(989,779,o),
(707,779,cs),
(446,779,l),
(446,734,l),
(687,734,ls),
(859,734,o),
(1006,658,o),
(1006,420,cs),
(1006,182,o),
(859,73,o),
(687,73,cs),
(86,73,l),
(86,0,l)
);
},
{
closed = 1;
nodes = (
(457,28,l),
(457,1472,l),
(267,1472,l),
(267,28,l)
);
},
{
closed = 1;
nodes = (
(666,760,ls),
(988,760,o),
(1166,871,o),
(1166,1130,cs),
(1166,1390,o),
(968,1500,o),
(666,1500,cs),
(86,1500,l),
(86,1427,l),
(666,1427,ls),
(818,1427,o),
(967,1347,o),
(967,1109,cs),
(967,871,o),
(818,807,o),
(666,807,cs),
(446,807,l),
(446,760,l)
);
}
);
width = 1362;
}
);
unicode = 66;
},
{
color = (0,171,232,255);
glyphname = C;
lastChange = "2023-10-06 08:49:31 +0000";
layers = (
{
anchors = (
{
name = bottom;
pos = (786,-10);
},
{
name = top;
pos = (766,1500);
}
);
background = {
anchors = (
{
name = bottom;
pos = (786,-10);
},
{
name = top;
pos = (766,1500);
}
);
shapes = (
{
closed = 1;
nodes = (
(919,-20,o),
(1051,35,o),
(1138,125,c),
(1249,0,l),
(1253,0,l),
(1253,410,l),
(1249,410,l),
(1249,186,o),
(1061,-10,o),
(783,-10,cs),
(435,-10,o),
(313,386,o),
(313,750,cs),
(313,1114,o),
(435,1510,o),
(783,1510,cs),
(1011,1510,o),
(1229,1334,o),
(1229,1090,c),
(1233,1090,l),
(1233,1500,l),
(1229,1500,l),
(1108,1384,l),
(1021,1469,o),
(898,1520,o),
(763,1520,cs),
(357,1520,o),
(83,1196,o),
(83,750,cs),
(83,304,o),
(357,-20,o),
(763,-20,cs)
);
}
);
};
layerId = "131D8093-96F9-49D1-BC5C-300C1D47CA92";
shapes = (
{
closed = 1;
nodes = (
(919,-20,o),
(1051,35,o),
(1138,125,c),
(1249,0,l),
(1253,0,l),
(1253,410,l),
(1249,410,l),
(1249,186,o),
(1061,-10,o),
(783,-10,cs),
(435,-10,o),
(313,386,o),
(313,750,cs),
(313,1114,o),
(435,1510,o),
(783,1510,cs),
(1011,1510,o),
(1229,1334,o),
(1229,1090,c),
(1233,1090,l),
(1233,1500,l),
(1229,1500,l),
(1108,1384,l),
(1021,1469,o),
(898,1520,o),
(763,1520,cs),
(357,1520,o),
(83,1196,o),
(83,750,cs),
(83,304,o),
(357,-20,o),
(763,-20,cs)
);
}
);
width = 1335;
},
{
anchors = (
{
name = bottom;
pos = (866,-10);
},
{
name = top;
pos = (840,1500);
}
);
background = {
anchors = (
{
name = bottom;
pos = (866,-10);
},
{
name = top;
pos = (840,1500);
}
);
shapes = (
{
closed = 1;
nodes = (
(975,-20,o),
(1079,26,o),
(1163,104,c),
(1386,0,l),
(1390,0,l),
(1390,470,l),
(1384,470,l),
(1272,206,o),
(1128,-10,o),
(860,-10,cs),
(612,-10,o),
(550,386,o),
(550,750,cs),
(550,1114,o),
(612,1510,o),
(860,1510,cs),
(1086,1510,o),
(1228,1304,o),
(1362,1030,c),
(1370,1030,l),
(1370,1500,l),
(1366,1500,l),
(1120,1410,l),
(1044,1480,o),
(954,1520,o),
(840,1520,cs),
(354,1520,o),
(80,1196,o),
(80,750,cs),
(80,304,o),
(354,-20,o),
(840,-20,cs)
);
}
);
};
layerId = "96DEB648-6659-45A7-975A-5247D52A4CB5";
shapes = (
{
closed = 1;
nodes = (
(975,-20,o),
(1079,26,o),
(1163,104,c),
(1386,0,l),
(1390,0,l),
(1390,470,l),
(1384,470,l),
(1272,206,o),
(1128,-10,o),
(860,-10,cs),
(612,-10,o),
(550,386,o),
(550,750,cs),
(550,1114,o),
(612,1510,o),
(860,1510,cs),
(1086,1510,o),
(1228,1304,o),
(1362,1030,c),
(1370,1030,l),
(1370,1500,l),
(1366,1500,l),
(1120,1410,l),
(1044,1480,o),
(954,1520,o),
(840,1520,cs),
(354,1520,o),
(80,1196,o),
(80,750,cs),
(80,304,o),
(354,-20,o),
(840,-20,cs)
);
}
);
width = 1469;
},
{
anchors = (
{
name = bottom;
pos = (866,0);
},
{
name = top;
pos = (840,1500);
}
);
background = {
anchors = (
{
name = bottom;
pos = (866,0);
},
{
name = top;
pos = (840,1500);
}
);
shapes = (
{
closed = 1;
nodes = (
(965,-20,o),
(1065,19,o),
(1148,87,c),
(1326,0,l),
(1392,0,l),
(1392,472,l),
(1316,472,l),
(1170,244,o),
(1114,72,o),
(860,72,cs),
(612,72,o),
(550,386,o),
(550,750,cs),
(550,1114,o),
(612,1428,o),
(860,1428,cs),
(1052,1428,o),
(1150,1278,o),
(1296,1028,c),
(1370,1028,l),
(1370,1500,l),
(1308,1500,l),
(1121,1410,l),
(1044,1480,o),
(953,1520,o),
(840,1520,cs),
(354,1520,o),
(80,1194,o),
(80,750,cs),
(80,306,o),
(354,-20,o),
(840,-20,cs)
);
}
);
};
layerId = "78E0DE70-2ED7-4EA0-A1D7-377506C0A4B3";
shapes = (
{
closed = 1;
nodes = (
(965,-20,o),
(1065,19,o),
(1148,87,c),
(1326,0,l),
(1392,0,l),
(1392,472,l),
(1316,472,l),
(1170,244,o),
(1114,72,o),
(860,72,cs),
(612,72,o),
(550,386,o),
(550,750,cs),
(550,1114,o),
(612,1428,o),
(860,1428,cs),
(1052,1428,o),
(1150,1278,o),
(1296,1028,c),
(1370,1028,l),
(1370,1500,l),
(1308,1500,l),
(1121,1410,l),
(1044,1480,o),
(953,1520,o),
(840,1520,cs),
(354,1520,o),
(80,1194,o),
(80,750,cs),
(80,306,o),
(354,-20,o),
(840,-20,cs)
);
}
);
width = 1468;
},
{
anchors = (
{
name = bottom;
pos = (817,0);
},
{
name = top;
pos = (816,1500);
}
);
background = {
anchors = (
{
name = bottom;
pos = (817,0);
},
{
name = top;
pos = (816,1500);
}
);
shapes = (
{
closed = 1;
nodes = (
(965,-20,o),
(1101,31,o),
(1196,112,c),
(1276,0,l),
(1340,0,l),
(1340,410,l),
(1267,410,l),
(1247,206,o),
(1084,62,o),
(836,62,cs),
(488,62,o),
(366,387,o),
(366,750,cs),
(366,1113,o),
(488,1438,o),
(836,1438,cs),
(1044,1438,o),
(1226,1315,o),
(1246,1090,c),
(1320,1090,l),
(1320,1500,l),
(1256,1500,l),
(1168,1394,l),
(1073,1473,o),
(946,1520,o),
(816,1520,cs),
(410,1520,o),
(137,1195,o),
(137,750,cs),
(137,305,o),
(410,-20,o),
(816,-20,cs)
);
}
);
};
layerId = master01;
shapes = (
{
closed = 1;
nodes = (
(965,-20,o),
(1101,31,o),
(1196,112,c),
(1276,0,l),
(1340,0,l),
(1340,410,l),
(1267,410,l),
(1247,206,o),
(1084,62,o),
(836,62,cs),
(488,62,o),
(366,387,o),
(366,750,cs),
(366,1113,o),
(488,1438,o),
(836,1438,cs),
(1044,1438,o),
(1226,1315,o),
(1246,1090,c),
(1320,1090,l),
(1320,1500,l),
(1256,1500,l),
(1168,1394,l),
(1073,1473,o),
(946,1520,o),
(816,1520,cs),
(410,1520,o),
(137,1195,o),
(137,750,cs),
(137,305,o),
(410,-20,o),
(816,-20,cs)
);
}
);
width = 1522;
}
);
unicode = 67;
},
{
color = 10;
glyphname = Cacute;
lastChange = "2023-10-05 14:16:21 +0000";
layers = (
{
background = {
anchors = (
{
name = bottom;
pos = (786,-10);
},
{
name = top;
pos = (766,1500);
}
);
shapes = (
{
closed = 1;
nodes = (
(919,-20,o),
(1051,35,o),
(1138,125,c),
(1249,0,l),
(1253,0,l),
(1253,410,l),
(1249,410,l),
(1249,186,o),
(1061,-10,o),
(783,-10,cs),
(435,-10,o),
(313,386,o),
(313,750,cs),
(313,1114,o),
(435,1510,o),
(783,1510,cs),
(1011,1510,o),
(1229,1334,o),
(1229,1090,c),
(1233,1090,l),
(1233,1500,l),
(1229,1500,l),
(1108,1384,l),
(1021,1469,o),
(898,1520,o),
(763,1520,cs),
(357,1520,o),
(83,1196,o),
(83,750,cs),
(83,304,o),
(357,-20,o),
(763,-20,cs)
);
},
{
closed = 1;
nodes = (
(968,1817,ls),
(1002,1832,o),
(1014,1882,o),
(995,1915,cs),
(976,1948,o),
(920,1971,o),
(883,1926,cs),
(692,1696,l),
(694,1693,l)
);
}
);
};
layerId = "131D8093-96F9-49D1-BC5C-300C1D47CA92";
shapes = (
{
ref = C;
},
{
pos = (348,0);
ref = acutecomb;
}
);
width = 1335;
},
{
background = {
anchors = (
{
name = bottom;
pos = (866,-10);
},
{
name = top;
pos = (840,1500);
}
);
shapes = (
{
closed = 1;
nodes = (
(975,-20,o),
(1079,26,o),
(1163,104,c),
(1386,0,l),
(1390,0,l),
(1390,470,l),
(1384,470,l),
(1272,206,o),
(1128,-10,o),
(860,-10,cs),
(612,-10,o),
(550,386,o),
(550,750,cs),
(550,1114,o),
(612,1510,o),
(860,1510,cs),
(1086,1510,o),
(1228,1304,o),
(1362,1030,c),
(1370,1030,l),
(1370,1500,l),
(1366,1500,l),
(1120,1410,l),
(1044,1480,o),
(954,1520,o),
(840,1520,cs),
(354,1520,o),
(80,1196,o),
(80,750,cs),
(80,304,o),
(354,-20,o),
(840,-20,cs)
);
},
{
closed = 1;
nodes = (
(1009,1718,ls),
(1168,1739,o),
(1225,1905,o),
(1159,2001,cs),
(1105,2079,o),
(929,2104,o),
(854,1956,cs),
(715,1683,l),
(717,1680,l)
);
}
);
};
layerId = "96DEB648-6659-45A7-975A-5247D52A4CB5";
shapes = (
{
ref = C;
},
{
pos = (450,0);
ref = acutecomb;
}
);
width = 1469;
},
{
background = {
anchors = (
{
name = bottom;
pos = (866,0);
},
{
name = top;
pos = (840,1500);
}
);
shapes = (
{
closed = 1;
nodes = (
(965,-20,o),
(1065,19,o),
(1148,87,c),
(1326,0,l),
(1392,0,l),
(1392,472,l),
(1316,472,l),
(1170,244,o),
(1114,72,o),
(860,72,cs),
(612,72,o),
(550,386,o),
(550,750,cs),
(550,1114,o),
(612,1428,o),
(860,1428,cs),
(1052,1428,o),
(1150,1278,o),
(1296,1028,c),
(1370,1028,l),
(1370,1500,l),
(1308,1500,l),
(1121,1410,l),
(1044,1480,o),
(953,1520,o),
(840,1520,cs),
(354,1520,o),
(80,1194,o),
(80,750,cs),
(80,306,o),
(354,-20,o),
(840,-20,cs)
);
},
{
closed = 1;
nodes = (
(1009,1718,ls),
(1167,1752,o),
(1225,1905,o),
(1159,2001,cs),
(1105,2079,o),
(940,2099,o),
(854,1956,cs),
(705,1708,l),
(737,1660,l)
);
}
);
};
layerId = "78E0DE70-2ED7-4EA0-A1D7-377506C0A4B3";
shapes = (
{
ref = C;
},
{
pos = (445,0);
ref = acutecomb;
}
);
width = 1468;
},
{
background = {
anchors = (
{
name = bottom;
pos = (817,0);
},
{
name = top;
pos = (816,1500);
}
);
shapes = (
{
closed = 1;
nodes = (
(965,-20,o),
(1101,31,o),
(1196,112,c),
(1276,0,l),
(1340,0,l),
(1340,410,l),
(1267,410,l),
(1247,206,o),
(1084,62,o),
(836,62,cs),
(488,62,o),
(366,387,o),
(366,750,cs),
(366,1113,o),
(488,1438,o),
(836,1438,cs),
(1044,1438,o),
(1226,1315,o),
(1246,1090,c),
(1320,1090,l),
(1320,1500,l),
(1256,1500,l),
(1168,1394,l),
(1073,1473,o),
(946,1520,o),
(816,1520,cs),
(410,1520,o),
(137,1195,o),
(137,750,cs),
(137,305,o),
(410,-20,o),
(816,-20,cs)
);
},
{
closed = 1;
nodes = (
(1018,1817,ls),
(1050,1836,o),
(1064,1882,o),
(1045,1915,cs),
(1026,1948,o),
(975,1967,o),
(933,1926,cs),
(721,1719,l),
(766,1670,l)
);
}
);
};
layerId = master01;
shapes = (
{
ref = C;
},
{
pos = (387,0);
ref = acutecomb;
}
);
width = 1522;
}
);
unicode = 262;
},
{
color = 10;
glyphname = Ccaron;
lastChange = "2023-10-05 14:16:21 +0000";
layers = (
{
background = {
anchors = (
{
name = bottom;
pos = (786,-10);
},
{
name = top;
pos = (766,1500);
}
);
shapes = (
{
closed = 1;
nodes = (
(919,-20,o),
(1051,35,o),
(1138,125,c),
(1249,0,l),
(1253,0,l),
(1253,410,l),
(1249,410,l),
(1249,186,o),
(1061,-10,o),
(783,-10,cs),
(435,-10,o),
(313,386,o),
(313,750,cs),
(313,1114,o),
(435,1510,o),
(783,1510,cs),
(1011,1510,o),
(1229,1334,o),
(1229,1090,c),
(1233,1090,l),
(1233,1500,l),
(1229,1500,l),
(1108,1384,l),
(1021,1469,o),
(898,1520,o),
(763,1520,cs),
(357,1520,o),
(83,1196,o),
(83,750,cs),
(83,304,o),
(357,-20,o),
(763,-20,cs)
);
},
{
closed = 1;
nodes = (
(832,1700,l),
(1052,1920,l),
(1048,1922,l),
(766,1790,l),
(486,1922,l),
(482,1920,l),
(702,1700,l)
);
}
);
};
layerId = "131D8093-96F9-49D1-BC5C-300C1D47CA92";
shapes = (
{
ref = C;
},
{
pos = (267,0);
ref = caroncomb;
}
);
width = 1335;
},
{
background = {
anchors = (
{
name = bottom;
pos = (866,-10);
},
{
name = top;
pos = (840,1500);
}
);
shapes = (
{
closed = 1;
nodes = (
(975,-20,o),
(1079,26,o),
(1163,104,c),
(1386,0,l),
(1390,0,l),
(1390,470,l),
(1384,470,l),
(1272,206,o),
(1128,-10,o),
(860,-10,cs),
(612,-10,o),
(550,386,o),
(550,750,cs),
(550,1114,o),
(612,1510,o),
(860,1510,cs),
(1086,1510,o),
(1228,1304,o),
(1362,1030,c),
(1370,1030,l),
(1370,1500,l),
(1366,1500,l),
(1120,1410,l),
(1044,1480,o),
(954,1520,o),
(840,1520,cs),
(354,1520,o),
(80,1196,o),
(80,750,cs),
(80,304,o),
(354,-20,o),
(840,-20,cs)
);
},
{
closed = 1;
nodes = (
(946,1700,l),
(1206,2020,l),
(1204,2022,l),
(842,1890,l),
(478,2022,l),
(476,2020,l),
(736,1700,l)
);
}
);
};
layerId = "96DEB648-6659-45A7-975A-5247D52A4CB5";
shapes = (
{
ref = C;
},
{
pos = (341,0);
ref = caroncomb;
}
);
width = 1469;
},
{
background = {
anchors = (
{
name = bottom;
pos = (866,0);
},
{
name = top;
pos = (840,1500);
}
);
shapes = (
{
closed = 1;
nodes = (
(965,-20,o),
(1065,19,o),
(1148,87,c),
(1326,0,l),
(1392,0,l),
(1392,472,l),
(1316,472,l),
(1170,244,o),
(1114,72,o),
(860,72,cs),
(612,72,o),
(550,386,o),
(550,750,cs),
(550,1114,o),
(612,1428,o),
(860,1428,cs),
(1052,1428,o),
(1150,1278,o),
(1296,1028,c),
(1370,1028,l),
(1370,1500,l),
(1308,1500,l),
(1121,1410,l),
(1044,1480,o),
(953,1520,o),
(840,1520,cs),
(354,1520,o),
(80,1194,o),
(80,750,cs),
(80,306,o),
(354,-20,o),
(840,-20,cs)
);
},
{
closed = 1;
nodes = (
(946,1700,l),
(1206,2020,l),
(1168,2056,l),
(842,1890,l),
(512,2056,l),
(476,2020,l),
(736,1700,l)
);
}
);
};
layerId = "78E0DE70-2ED7-4EA0-A1D7-377506C0A4B3";
shapes = (
{
ref = C;
},
{
pos = (341,0);
ref = caroncomb;
}
);
width = 1468;
},
{
background = {
anchors = (
{
name = bottom;
pos = (817,0);
},
{
name = top;
pos = (816,1500);
}
);
shapes = (
{
closed = 1;
nodes = (
(965,-20,o),
(1101,31,o),
(1196,112,c),
(1276,0,l),
(1340,0,l),
(1340,410,l),
(1267,410,l),
(1247,206,o),
(1084,62,o),
(836,62,cs),
(488,62,o),
(366,387,o),
(366,750,cs),
(366,1113,o),
(488,1438,o),
(836,1438,cs),
(1044,1438,o),
(1226,1315,o),
(1246,1090,c),
(1320,1090,l),
(1320,1500,l),
(1256,1500,l),
(1168,1394,l),
(1073,1473,o),
(946,1520,o),
(816,1520,cs),
(410,1520,o),
(137,1195,o),
(137,750,cs),
(137,305,o),
(410,-20,o),
(816,-20,cs)
);
},
{
closed = 1;
nodes = (
(882,1700,l),
(1102,1921,l),
(1065,1957,l),
(816,1790,l),
(569,1957,l),
(532,1921,l),
(752,1700,l)
);
}
);
};
layerId = master01;
shapes = (
{
ref = C;
},
{
pos = (317,0);
ref = caroncomb;
}
);
width = 1522;
}
);
unicode = 268;
},
{
color = 10;
glyphname = Ccedilla;
lastChange = "2023-10-05 14:16:21 +0000";
layers = (
{
background = {
anchors = (
{
name = bottom;
pos = (786,-10);
},
{
name = top;
pos = (766,1500);
}
);
shapes = (
{
closed = 1;
nodes = (
(919,-20,o),
(1051,35,o),
(1138,125,c),
(1249,0,l),
(1253,0,l),
(1253,410,l),
(1249,410,l),
(1249,186,o),
(1061,-10,o),
(783,-10,cs),
(435,-10,o),
(313,386,o),
(313,750,cs),
(313,1114,o),
(435,1510,o),
(783,1510,cs),
(1011,1510,o),
(1229,1334,o),
(1229,1090,c),
(1233,1090,l),
(1233,1500,l),
(1229,1500,l),
(1108,1384,l),
(1021,1469,o),
(898,1520,o),
(763,1520,cs),
(357,1520,o),
(83,1196,o),
(83,750,cs),
(83,304,o),
(357,-20,o),
(763,-20,cs)
);
},
{
closed = 1;
nodes = (
(894,-488,o),
(990,-424,o),
(990,-324,cs),
(990,-212,o),
(834,-168,o),
(690,-162,c),
(801,-12,l),
(795,-12,l),
(624,-242,l),
(754,-242,o),
(848,-258,o),
(848,-364,cs),
(848,-432,o),
(770,-484,o),
(652,-484,c),
(652,-488,l)
);
}
);
};
layerId = "131D8093-96F9-49D1-BC5C-300C1D47CA92";
shapes = (
{
ref = C;
},
{
pos = (307,-14);
ref = cedillacomb;
}
);
width = 1335;
},
{
background = {
anchors = (
{
name = bottom;
pos = (866,-10);
},
{
name = top;
pos = (840,1500);
}
);
shapes = (
{
closed = 1;
nodes = (
(975,-20,o),
(1079,26,o),
(1163,104,c),
(1386,0,l),
(1390,0,l),
(1390,470,l),
(1384,470,l),
(1272,206,o),
(1128,-10,o),
(860,-10,cs),
(612,-10,o),
(550,386,o),
(550,750,cs),
(550,1114,o),
(612,1510,o),
(860,1510,cs),
(1086,1510,o),
(1228,1304,o),
(1362,1030,c),
(1370,1030,l),
(1370,1500,l),
(1366,1500,l),
(1120,1410,l),
(1044,1480,o),
(954,1520,o),
(840,1520,cs),
(354,1520,o),
(80,1196,o),
(80,750,cs),
(80,304,o),
(354,-20,o),
(840,-20,cs)
);
},
{
closed = 1;
nodes = (
(1024,-520,o),
(1120,-420,o),
(1120,-320,cs),
(1120,-208,o),
(984,-164,o),
(740,-158,c),
(848,-10,l),
(842,-10,l),
(674,-238,l),
(744,-238,o),
(818,-254,o),
(818,-360,cs),
(818,-448,o),
(780,-516,o),
(662,-516,c),
(662,-520,l)
);
}
);
};
layerId = "96DEB648-6659-45A7-975A-5247D52A4CB5";
shapes = (
{
ref = C;
},
{
pos = (391,-10);
ref = cedillacomb;
}
);
width = 1469;
},
{
background = {
anchors = (
{
name = bottom;
pos = (866,0);
},
{
name = top;
pos = (840,1500);
}
);
shapes = (
{
closed = 1;
nodes = (
(965,-20,o),
(1065,19,o),
(1148,87,c),
(1326,0,l),
(1392,0,l),
(1392,472,l),
(1316,472,l),
(1170,244,o),
(1114,72,o),
(860,72,cs),
(612,72,o),
(550,386,o),
(550,750,cs),
(550,1114,o),
(612,1428,o),
(860,1428,cs),
(1052,1428,o),
(1150,1278,o),
(1296,1028,c),
(1370,1028,l),
(1370,1500,l),
(1308,1500,l),
(1121,1410,l),
(1044,1480,o),
(953,1520,o),
(840,1520,cs),
(354,1520,o),
(80,1194,o),
(80,750,cs),
(80,306,o),
(354,-20,o),
(840,-20,cs)
);
},
{
closed = 1;
nodes = (
(1022,-510,o),
(1120,-410,o),
(1120,-310,cs),
(1120,-198,o),
(1010,-154,o),
(806,-148,c),
(928,12,l),
(836,12,l),
(656,-228,l),
(726,-228,o),
(818,-246,o),
(818,-350,cs),
(818,-418,o),
(780,-438,o),
(662,-438,c),
(662,-510,l)
);
}
);
};
layerId = "78E0DE70-2ED7-4EA0-A1D7-377506C0A4B3";
shapes = (
{
ref = C;
},
{
pos = (388,0);
ref = cedillacomb;
}
);
width = 1468;
},
{
background = {
anchors = (
{
name = bottom;
pos = (817,0);
},
{
name = top;
pos = (816,1500);
}
);
shapes = (
{
closed = 1;
nodes = (
(965,-20,o),
(1101,31,o),
(1196,112,c),
(1276,0,l),
(1340,0,l),
(1340,410,l),
(1267,410,l),
(1247,206,o),
(1084,62,o),
(836,62,cs),
(488,62,o),
(366,387,o),
(366,750,cs),
(366,1113,o),
(488,1438,o),
(836,1438,cs),
(1044,1438,o),
(1226,1315,o),
(1246,1090,c),
(1320,1090,l),
(1320,1500,l),
(1256,1500,l),
(1168,1394,l),
(1073,1473,o),
(946,1520,o),
(816,1520,cs),
(410,1520,o),
(137,1195,o),
(137,750,cs),
(137,305,o),
(410,-20,o),
(816,-20,cs)
);
},
{
closed = 1;
nodes = (
(876,-509,o),
(972,-410,o),
(972,-310,cs),
(972,-199,o),
(900,-154,o),
(755,-148,c),
(875,12,l),
(785,12,l),
(606,-228,l),
(736,-228,o),
(830,-254,o),
(830,-336,cs),
(830,-395,o),
(752,-437,o),
(634,-437,c),
(634,-509,l)
);
}
);
};
layerId = master01;
shapes = (
{
ref = C;
},
{
pos = (289,0);
ref = cedillacomb;
}
);
width = 1522;
}
);
unicode = 199;
},
{
color = 10;
glyphname = Ccircumflex;
lastChange = "2023-10-05 14:16:21 +0000";
layers = (
{
background = {
anchors = (
{
name = bottom;
pos = (786,-10);
},
{
name = top;
pos = (766,1500);
}
);
shapes = (
{
closed = 1;
nodes = (
(919,-20,o),
(1051,35,o),
(1138,125,c),
(1249,0,l),
(1253,0,l),
(1253,410,l),
(1249,410,l),
(1249,186,o),
(1061,-10,o),
(783,-10,cs),
(435,-10,o),
(313,386,o),
(313,750,cs),
(313,1114,o),
(435,1510,o),
(783,1510,cs),
(1011,1510,o),
(1229,1334,o),
(1229,1090,c),
(1233,1090,l),
(1233,1500,l),
(1229,1500,l),
(1108,1384,l),
(1021,1469,o),
(898,1520,o),
(763,1520,cs),
(357,1520,o),
(83,1196,o),
(83,750,cs),
(83,304,o),
(357,-20,o),
(763,-20,cs)
);
},
{
closed = 1;
nodes = (
(766,1849,l),
(1050,1715,l),
(1052,1719,l),
(832,1939,l),
(702,1939,l),
(482,1719,l),
(484,1715,l)
);
}
);
};
layerId = "131D8093-96F9-49D1-BC5C-300C1D47CA92";
shapes = (
{
ref = C;
},
{
pos = (267,0);
ref = circumflexcomb;
}
);
width = 1335;
},
{
background = {
anchors = (
{
name = bottom;
pos = (866,-10);
},
{
name = top;
pos = (840,1500);
}
);
shapes = (
{
closed = 1;
nodes = (
(975,-20,o),
(1079,26,o),
(1163,104,c),
(1386,0,l),
(1390,0,l),
(1390,470,l),
(1384,470,l),
(1272,206,o),
(1128,-10,o),
(860,-10,cs),
(612,-10,o),
(550,386,o),
(550,750,cs),
(550,1114,o),
(612,1510,o),
(860,1510,cs),
(1086,1510,o),
(1228,1304,o),
(1362,1030,c),
(1370,1030,l),
(1370,1500,l),
(1366,1500,l),
(1120,1410,l),
(1044,1480,o),
(954,1520,o),
(840,1520,cs),
(354,1520,o),
(80,1196,o),
(80,750,cs),
(80,304,o),
(354,-20,o),
(840,-20,cs)
);
},
{
closed = 1;
nodes = (
(840,1845,l),
(1204,1713,l),
(1206,1715,l),
(946,2035,l),
(736,2035,l),
(476,1715,l),
(478,1713,l)
);
}
);
};
layerId = "96DEB648-6659-45A7-975A-5247D52A4CB5";
shapes = (
{
ref = C;
},
{
pos = (341,0);
ref = circumflexcomb;
}
);
width = 1469;
},
{
background = {
anchors = (
{
name = bottom;
pos = (866,0);
},
{
name = top;
pos = (840,1500);
}
);
shapes = (
{
closed = 1;
nodes = (
(965,-20,o),
(1065,19,o),
(1148,87,c),
(1326,0,l),
(1392,0,l),
(1392,472,l),
(1316,472,l),
(1170,244,o),
(1114,72,o),
(860,72,cs),
(612,72,o),
(550,386,o),
(550,750,cs),
(550,1114,o),
(612,1428,o),
(860,1428,cs),
(1052,1428,o),
(1150,1278,o),
(1296,1028,c),
(1370,1028,l),
(1370,1500,l),
(1308,1500,l),
(1121,1410,l),
(1044,1480,o),
(953,1520,o),
(840,1520,cs),
(354,1520,o),
(80,1194,o),
(80,750,cs),
(80,306,o),
(354,-20,o),
(840,-20,cs)
);
},
{
closed = 1;
nodes = (
(840,1845,l),
(1168,1679,l),
(1206,1715,l),
(946,2035,l),
(736,2035,l),
(476,1715,l),
(512,1679,l)
);
}
);
};
layerId = "78E0DE70-2ED7-4EA0-A1D7-377506C0A4B3";
shapes = (
{
ref = C;
},
{
pos = (341,0);
ref = circumflexcomb;
}
);
width = 1468;
},
{
background = {
anchors = (
{
name = bottom;
pos = (817,0);
},
{
name = top;
pos = (816,1500);
}
);
shapes = (
{
closed = 1;
nodes = (
(965,-20,o),
(1101,31,o),
(1196,112,c),
(1276,0,l),
(1340,0,l),
(1340,410,l),
(1267,410,l),
(1247,206,o),
(1084,62,o),
(836,62,cs),
(488,62,o),
(366,387,o),
(366,750,cs),
(366,1113,o),
(488,1438,o),
(836,1438,cs),
(1044,1438,o),
(1226,1315,o),
(1246,1090,c),
(1320,1090,l),
(1320,1500,l),
(1256,1500,l),
(1168,1394,l),
(1073,1473,o),
(946,1520,o),
(816,1520,cs),
(410,1520,o),
(137,1195,o),
(137,750,cs),
(137,305,o),
(410,-20,o),
(816,-20,cs)
);
},
{
closed = 1;
nodes = (
(816,1849,l),
(1065,1682,l),
(1102,1719,l),
(882,1939,l),
(752,1939,l),
(532,1719,l),
(569,1682,l)
);
}
);
};
layerId = master01;
shapes = (
{
ref = C;
},
{
pos = (317,0);
ref = circumflexcomb;
}
);
width = 1522;
}
);
unicode = 264;
},
{
color = 10;
glyphname = Cdotaccent;
lastChange = "2023-10-05 14:16:21 +0000";
layers = (
{
background = {
anchors = (
{
name = bottom;
pos = (786,-10);
},
{
name = top;
pos = (766,1500);
}
);
shapes = (
{
closed = 1;
nodes = (
(919,-20,o),
(1051,35,o),
(1138,125,c),
(1249,0,l),
(1253,0,l),
(1253,410,l),
(1249,410,l),
(1249,186,o),
(1061,-10,o),
(783,-10,cs),
(435,-10,o),
(313,386,o),
(313,750,cs),
(313,1114,o),
(435,1510,o),
(783,1510,cs),
(1011,1510,o),
(1229,1334,o),
(1229,1090,c),
(1233,1090,l),
(1233,1500,l),
(1229,1500,l),
(1108,1384,l),
(1021,1469,o),
(898,1520,o),
(763,1520,cs),
(357,1520,o),
(83,1196,o),
(83,750,cs),
(83,304,o),
(357,-20,o),
(763,-20,cs)
);
},
{
closed = 1;
nodes = (
(832,1860,o),
(886,1914,o),
(886,1980,cs),
(886,2046,o),
(832,2100,o),
(766,2100,cs),
(700,2100,o),
(646,2046,o),
(646,1980,cs),
(646,1914,o),
(700,1860,o),
(766,1860,cs)
);
}
);
};
layerId = "131D8093-96F9-49D1-BC5C-300C1D47CA92";
shapes = (
{
ref = C;
},
{
pos = (266,580);
ref = dotaccentcomb;
}
);
width = 1335;
},
{
background = {
anchors = (
{
name = bottom;
pos = (866,-10);
},
{
name = top;
pos = (840,1500);
}
);
shapes = (
{
closed = 1;
nodes = (
(975,-20,o),
(1079,26,o),
(1163,104,c),
(1386,0,l),
(1390,0,l),
(1390,470,l),
(1384,470,l),
(1272,206,o),
(1128,-10,o),
(860,-10,cs),
(612,-10,o),
(550,386,o),
(550,750,cs),
(550,1114,o),
(612,1510,o),
(860,1510,cs),
(1086,1510,o),
(1228,1304,o),
(1362,1030,c),
(1370,1030,l),
(1370,1500,l),
(1366,1500,l),
(1120,1410,l),
(1044,1480,o),
(954,1520,o),
(840,1520,cs),
(354,1520,o),
(80,1196,o),
(80,750,cs),
(80,304,o),
(354,-20,o),
(840,-20,cs)
);
},
{
closed = 1;
nodes = (
(967,1660,o),
(1061,1754,o),
(1061,1880,cs),
(1061,2006,o),
(967,2100,o),
(841,2100,cs),
(715,2100,o),
(621,2006,o),
(621,1880,cs),
(621,1754,o),
(715,1660,o),
(841,1660,cs)
);
}
);
};
layerId = "96DEB648-6659-45A7-975A-5247D52A4CB5";
shapes = (
{
ref = C;
},
{
pos = (340,580);
ref = dotaccentcomb;
}
);
width = 1469;
},
{
background = {
anchors = (
{
name = bottom;
pos = (866,0);
},
{
name = top;
pos = (840,1500);
}
);
shapes = (
{
closed = 1;
nodes = (
(965,-20,o),
(1065,19,o),
(1148,87,c),
(1326,0,l),
(1392,0,l),
(1392,472,l),
(1316,472,l),
(1170,244,o),
(1114,72,o),
(860,72,cs),
(612,72,o),
(550,386,o),
(550,750,cs),
(550,1114,o),
(612,1428,o),
(860,1428,cs),
(1052,1428,o),
(1150,1278,o),
(1296,1028,c),
(1370,1028,l),
(1370,1500,l),
(1308,1500,l),
(1121,1410,l),
(1044,1480,o),
(953,1520,o),
(840,1520,cs),
(354,1520,o),
(80,1194,o),
(80,750,cs),
(80,306,o),
(354,-20,o),
(840,-20,cs)
);
},
{
closed = 1;
nodes = (
(966,1660,o),
(1060,1754,o),
(1060,1880,cs),
(1060,2006,o),
(966,2100,o),
(840,2100,cs),
(714,2100,o),
(620,2006,o),
(620,1880,cs),
(620,1754,o),
(714,1660,o),
(840,1660,cs)
);
}
);
};
layerId = "78E0DE70-2ED7-4EA0-A1D7-377506C0A4B3";
shapes = (
{
ref = C;
},
{
pos = (340,580);
ref = dotaccentcomb;
}
);
width = 1468;
},
{
background = {
anchors = (
{
name = bottom;
pos = (817,0);
},
{
name = top;
pos = (816,1500);
}
);
shapes = (
{
closed = 1;
nodes = (
(965,-20,o),
(1101,31,o),
(1196,112,c),
(1276,0,l),
(1340,0,l),
(1340,410,l),
(1267,410,l),
(1247,206,o),
(1084,62,o),
(836,62,cs),
(488,62,o),
(366,387,o),
(366,750,cs),
(366,1113,o),
(488,1438,o),
(836,1438,cs),
(1044,1438,o),
(1226,1315,o),
(1246,1090,c),
(1320,1090,l),
(1320,1500,l),
(1256,1500,l),
(1168,1394,l),
(1073,1473,o),
(946,1520,o),
(816,1520,cs),
(410,1520,o),
(137,1195,o),
(137,750,cs),
(137,305,o),
(410,-20,o),
(816,-20,cs)
);
},
{
closed = 1;
nodes = (
(883,1849,o),
(937,1904,o),
(937,1970,cs),
(937,2036,o),
(883,2090,o),
(817,2090,cs),
(751,2090,o),
(697,2036,o),
(697,1970,cs),
(697,1904,o),
(751,1849,o),
(817,1849,cs)
);
}
);
};
layerId = master01;
shapes = (
{
ref = C;
},
{
pos = (316,580);
ref = dotaccentcomb;
}
);
width = 1522;
}
);
unicode = 266;
},
{
color = (0,171,232,255);
glyphname = D;
lastChange = "2023-10-06 08:49:31 +0000";
layers = (
{
anchors = (
{
name = bottom;
pos = (583,0);
},
{
name = cedilla;
pos = (583,0);
},
{
name = top;
pos = (584,1500);
}
);
background = {
anchors = (
{
name = bottom;
pos = (583,0);
},
{
name = cedilla;
pos = (583,0);
},
{
name = top;
pos = (584,1500);
}
);
shapes = (
{
closed = 1;
nodes = (
(37,1500,l),
(37,1496,l),
(216,1496,l),
(216,4,l),
(37,4,l),
(37,0,l),
(596,0,ls),
(1022,0,o),
(1317,324,o),
(1317,750,cs),
(1317,1176,o),
(1042,1500,o),
(596,1500,cs)
);
},
{
closed = 1;
nodes = (
(407,1496,l),
(596,1496,ls),
(944,1496,o),
(1086,1114,o),
(1086,750,cs),
(1086,386,o),
(964,4,o),
(596,4,cs),
(407,4,l)
);
}
);
};
layerId = "131D8093-96F9-49D1-BC5C-300C1D47CA92";
shapes = (
{
closed = 1;
nodes = (
(37,1500,l),
(37,1496,l),
(216,1496,l),
(216,4,l),
(37,4,l),
(37,0,l),
(596,0,ls),
(1022,0,o),
(1317,324,o),
(1317,750,cs),
(1317,1176,o),
(1042,1500,o),
(596,1500,cs)
);
},
{
closed = 1;
nodes = (
(407,1496,l),
(596,1496,ls),
(944,1496,o),
(1086,1114,o),
(1086,750,cs),
(1086,386,o),
(964,4,o),
(596,4,cs),
(407,4,l)
);
}
);
width = 1399;
},
{
anchors = (
{
name = bottom;
pos = (726,0);
},
{
name = cedilla;
pos = (726,0);
},
{
name = top;
pos = (744,1500);
}
);
background = {
anchors = (
{
name = bottom;
pos = (726,0);
},
{
name = cedilla;
pos = (726,0);
},
{
name = top;
pos = (744,1500);
}
);
shapes = (
{
closed = 1;
nodes = (
(30,1500,l),
(30,1496,l),
(210,1496,l),
(210,4,l),
(30,4,l),
(30,0,l),
(750,0,ls),
(1236,0,o),
(1550,284,o),
(1550,750,cs),
(1550,1216,o),
(1256,1500,o),
(750,1500,cs)
);
},
{
closed = 1;
nodes = (
(640,1496,l),
(750,1496,ls),
(978,1496,o),
(1080,1174,o),
(1080,750,cs),
(1080,326,o),
(998,4,o),
(750,4,cs),
(640,4,l)
);
}
);
};
layerId = "96DEB648-6659-45A7-975A-5247D52A4CB5";
shapes = (
{
closed = 1;
nodes = (
(30,1500,l),
(30,1496,l),
(210,1496,l),
(210,4,l),
(30,4,l),
(30,0,l),
(750,0,ls),
(1236,0,o),
(1550,284,o),
(1550,750,cs),
(1550,1216,o),
(1256,1500,o),
(750,1500,cs)
);
},
{
closed = 1;
nodes = (
(640,1496,l),
(750,1496,ls),
(978,1496,o),
(1080,1174,o),
(1080,750,cs),
(1080,326,o),
(998,4,o),
(750,4,cs),
(640,4,l)
);
}
);
width = 1629;
},
{
anchors = (
{
name = bottom;
pos = (726,0);
},
{
name = cedilla;
pos = (726,0);
},
{
name = top;
pos = (744,1500);
}
);
background = {
anchors = (
{
name = bottom;
pos = (726,0);
},
{
name = cedilla;
pos = (726,0);
},
{
name = top;
pos = (744,1500);
}
);
shapes = (
{
closed = 1;
nodes = (
(28,1500,l),
(28,1428,l),
(210,1428,l),
(210,72,l),
(28,72,l),
(28,0,l),
(750,0,ls),
(1236,0,o),
(1550,284,o),
(1550,750,cs),
(1550,1216,o),
(1256,1500,o),
(750,1500,cs)
);
},
{
closed = 1;
nodes = (
(640,1428,l),
(750,1428,ls),
(978,1428,o),
(1080,1174,o),
(1080,750,cs),
(1080,326,o),
(998,72,o),
(750,72,cs),
(640,72,l)
);
}
);
};
layerId = "78E0DE70-2ED7-4EA0-A1D7-377506C0A4B3";
shapes = (
{
closed = 1;
nodes = (
(28,1500,l),
(28,1428,l),
(210,1428,l),
(210,72,l),
(28,72,l),
(28,0,l),
(750,0,ls),
(1236,0,o),
(1550,284,o),
(1550,750,cs),
(1550,1216,o),
(1256,1500,o),
(750,1500,cs)
);
},
{
closed = 1;
nodes = (
(640,1428,l),
(750,1428,ls),
(978,1428,o),
(1080,1174,o),
(1080,750,cs),
(1080,326,o),
(998,72,o),
(750,72,cs),
(640,72,l)
);
}
);
width = 1628;
},
{
anchors = (
{
name = bottom;
pos = (633,0);
},
{
name = cedilla;
pos = (633,0);
},
{
name = top;
pos = (634,1500);
}
);
background = {
anchors = (
{
name = bottom;
pos = (633,0);
},
{
name = cedilla;
pos = (633,0);
},
{
name = top;
pos = (634,1500);
}
);
shapes = (
{
closed = 1;
nodes = (
(86,1500,l),
(86,1427,l),
(267,1427,l),
(267,73,l),
(86,73,l),
(86,0,l),
(646,0,ls),
(1072,0,o),
(1366,324,o),
(1366,750,cs),
(1366,1176,o),
(1091,1500,o),
(646,1500,cs)
);
},
{
closed = 1;
nodes = (
(457,1427,l),
(646,1427,ls),
(994,1427,o),
(1137,1113,o),
(1137,750,cs),
(1137,387,o),
(1014,73,o),
(646,73,cs),
(457,73,l)
);
}
);
};
layerId = master01;
shapes = (
{
closed = 1;
nodes = (
(86,1500,l),
(86,1427,l),
(267,1427,l),
(267,73,l),
(86,73,l),
(86,0,l),
(646,0,ls),
(1072,0,o),
(1366,324,o),
(1366,750,cs),
(1366,1176,o),
(1091,1500,o),
(646,1500,cs)
);
},
{
closed = 1;
nodes = (
(457,1427,l),
(646,1427,ls),
(994,1427,o),
(1137,1113,o),
(1137,750,cs),
(1137,387,o),
(1014,73,o),
(646,73,cs),
(457,73,l)
);
}
);
width = 1502;
}
);
unicode = 68;
},
{
color = 10;
glyphname = Dcaron;
lastChange = "2023-10-05 14:16:21 +0000";
layers = (
{
background = {
anchors = (
{
name = bottom;
pos = (583,0);
},
{
name = cedilla;
pos = (583,0);
},
{
name = top;
pos = (584,1500);
}
);
shapes = (
{
closed = 1;
nodes = (
(37,1500,l),
(37,1496,l),
(216,1496,l),
(216,4,l),
(37,4,l),
(37,0,l),
(596,0,ls),
(1022,0,o),
(1317,324,o),
(1317,750,cs),
(1317,1176,o),
(1042,1500,o),
(596,1500,cs)
);
},
{
closed = 1;
nodes = (
(407,1496,l),
(596,1496,ls),
(944,1496,o),
(1086,1114,o),
(1086,750,cs),
(1086,386,o),
(964,4,o),
(596,4,cs),
(407,4,l)
);
},
{
closed = 1;
nodes = (
(650,1700,l),
(870,1920,l),
(866,1922,l),
(584,1790,l),
(304,1922,l),
(300,1920,l),
(520,1700,l)
);
}
);
};
layerId = "131D8093-96F9-49D1-BC5C-300C1D47CA92";
shapes = (
{
ref = D;
},
{
pos = (85,0);
ref = caroncomb;
}
);
width = 1399;
},
{
background = {
anchors = (
{
name = bottom;
pos = (726,0);
},
{
name = cedilla;
pos = (726,0);
},
{
name = top;
pos = (744,1500);
}
);
shapes = (
{
closed = 1;
nodes = (
(30,1500,l),
(30,1496,l),
(210,1496,l),
(210,4,l),
(30,4,l),
(30,0,l),
(750,0,ls),
(1236,0,o),
(1550,284,o),
(1550,750,cs),
(1550,1216,o),
(1256,1500,o),
(750,1500,cs)
);
},
{
closed = 1;
nodes = (
(640,1496,l),
(750,1496,ls),
(978,1496,o),
(1080,1174,o),
(1080,750,cs),
(1080,326,o),
(998,4,o),
(750,4,cs),
(640,4,l)
);
},
{
closed = 1;
nodes = (
(850,1700,l),
(1110,2020,l),
(1108,2022,l),
(746,1890,l),
(382,2022,l),
(380,2020,l),
(640,1700,l)
);
}
);
};
layerId = "96DEB648-6659-45A7-975A-5247D52A4CB5";
shapes = (
{
ref = D;
},
{
pos = (245,0);
ref = caroncomb;
}
);
width = 1629;
},
{
background = {
anchors = (
{
name = bottom;
pos = (726,0);
},
{
name = cedilla;
pos = (726,0);
},
{
name = top;
pos = (744,1500);
}
);
shapes = (
{
closed = 1;
nodes = (
(28,1500,l),
(28,1428,l),
(210,1428,l),
(210,72,l),
(28,72,l),
(28,0,l),
(750,0,ls),
(1236,0,o),
(1550,284,o),
(1550,750,cs),
(1550,1216,o),
(1256,1500,o),
(750,1500,cs)
);
},
{
closed = 1;
nodes = (
(640,1428,l),
(750,1428,ls),
(978,1428,o),
(1080,1174,o),
(1080,750,cs),
(1080,326,o),
(998,72,o),
(750,72,cs),
(640,72,l)
);
},
{
closed = 1;
nodes = (
(850,1700,l),
(1110,2020,l),
(1072,2056,l),
(746,1890,l),
(416,2056,l),
(380,2020,l),
(640,1700,l)
);
}
);
};
layerId = "78E0DE70-2ED7-4EA0-A1D7-377506C0A4B3";
shapes = (
{
ref = D;
},
{
pos = (245,0);
ref = caroncomb;
}
);
width = 1628;
},
{
background = {
anchors = (
{
name = bottom;
pos = (633,0);
},
{
name = cedilla;
pos = (633,0);
},
{
name = top;
pos = (634,1500);
}
);
shapes = (
{
closed = 1;
nodes = (
(86,1500,l),
(86,1427,l),
(267,1427,l),
(267,73,l),
(86,73,l),
(86,0,l),
(646,0,ls),
(1072,0,o),
(1366,324,o),
(1366,750,cs),
(1366,1176,o),
(1091,1500,o),
(646,1500,cs)
);
},
{
closed = 1;
nodes = (
(457,1427,l),
(646,1427,ls),
(994,1427,o),
(1137,1113,o),
(1137,750,cs),
(1137,387,o),
(1014,73,o),
(646,73,cs),
(457,73,l)
);
},
{
closed = 1;
nodes = (
(700,1700,l),
(920,1921,l),
(883,1957,l),
(634,1790,l),
(387,1957,l),
(350,1921,l),
(570,1700,l)
);
}
);
};
layerId = master01;
shapes = (
{
ref = D;
},
{
pos = (135,0);
ref = caroncomb;
}
);
width = 1502;
}
);
unicode = 270;
},
{
color = (247,255,0,255);
glyphname = Dcroat;
lastChange = "2023-10-06 08:49:31 +0000";
layers = (
{
background = {
anchors = (
{
name = bottom;
pos = (583,0);
},
{
name = cedilla;
pos = (583,0);
},
{
name = top;
pos = (584,1500);
}
);
shapes = (
{
closed = 1;
nodes = (
(670.008,748,l),
(670.008,752,l),
(86.002,752,l),
(86.002,748,l)
);
},
{
closed = 1;
nodes = (
(37,1500,l),
(37,1496,l),
(216,1496,l),
(216,4,l),
(37,4,l),
(37,0,l),
(596,0,ls),
(1022,0,o),
(1317,324,o),
(1317,750,cs),
(1317,1176,o),
(1042,1500,o),
(596,1500,cs)
);
},
{
closed = 1;
nodes = (
(407,1496,l),
(596,1496,ls),
(944,1496,o),
(1086,1114,o),
(1086,750,cs),
(1086,386,o),
(964,4,o),
(596,4,cs),
(407,4,l)
);
}
);
};
layerId = "131D8093-96F9-49D1-BC5C-300C1D47CA92";
shapes = (
{
closed = 1;
nodes = (
(670.008,748,l),
(670.008,752,l),
(86.002,752,l),
(86.002,748,l)
);
},
{
ref = D;
}
);
width = 1399;
},
{
background = {
anchors = (
{
name = bottom;
pos = (726,0);
},
{
name = cedilla;
pos = (726,0);
},
{
name = top;
pos = (744,1500);
}
);
shapes = (
{
closed = 1;
nodes = (
(849.786,748,l),
(849.786,752,l),
(49,752,l),
(49,748,l)
);
},
{
closed = 1;
nodes = (
(30,1500,l),
(30,1496,l),
(210,1496,l),
(210,4,l),
(30,4,l),
(30,0,l),
(750,0,ls),
(1236,0,o),
(1550,284,o),
(1550,750,cs),
(1550,1216,o),
(1256,1500,o),
(750,1500,cs)
);
},
{
closed = 1;
nodes = (
(640,1496,l),
(750,1496,ls),
(978,1496,o),
(1080,1174,o),
(1080,750,cs),
(1080,326,o),
(998,4,o),
(750,4,cs),
(640,4,l)
);
}
);
};
layerId = "96DEB648-6659-45A7-975A-5247D52A4CB5";
shapes = (
{
closed = 1;
nodes = (
(849.786,748,l),
(849.786,752,l),
(49,752,l),
(49,748,l)
);
},
{
ref = D;
}
);
width = 1629;
},
{
background = {
anchors = (
{
name = bottom;
pos = (726,0);
},
{
name = cedilla;
pos = (726,0);
},
{
name = top;
pos = (744,1500);
}
);
shapes = (
{
closed = 1;
nodes = (
(869.9,714,l),
(869.9,786,l),
(28.38,786,l),
(28.38,714,l)
);
},
{
closed = 1;
nodes = (
(28,1500,l),
(28,1428,l),
(210,1428,l),
(210,72,l),
(28,72,l),
(28,0,l),
(750,0,ls),
(1236,0,o),
(1550,284,o),
(1550,750,cs),
(1550,1216,o),
(1256,1500,o),
(750,1500,cs)
);
},
{
closed = 1;
nodes = (
(640,1428,l),
(750,1428,ls),
(978,1428,o),
(1080,1174,o),
(1080,750,cs),
(1080,326,o),
(998,72,o),
(750,72,cs),
(640,72,l)
);
}
);
};
layerId = "78E0DE70-2ED7-4EA0-A1D7-377506C0A4B3";
shapes = (
{
closed = 1;
nodes = (
(869.9,714,l),
(869.9,786,l),
(28.38,786,l),
(28.38,714,l)
);
},
{
ref = D;
}
);
width = 1628;
},
{
background = {
anchors = (
{
name = bottom;
pos = (633,0);
},
{
name = cedilla;
pos = (633,0);
},
{
name = top;
pos = (634,1500);
}
);
shapes = (
{
closed = 1;
nodes = (
(740.324,714,l),
(740.324,786,l),
(86.465,786,l),
(86.465,714,l)
);
},
{
closed = 1;
nodes = (
(86,1500,l),
(86,1427,l),
(267,1427,l),
(267,73,l),
(86,73,l),
(86,0,l),
(646,0,ls),
(1072,0,o),
(1366,324,o),
(1366,750,cs),
(1366,1176,o),
(1091,1500,o),
(646,1500,cs)
);
},
{
closed = 1;
nodes = (
(457,1427,l),
(646,1427,ls),
(994,1427,o),
(1137,1113,o),
(1137,750,cs),
(1137,387,o),
(1014,73,o),
(646,73,cs),
(457,73,l)
);
}
);
};
layerId = master01;
shapes = (
{
closed = 1;
nodes = (
(740.324,714,l),
(740.324,786,l),
(86.465,786,l),
(86.465,714,l)
);
},
{
ref = D;
}
);
width = 1502;
}
);
unicode = 272;
},
{
color = (247,255,0,255);
glyphname = Eth;
lastChange = "2023-10-06 08:49:31 +0000";
layers = (
{
anchors = (
{
name = bottom;
pos = (583,0);
},
{
name = cedilla;
pos = (583,0);
},
{
name = top;
pos = (584,1500);
}
);
background = {
anchors = (
{
name = bottom;
pos = (583,0);
},
{
name = cedilla;
pos = (583,0);
},
{
name = top;
pos = (584,1500);
}
);
shapes = (
{
closed = 1;
nodes = (
(670,748,l),
(670,752,l),
(86,752,l),
(86,748,l)
);
},
{
closed = 1;
nodes = (
(37,1500,l),
(37,1496,l),
(216,1496,l),
(216,4,l),
(37,4,l),
(37,0,l),
(596,0,ls),
(1022,0,o),
(1317,324,o),
(1317,750,cs),
(1317,1176,o),
(1042,1500,o),
(596,1500,cs)
);
},
{
closed = 1;
nodes = (
(407,1496,l),
(596,1496,ls),
(944,1496,o),
(1086,1114,o),
(1086,750,cs),
(1086,386,o),
(964,4,o),
(596,4,cs),
(407,4,l)
);
}
);
};
layerId = "131D8093-96F9-49D1-BC5C-300C1D47CA92";
shapes = (
{
closed = 1;
nodes = (
(670,748,l),
(670,752,l),
(86,752,l),
(86,748,l)
);
},
{
ref = D;
}
);
width = 1399;
},
{
anchors = (
{
name = bottom;
pos = (726,0);
},
{
name = cedilla;
pos = (726,0);
},
{
name = top;
pos = (744,1500);
}
);
background = {
anchors = (
{
name = bottom;
pos = (726,0);
},
{
name = cedilla;
pos = (726,0);
},
{
name = top;
pos = (744,1500);
}
);
shapes = (
{
closed = 1;
nodes = (
(850,748,l),
(850,752,l),
(49,752,l),
(49,748,l)
);
},
{
closed = 1;
nodes = (
(30,1500,l),
(30,1496,l),
(210,1496,l),
(210,4,l),
(30,4,l),
(30,0,l),
(750,0,ls),
(1236,0,o),
(1550,284,o),
(1550,750,cs),
(1550,1216,o),
(1256,1500,o),
(750,1500,cs)
);
},
{
closed = 1;
nodes = (
(640,1496,l),
(750,1496,ls),
(978,1496,o),
(1080,1174,o),
(1080,750,cs),
(1080,326,o),
(998,4,o),
(750,4,cs),
(640,4,l)
);
}
);
};
layerId = "96DEB648-6659-45A7-975A-5247D52A4CB5";
shapes = (
{
closed = 1;
nodes = (
(850,748,l),
(850,752,l),
(49,752,l),
(49,748,l)
);
},
{
ref = D;
}
);
width = 1629;
},
{
anchors = (
{
name = bottom;
pos = (726,0);
},
{
name = cedilla;
pos = (726,0);
},
{
name = top;
pos = (744,1500);
}
);
background = {
anchors = (
{
name = bottom;
pos = (726,0);
},
{
name = cedilla;
pos = (726,0);
},
{
name = top;
pos = (744,1500);
}
);
shapes = (
{
closed = 1;
nodes = (
(870,714,l),
(870,786,l),
(28,786,l),
(28,714,l)
);
},
{
closed = 1;
nodes = (
(28,1500,l),
(28,1428,l),
(210,1428,l),
(210,72,l),
(28,72,l),
(28,0,l),
(750,0,ls),
(1236,0,o),
(1550,284,o),
(1550,750,cs),
(1550,1216,o),
(1256,1500,o),
(750,1500,cs)
);
},
{
closed = 1;
nodes = (
(640,1428,l),
(750,1428,ls),
(978,1428,o),
(1080,1174,o),
(1080,750,cs),
(1080,326,o),
(998,72,o),
(750,72,cs),
(640,72,l)
);
}
);
};
layerId = "78E0DE70-2ED7-4EA0-A1D7-377506C0A4B3";
shapes = (
{
closed = 1;
nodes = (
(870,714,l),
(870,786,l),
(28,786,l),
(28,714,l)
);
},
{
ref = D;
}
);
width = 1628;
},
{
anchors = (
{
name = bottom;
pos = (633,0);
},
{
name = cedilla;
pos = (633,0);
},
{
name = top;
pos = (634,1500);
}
);
background = {
anchors = (
{
name = bottom;
pos = (633,0);
},
{
name = cedilla;
pos = (633,0);
},
{
name = top;
pos = (634,1500);
}
);
shapes = (
{
closed = 1;
nodes = (
(740,714,l),
(740,786,l),
(86,786,l),
(86,714,l)
);
},
{
closed = 1;
nodes = (
(86,1500,l),
(86,1427,l),
(267,1427,l),
(267,73,l),
(86,73,l),
(86,0,l),
(646,0,ls),
(1072,0,o),
(1366,324,o),
(1366,750,cs),
(1366,1176,o),
(1091,1500,o),
(646,1500,cs)
);
},
{
closed = 1;
nodes = (
(457,1427,l),
(646,1427,ls),
(994,1427,o),
(1137,1113,o),
(1137,750,cs),
(1137,387,o),
(1014,73,o),
(646,73,cs),
(457,73,l)
);
}
);
};
layerId = master01;
shapes = (
{
closed = 1;
nodes = (
(740,714,l),
(740,786,l),
(86,786,l),
(86,714,l)
);
},
{
ref = D;
}
);
width = 1502;
}
);
unicode = 208;
},
{
color = (0,171,232,255);
glyphname = E;
lastChange = "2023-10-06 08:49:31 +0000";
layers = (
{
anchors = (
{
name = bottom;
pos = (596,0);
},
{
name = ogonek;
pos = (906,0);
},
{
name = top;
pos = (624,1500);
}
);
background = {
anchors = (
{
name = bottom;
pos = (596,0);
},
{
name = ogonek;
pos = (906,0);
},
{
name = top;
pos = (624,1500);
}
);
shapes = (
{
closed = 1;
nodes = (
(1107,0,l),
(1107,450,l),
(1103,450,l),
(1103,196,o),
(1001,4,o),
(727,4,cs),
(407,4,l),
(407,1496,l),
(747,1496,ls),
(981,1496,o),
(1083,1304,o),
(1083,1090,c),
(1086,1090,l),
(1086,1500,l),
(37,1500,l),
(37,1496,l),
(216,1496,l),
(216,4,l),
(37,4,l),
(37,0,l)
);
},
{
closed = 1;
nodes = (
(747,556,l),
(747,986,l),
(743,986,l),
(743,852,o),
(641,778,o),
(527,778,cs),
(327,778,l),
(327,774,l),
(527,774,ls),
(641,774,o),
(743,690,o),
(743,556,c)
);
}
);
};
layerId = "131D8093-96F9-49D1-BC5C-300C1D47CA92";
shapes = (
{
closed = 1;
nodes = (
(1107,0,l),
(1107,450,l),
(1103,450,l),
(1103,196,o),
(1001,4,o),
(727,4,cs),
(407,4,l),
(407,1496,l),
(747,1496,ls),
(981,1496,o),
(1083,1304,o),
(1083,1090,c),
(1086,1090,l),
(1086,1500,l),
(37,1500,l),
(37,1496,l),
(216,1496,l),
(216,4,l),
(37,4,l),
(37,0,l)
);
},
{
closed = 1;
nodes = (
(747,556,l),
(747,986,l),
(743,986,l),
(743,852,o),
(641,778,o),
(527,778,cs),
(327,778,l),
(327,774,l),
(527,774,ls),
(641,774,o),
(743,690,o),
(743,556,c)
);
}
);
width = 1165;
},
{
anchors = (
{
name = bottom;
pos = (706,0);
},
{
name = ogonek;
pos = (1076,0);
},
{
name = top;
pos = (704,1500);
}
);
background = {
anchors = (
{
name = bottom;
pos = (706,0);
},
{
name = ogonek;
pos = (1076,0);
},
{
name = top;
pos = (704,1500);
}
);
shapes = (
{
closed = 1;
nodes = (
(1280,0,l),
(1280,450,l),
(1276,450,l),
(1216,196,o),
(1014,4,o),
(740,4,cs),
(640,4,l),
(640,1496,l),
(760,1496,ls),
(994,1496,o),
(1196,1304,o),
(1256,1090,c),
(1260,1090,l),
(1260,1500,l),
(30,1500,l),
(30,1496,l),
(210,1496,l),
(210,4,l),
(30,4,l),
(30,0,l)
);
},
{
closed = 1;
nodes = (
(980,496,l),
(980,1046,l),
(976,1046,l),
(916,912,o),
(774,778,o),
(660,778,cs),
(550,778,l),
(550,774,l),
(660,774,ls),
(774,774,o),
(916,630,o),
(976,496,c)
);
}
);
};
layerId = "96DEB648-6659-45A7-975A-5247D52A4CB5";
shapes = (
{
closed = 1;
nodes = (
(1280,0,l),
(1280,450,l),
(1276,450,l),
(1216,196,o),
(1014,4,o),
(740,4,cs),
(640,4,l),
(640,1496,l),
(760,1496,ls),
(994,1496,o),
(1196,1304,o),
(1256,1090,c),
(1260,1090,l),
(1260,1500,l),
(30,1500,l),
(30,1496,l),
(210,1496,l),
(210,4,l),
(30,4,l),
(30,0,l)
);
},
{
closed = 1;
nodes = (
(980,496,l),
(980,1046,l),
(976,1046,l),
(916,912,o),
(774,778,o),
(660,778,cs),
(550,778,l),
(550,774,l),
(660,774,ls),
(774,774,o),
(916,630,o),
(976,496,c)
);
}
);
width = 1339;
},
{
anchors = (
{
name = bottom;
pos = (706,0);
},
{
name = ogonek;
pos = (1096,0);
},
{
name = top;
pos = (704,1500);
}
);
background = {
anchors = (
{
name = bottom;
pos = (706,0);
},
{
name = ogonek;
pos = (1096,0);
},
{
name = top;
pos = (704,1500);
}
);
shapes = (
{
closed = 1;
nodes = (
(1280,0,l),
(1280,450,l),
(1208,450,l),
(1148,196,o),
(980,72,o),
(708,72,cs),
(640,72,l),
(640,1428,l),
(728,1428,ls),
(962,1428,o),
(1128,1304,o),
(1188,1090,c),
(1260,1090,l),
(1260,1500,l),
(28,1500,l),
(28,1428,l),
(210,1428,l),
(210,72,l),
(28,72,l),
(28,0,l)
);
},
{
closed = 1;
nodes = (
(980,496,l),
(980,1046,l),
(906,1046,l),
(845,911,o),
(739,811,o),
(626,812,cs),
(620,812,l),
(620,740,l),
(626,740,ls),
(739,741,o),
(846,630,o),
(906,496,c)
);
}
);
};
layerId = "78E0DE70-2ED7-4EA0-A1D7-377506C0A4B3";
shapes = (
{
closed = 1;
nodes = (
(1280,0,l),
(1280,450,l),
(1208,450,l),
(1148,196,o),
(980,72,o),
(708,72,cs),
(640,72,l),
(640,1428,l),
(728,1428,ls),
(962,1428,o),
(1128,1304,o),
(1188,1090,c),
(1260,1090,l),
(1260,1500,l),
(28,1500,l),
(28,1428,l),
(210,1428,l),
(210,72,l),
(28,72,l),
(28,0,l)
);
},
{
closed = 1;
nodes = (
(980,496,l),
(980,1046,l),
(906,1046,l),
(845,911,o),
(739,811,o),
(626,812,cs),
(620,812,l),
(620,740,l),
(626,740,ls),
(739,741,o),
(846,630,o),
(906,496,c)
);
}
);
width = 1338;
},
{
anchors = (
{
name = bottom;
pos = (646,0);
},
{
name = ogonek;
pos = (956,0);
},
{
name = top;
pos = (674,1500);
}
);
background = {
anchors = (
{
name = bottom;
pos = (646,0);
},
{
name = ogonek;
pos = (956,0);
},
{
name = top;
pos = (674,1500);
}
);
shapes = (
{
closed = 1;
nodes = (
(1189,0,l),
(1189,450,l),
(1116,450,l),
(1116,196,o),
(1049,73,o),
(776,73,cs),
(457,73,l),
(457,1427,l),
(797,1427,ls),
(1031,1427,o),
(1096,1304,o),
(1096,1090,c),
(1170,1090,l),
(1170,1500,l),
(86,1500,l),
(86,1427,l),
(267,1427,l),
(267,73,l),
(86,73,l),
(86,0,l)
);
},
{
closed = 1;
nodes = (
(830,557,l),
(830,986,l),
(756,986,l),
(756,852,o),
(689,812,o),
(576,812,cs),
(441,812,l),
(441,739,l),
(576,739,ls),
(689,739,o),
(756,691,o),
(756,557,c)
);
}
);
};
layerId = master01;
shapes = (
{
closed = 1;
nodes = (
(1189,0,l),
(1189,450,l),
(1116,450,l),
(1116,196,o),
(1049,73,o),
(776,73,cs),
(457,73,l),
(457,1427,l),
(797,1427,ls),
(1031,1427,o),
(1096,1304,o),
(1096,1090,c),
(1170,1090,l),
(1170,1500,l),
(86,1500,l),
(86,1427,l),
(267,1427,l),
(267,73,l),
(86,73,l),
(86,0,l)
);
},
{
closed = 1;
nodes = (
(830,557,l),
(830,986,l),
(756,986,l),
(756,852,o),
(689,812,o),
(576,812,cs),
(441,812,l),
(441,739,l),
(576,739,ls),
(689,739,o),
(756,691,o),
(756,557,c)
);
}
);
width = 1305;
}
);
unicode = 69;
},
{
color = 10;
glyphname = Eacute;
lastChange = "2023-10-05 14:16:21 +0000";
layers = (
{
background = {
anchors = (
{
name = bottom;
pos = (596,0);
},
{
name = ogonek;
pos = (906,0);
},
{
name = top;
pos = (624,1500);
}
);
shapes = (
{
closed = 1;
nodes = (
(1107,0,l),
(1107,450,l),
(1103,450,l),
(1103,196,o),
(1001,4,o),
(727,4,cs),
(407,4,l),
(407,1496,l),
(747,1496,ls),
(981,1496,o),
(1083,1304,o),
(1083,1090,c),
(1086,1090,l),
(1086,1500,l),
(37,1500,l),
(37,1496,l),
(216,1496,l),
(216,4,l),
(37,4,l),
(37,0,l)
);
},
{
closed = 1;
nodes = (
(747,556,l),
(747,986,l),
(743,986,l),
(743,852,o),
(641,778,o),
(527,778,cs),
(327,778,l),
(327,774,l),
(527,774,ls),
(641,774,o),
(743,690,o),
(743,556,c)
);
},
{
closed = 1;
nodes = (
(826,1817,ls),
(860,1832,o),
(872,1882,o),
(853,1915,cs),
(834,1948,o),
(778,1971,o),
(741,1926,cs),
(550,1696,l),
(552,1693,l)
);
}
);
};
layerId = "131D8093-96F9-49D1-BC5C-300C1D47CA92";
shapes = (
{
ref = E;
},
{
pos = (206,0);
ref = acutecomb;
}
);
width = 1165;
},
{
background = {
anchors = (
{
name = bottom;
pos = (706,0);
},
{
name = ogonek;
pos = (1076,0);
},
{
name = top;
pos = (704,1500);
}
);
shapes = (
{
closed = 1;
nodes = (
(1280,0,l),
(1280,450,l),
(1276,450,l),
(1216,196,o),
(1014,4,o),
(740,4,cs),
(640,4,l),
(640,1496,l),
(760,1496,ls),
(994,1496,o),
(1196,1304,o),
(1256,1090,c),
(1260,1090,l),
(1260,1500,l),
(30,1500,l),
(30,1496,l),
(210,1496,l),
(210,4,l),
(30,4,l),
(30,0,l)
);
},
{
closed = 1;
nodes = (
(980,496,l),
(980,1046,l),
(976,1046,l),
(916,912,o),
(774,778,o),
(660,778,cs),
(550,778,l),
(550,774,l),
(660,774,ls),
(774,774,o),
(916,630,o),
(976,496,c)
);
},
{
closed = 1;
nodes = (
(873,1718,ls),
(1032,1739,o),
(1089,1905,o),
(1023,2001,cs),
(969,2079,o),
(793,2104,o),
(718,1956,cs),
(579,1683,l),
(581,1680,l)
);
}
);
};
layerId = "96DEB648-6659-45A7-975A-5247D52A4CB5";
shapes = (
{
ref = E;
},
{
pos = (314,0);
ref = acutecomb;
}
);
width = 1339;
},
{
background = {
anchors = (
{
name = bottom;
pos = (706,0);
},
{
name = ogonek;
pos = (1096,0);
},
{
name = top;
pos = (704,1500);
}
);
shapes = (
{
closed = 1;
nodes = (
(1280,0,l),
(1280,450,l),
(1208,450,l),
(1148,196,o),
(980,72,o),
(708,72,cs),
(640,72,l),
(640,1428,l),
(728,1428,ls),
(962,1428,o),
(1128,1304,o),
(1188,1090,c),
(1260,1090,l),
(1260,1500,l),
(28,1500,l),
(28,1428,l),
(210,1428,l),
(210,72,l),
(28,72,l),
(28,0,l)
);
},
{
closed = 1;
nodes = (
(980,496,l),
(980,1046,l),
(906,1046,l),
(845,911,o),
(739,811,o),
(626,812,cs),
(620,812,l),
(620,740,l),
(626,740,ls),
(739,741,o),
(846,630,o),
(906,496,c)
);
},
{
closed = 1;
nodes = (
(873,1718,ls),
(1031,1752,o),
(1089,1905,o),
(1023,2001,cs),
(969,2079,o),
(804,2099,o),
(718,1956,cs),
(569,1708,l),
(601,1660,l)
);
}
);
};
layerId = "78E0DE70-2ED7-4EA0-A1D7-377506C0A4B3";
shapes = (
{
ref = E;
},
{
pos = (309,0);
ref = acutecomb;
}
);
width = 1338;
},
{
background = {
anchors = (
{
name = bottom;
pos = (646,0);
},
{
name = ogonek;
pos = (956,0);
},
{
name = top;
pos = (674,1500);
}
);
shapes = (
{
closed = 1;
nodes = (
(1189,0,l),
(1189,450,l),
(1116,450,l),
(1116,196,o),
(1049,73,o),
(776,73,cs),
(457,73,l),
(457,1427,l),
(797,1427,ls),
(1031,1427,o),
(1096,1304,o),
(1096,1090,c),
(1170,1090,l),
(1170,1500,l),
(86,1500,l),
(86,1427,l),
(267,1427,l),
(267,73,l),
(86,73,l),
(86,0,l)
);
},
{
closed = 1;
nodes = (
(830,557,l),
(830,986,l),
(756,986,l),
(756,852,o),
(689,812,o),
(576,812,cs),
(441,812,l),
(441,739,l),
(576,739,ls),
(689,739,o),
(756,691,o),
(756,557,c)
);
},
{
closed = 1;
nodes = (
(876,1817,ls),
(908,1836,o),
(922,1882,o),
(903,1915,cs),
(884,1948,o),
(833,1967,o),
(791,1926,cs),
(579,1719,l),
(624,1670,l)
);
}
);
};
layerId = master01;
shapes = (
{
ref = E;
},
{
pos = (245,0);
ref = acutecomb;
}
);
width = 1305;
}
);
unicode = 201;
},
{
color = 10;
glyphname = Ebreve;
lastChange = "2023-10-05 14:16:21 +0000";
layers = (
{
background = {
anchors = (
{
name = bottom;
pos = (596,0);
},
{
name = ogonek;
pos = (906,0);
},
{
name = top;
pos = (624,1500);
}
);
shapes = (
{
closed = 1;
nodes = (
(1107,0,l),
(1107,450,l),
(1103,450,l),
(1103,196,o),
(1001,4,o),
(727,4,cs),
(407,4,l),
(407,1496,l),
(747,1496,ls),
(981,1496,o),
(1083,1304,o),
(1083,1090,c),
(1086,1090,l),
(1086,1500,l),
(37,1500,l),
(37,1496,l),
(216,1496,l),
(216,4,l),
(37,4,l),
(37,0,l)
);
},
{
closed = 1;
nodes = (
(747,556,l),
(747,986,l),
(743,986,l),
(743,852,o),
(641,778,o),
(527,778,cs),
(327,778,l),
(327,774,l),
(527,774,ls),
(641,774,o),
(743,690,o),
(743,556,c)
);
},
{
closed = 1;
nodes = (
(804,1680,o),
(844,1816,o),
(844,1938,c),
(840,1938,l),
(840,1840,o),
(732,1790,o),
(624,1790,cs),
(516,1790,o),
(408,1840,o),
(408,1938,c),
(404,1938,l),
(404,1816,o),
(444,1680,o),
(624,1680,cs)
);
}
);
};
layerId = "131D8093-96F9-49D1-BC5C-300C1D47CA92";
shapes = (
{
ref = E;
},
{
pos = (124,0);
ref = brevecomb;
}
);
width = 1165;
},
{
background = {
anchors = (
{
name = bottom;
pos = (706,0);
},
{
name = ogonek;
pos = (1076,0);
},
{
name = top;
pos = (704,1500);
}
);
shapes = (
{
closed = 1;
nodes = (
(1280,0,l),
(1280,450,l),
(1276,450,l),
(1216,196,o),
(1014,4,o),
(740,4,cs),
(640,4,l),
(640,1496,l),
(760,1496,ls),
(994,1496,o),
(1196,1304,o),
(1256,1090,c),
(1260,1090,l),
(1260,1500,l),
(30,1500,l),
(30,1496,l),
(210,1496,l),
(210,4,l),
(30,4,l),
(30,0,l)
);
},
{
closed = 1;
nodes = (
(980,496,l),
(980,1046,l),
(976,1046,l),
(916,912,o),
(774,778,o),
(660,778,cs),
(550,778,l),
(550,774,l),
(660,774,ls),
(774,774,o),
(916,630,o),
(976,496,c)
);
},
{
closed = 1;
nodes = (
(864,1680,o),
(964,1796,o),
(964,2058,c),
(960,2058,l),
(960,1970,o),
(812,1950,o),
(704,1950,cs),
(596,1950,o),
(448,1970,o),
(448,2058,c),
(444,2058,l),
(444,1796,o),
(544,1680,o),
(704,1680,cs)
);
}
);
};
layerId = "96DEB648-6659-45A7-975A-5247D52A4CB5";
shapes = (
{
ref = E;
},
{
pos = (204,0);
ref = brevecomb;
}
);
width = 1339;
},
{
background = {
anchors = (
{
name = bottom;
pos = (706,0);
},
{
name = ogonek;
pos = (1096,0);
},
{
name = top;
pos = (704,1500);
}
);
shapes = (
{
closed = 1;
nodes = (
(1280,0,l),
(1280,450,l),
(1208,450,l),
(1148,196,o),
(980,72,o),
(708,72,cs),
(640,72,l),
(640,1428,l),
(728,1428,ls),
(962,1428,o),
(1128,1304,o),
(1188,1090,c),
(1260,1090,l),
(1260,1500,l),
(28,1500,l),
(28,1428,l),
(210,1428,l),
(210,72,l),
(28,72,l),
(28,0,l)
);
},
{
closed = 1;
nodes = (
(980,496,l),
(980,1046,l),
(906,1046,l),
(845,911,o),
(739,811,o),
(626,812,cs),
(620,812,l),
(620,740,l),
(626,740,ls),
(739,741,o),
(846,630,o),
(906,496,c)
);
},
{
closed = 1;
nodes = (
(864,1680,o),
(964,1796,o),
(964,2058,c),
(892,2058,l),
(892,1970,o),
(812,1950,o),
(704,1950,cs),
(596,1950,o),
(516,1970,o),
(516,2058,c),
(444,2058,l),
(444,1796,o),
(544,1680,o),
(704,1680,cs)
);
}
);
};
layerId = "78E0DE70-2ED7-4EA0-A1D7-377506C0A4B3";
shapes = (
{
ref = E;
},
{
pos = (204,0);
ref = brevecomb;
}
);
width = 1338;
},
{
background = {
anchors = (
{
name = bottom;
pos = (646,0);
},
{
name = ogonek;
pos = (956,0);
},
{
name = top;
pos = (674,1500);
}
);
shapes = (
{
closed = 1;
nodes = (
(1189,0,l),
(1189,450,l),
(1116,450,l),
(1116,196,o),
(1049,73,o),
(776,73,cs),
(457,73,l),
(457,1427,l),
(797,1427,ls),
(1031,1427,o),
(1096,1304,o),
(1096,1090,c),
(1170,1090,l),
(1170,1500,l),
(86,1500,l),
(86,1427,l),
(267,1427,l),
(267,73,l),
(86,73,l),
(86,0,l)
);
},
{
closed = 1;
nodes = (
(830,557,l),
(830,986,l),
(756,986,l),
(756,852,o),
(689,812,o),
(576,812,cs),
(441,812,l),
(441,739,l),
(576,739,ls),
(689,739,o),
(756,691,o),
(756,557,c)
);
},
{
closed = 1;
nodes = (
(854,1680,o),
(895,1816,o),
(895,1938,c),
(855,1938,l),
(855,1840,o),
(781,1790,o),
(674,1790,cs),
(567,1790,o),
(495,1840,o),
(495,1938,c),
(456,1938,l),
(456,1816,o),
(494,1680,o),
(674,1680,cs)
);
}
);
};
layerId = master01;
shapes = (
{
ref = E;
},
{
pos = (175,0);
ref = brevecomb;
}
);
width = 1305;
}
);
unicode = 276;
},
{
color = 10;
glyphname = Ecaron;
lastChange = "2023-10-05 14:16:21 +0000";
layers = (
{
background = {
anchors = (
{
name = bottom;
pos = (596,0);
},
{
name = ogonek;
pos = (906,0);
},
{
name = top;
pos = (624,1500);
}
);
shapes = (
{
closed = 1;
nodes = (
(1107,0,l),
(1107,450,l),
(1103,450,l),
(1103,196,o),
(1001,4,o),
(727,4,cs),
(407,4,l),
(407,1496,l),
(747,1496,ls),
(981,1496,o),
(1083,1304,o),
(1083,1090,c),
(1086,1090,l),
(1086,1500,l),
(37,1500,l),
(37,1496,l),
(216,1496,l),
(216,4,l),
(37,4,l),
(37,0,l)
);
},
{
closed = 1;
nodes = (
(747,556,l),
(747,986,l),
(743,986,l),
(743,852,o),
(641,778,o),
(527,778,cs),
(327,778,l),
(327,774,l),
(527,774,ls),
(641,774,o),
(743,690,o),
(743,556,c)
);
},
{
closed = 1;
nodes = (
(690,1700,l),
(910,1920,l),
(906,1922,l),
(624,1790,l),
(344,1922,l),
(340,1920,l),
(560,1700,l)
);
}
);
};
layerId = "131D8093-96F9-49D1-BC5C-300C1D47CA92";
shapes = (
{
ref = E;
},
{
pos = (125,0);
ref = caroncomb;
}
);
width = 1165;
},
{
background = {
anchors = (
{
name = bottom;
pos = (706,0);
},
{
name = ogonek;
pos = (1076,0);
},
{
name = top;
pos = (704,1500);
}
);
shapes = (
{
closed = 1;
nodes = (
(1280,0,l),
(1280,450,l),
(1276,450,l),
(1216,196,o),
(1014,4,o),
(740,4,cs),
(640,4,l),
(640,1496,l),
(760,1496,ls),
(994,1496,o),
(1196,1304,o),
(1256,1090,c),
(1260,1090,l),
(1260,1500,l),
(30,1500,l),
(30,1496,l),
(210,1496,l),
(210,4,l),
(30,4,l),
(30,0,l)
);
},
{
closed = 1;
nodes = (
(980,496,l),
(980,1046,l),
(976,1046,l),
(916,912,o),
(774,778,o),
(660,778,cs),
(550,778,l),
(550,774,l),
(660,774,ls),
(774,774,o),
(916,630,o),
(976,496,c)
);
},
{
closed = 1;
nodes = (
(810,1700,l),
(1070,2020,l),
(1068,2022,l),
(706,1890,l),
(342,2022,l),
(340,2020,l),
(600,1700,l)
);
}
);
};
layerId = "96DEB648-6659-45A7-975A-5247D52A4CB5";
shapes = (
{
ref = E;
},
{
pos = (205,0);
ref = caroncomb;
}
);
width = 1339;
},
{
background = {
anchors = (
{
name = bottom;
pos = (706,0);
},
{
name = ogonek;
pos = (1096,0);
},
{
name = top;
pos = (704,1500);
}
);
shapes = (
{
closed = 1;
nodes = (
(1280,0,l),
(1280,450,l),
(1208,450,l),
(1148,196,o),
(980,72,o),
(708,72,cs),
(640,72,l),
(640,1428,l),
(728,1428,ls),
(962,1428,o),
(1128,1304,o),
(1188,1090,c),
(1260,1090,l),
(1260,1500,l),
(28,1500,l),
(28,1428,l),
(210,1428,l),
(210,72,l),
(28,72,l),
(28,0,l)
);
},
{
closed = 1;
nodes = (
(980,496,l),
(980,1046,l),
(906,1046,l),
(845,911,o),
(739,811,o),
(626,812,cs),
(620,812,l),
(620,740,l),
(626,740,ls),
(739,741,o),
(846,630,o),
(906,496,c)
);
},
{
closed = 1;
nodes = (
(810,1700,l),
(1070,2020,l),
(1032,2056,l),
(706,1890,l),
(376,2056,l),
(340,2020,l),
(600,1700,l)
);
}
);
};
layerId = "78E0DE70-2ED7-4EA0-A1D7-377506C0A4B3";
shapes = (
{
ref = E;
},
{
pos = (205,0);
ref = caroncomb;
}
);
width = 1338;
},
{
background = {
anchors = (
{
name = bottom;
pos = (646,0);
},
{
name = ogonek;
pos = (956,0);
},
{
name = top;
pos = (674,1500);
}
);
shapes = (
{
closed = 1;
nodes = (
(1189,0,l),
(1189,450,l),
(1116,450,l),
(1116,196,o),
(1049,73,o),
(776,73,cs),
(457,73,l),
(457,1427,l),
(797,1427,ls),
(1031,1427,o),
(1096,1304,o),
(1096,1090,c),
(1170,1090,l),
(1170,1500,l),
(86,1500,l),
(86,1427,l),
(267,1427,l),
(267,73,l),
(86,73,l),
(86,0,l)
);
},
{
closed = 1;
nodes = (
(830,557,l),
(830,986,l),
(756,986,l),
(756,852,o),
(689,812,o),
(576,812,cs),
(441,812,l),
(441,739,l),
(576,739,ls),
(689,739,o),
(756,691,o),
(756,557,c)
);
},
{
closed = 1;
nodes = (
(740,1700,l),
(960,1921,l),
(923,1957,l),
(674,1790,l),
(427,1957,l),
(390,1921,l),
(610,1700,l)
);
}
);
};
layerId = master01;
shapes = (
{
ref = E;
},
{
pos = (175,0);
ref = caroncomb;
}
);
width = 1305;
}
);
unicode = 282;
},
{
color = 10;
glyphname = Ecircumflex;
lastChange = "2023-10-05 14:16:21 +0000";
layers = (
{
background = {
anchors = (
{
name = bottom;
pos = (596,0);
},
{
name = ogonek;
pos = (906,0);
},
{
name = top;
pos = (624,1500);
}
);
shapes = (
{
closed = 1;
nodes = (
(1107,0,l),
(1107,450,l),
(1103,450,l),
(1103,196,o),
(1001,4,o),
(727,4,cs),
(407,4,l),
(407,1496,l),
(747,1496,ls),
(981,1496,o),
(1083,1304,o),
(1083,1090,c),
(1086,1090,l),
(1086,1500,l),
(37,1500,l),
(37,1496,l),
(216,1496,l),
(216,4,l),
(37,4,l),
(37,0,l)
);
},
{
closed = 1;
nodes = (
(747,556,l),
(747,986,l),
(743,986,l),
(743,852,o),
(641,778,o),
(527,778,cs),
(327,778,l),
(327,774,l),
(527,774,ls),
(641,774,o),
(743,690,o),
(743,556,c)
);
},
{
closed = 1;
nodes = (
(624,1849,l),
(908,1715,l),
(910,1719,l),
(690,1939,l),
(560,1939,l),
(340,1719,l),
(342,1715,l)
);
}
);
};
layerId = "131D8093-96F9-49D1-BC5C-300C1D47CA92";
shapes = (
{
ref = E;
},
{
pos = (125,0);
ref = circumflexcomb;
}
);
width = 1165;
},
{
background = {
anchors = (
{
name = bottom;
pos = (706,0);
},
{
name = ogonek;
pos = (1076,0);
},
{
name = top;
pos = (704,1500);
}
);
shapes = (
{
closed = 1;
nodes = (
(1280,0,l),
(1280,450,l),
(1276,450,l),
(1216,196,o),
(1014,4,o),
(740,4,cs),
(640,4,l),
(640,1496,l),
(760,1496,ls),
(994,1496,o),
(1196,1304,o),
(1256,1090,c),
(1260,1090,l),
(1260,1500,l),
(30,1500,l),
(30,1496,l),
(210,1496,l),
(210,4,l),
(30,4,l),
(30,0,l)
);
},
{
closed = 1;
nodes = (
(980,496,l),
(980,1046,l),
(976,1046,l),
(916,912,o),
(774,778,o),
(660,778,cs),
(550,778,l),
(550,774,l),
(660,774,ls),
(774,774,o),
(916,630,o),
(976,496,c)
);
},
{
closed = 1;
nodes = (
(704,1845,l),
(1068,1713,l),
(1070,1715,l),
(810,2035,l),
(600,2035,l),
(340,1715,l),
(342,1713,l)
);
}
);
};
layerId = "96DEB648-6659-45A7-975A-5247D52A4CB5";
shapes = (
{
ref = E;
},
{
pos = (205,0);
ref = circumflexcomb;
}
);
width = 1339;
},
{
background = {
anchors = (
{
name = bottom;
pos = (706,0);
},
{
name = ogonek;
pos = (1096,0);
},
{
name = top;
pos = (704,1500);
}
);
shapes = (
{
closed = 1;
nodes = (
(1280,0,l),
(1280,450,l),
(1208,450,l),
(1148,196,o),
(980,72,o),
(708,72,cs),
(640,72,l),
(640,1428,l),
(728,1428,ls),
(962,1428,o),
(1128,1304,o),
(1188,1090,c),
(1260,1090,l),
(1260,1500,l),
(28,1500,l),
(28,1428,l),
(210,1428,l),
(210,72,l),
(28,72,l),
(28,0,l)
);
},
{
closed = 1;
nodes = (
(980,496,l),
(980,1046,l),
(906,1046,l),
(845,911,o),
(739,811,o),
(626,812,cs),
(620,812,l),
(620,740,l),
(626,740,ls),
(739,741,o),
(846,630,o),
(906,496,c)
);
},
{
closed = 1;
nodes = (
(704,1845,l),
(1032,1679,l),
(1070,1715,l),
(810,2035,l),
(600,2035,l),
(340,1715,l),
(376,1679,l)
);
}
);
};
layerId = "78E0DE70-2ED7-4EA0-A1D7-377506C0A4B3";
shapes = (
{
ref = E;
},
{
pos = (205,0);
ref = circumflexcomb;
}
);
width = 1338;
},
{
background = {
anchors = (
{
name = bottom;
pos = (646,0);
},
{
name = ogonek;
pos = (956,0);
},
{
name = top;
pos = (674,1500);
}
);
shapes = (
{
closed = 1;
nodes = (
(1189,0,l),
(1189,450,l),
(1116,450,l),
(1116,196,o),
(1049,73,o),
(776,73,cs),
(457,73,l),
(457,1427,l),
(797,1427,ls),
(1031,1427,o),
(1096,1304,o),
(1096,1090,c),
(1170,1090,l),
(1170,1500,l),
(86,1500,l),
(86,1427,l),
(267,1427,l),
(267,73,l),
(86,73,l),
(86,0,l)
);
},
{
closed = 1;
nodes = (
(830,557,l),
(830,986,l),
(756,986,l),
(756,852,o),
(689,812,o),
(576,812,cs),
(441,812,l),
(441,739,l),
(576,739,ls),
(689,739,o),
(756,691,o),
(756,557,c)
);
},
{
closed = 1;
nodes = (
(674,1849,l),
(923,1682,l),
(960,1719,l),
(740,1939,l),
(610,1939,l),
(390,1719,l),
(427,1682,l)
);
}
);
};
layerId = master01;
shapes = (
{
ref = E;
},
{
pos = (175,0);
ref = circumflexcomb;
}
);
width = 1305;
}
);
unicode = 202;
},
{
color = 10;
glyphname = Edieresis;
lastChange = "2023-10-05 14:16:21 +0000";
layers = (
{
background = {
anchors = (
{
name = bottom;
pos = (596,0);
},
{
name = ogonek;
pos = (906,0);
},
{
name = top;
pos = (624,1500);
}
);
shapes = (
{
closed = 1;
nodes = (
(1107,0,l),
(1107,450,l),
(1103,450,l),
(1103,196,o),
(1001,4,o),
(727,4,cs),
(407,4,l),
(407,1496,l),
(747,1496,ls),
(981,1496,o),
(1083,1304,o),
(1083,1090,c),
(1086,1090,l),
(1086,1500,l),
(37,1500,l),
(37,1496,l),
(216,1496,l),
(216,4,l),
(37,4,l),
(37,0,l)
);
},
{
closed = 1;
nodes = (
(747,556,l),
(747,986,l),
(743,986,l),
(743,852,o),
(641,778,o),
(527,778,cs),
(327,778,l),
(327,774,l),
(527,774,ls),
(641,774,o),
(743,690,o),
(743,556,c)
);
},
{
closed = 1;
nodes = (
(836,1690,o),
(879,1733,o),
(879,1786,cs),
(879,1839,o),
(836,1883,o),
(783,1883,cs),
(730,1883,o),
(687,1839,o),
(687,1786,cs),
(687,1733,o),
(730,1690,o),
(783,1690,cs)
);
},
{
closed = 1;
nodes = (
(516,1690,o),
(559,1733,o),
(559,1786,cs),
(559,1839,o),
(516,1883,o),
(463,1883,cs),
(410,1883,o),
(367,1839,o),
(367,1786,cs),
(367,1733,o),
(410,1690,o),
(463,1690,cs)
);
}
);
};
layerId = "131D8093-96F9-49D1-BC5C-300C1D47CA92";
shapes = (
{
ref = E;
},
{
pos = (123,0);
ref = dieresiscomb;
}
);
width = 1165;
},
{
background = {
anchors = (
{
name = bottom;
pos = (706,0);
},
{
name = ogonek;
pos = (1076,0);
},
{
name = top;
pos = (704,1500);
}
);
shapes = (
{
closed = 1;
nodes = (
(1280,0,l),
(1280,450,l),
(1276,450,l),
(1216,196,o),
(1014,4,o),
(740,4,cs),
(640,4,l),
(640,1496,l),
(760,1496,ls),
(994,1496,o),
(1196,1304,o),
(1256,1090,c),
(1260,1090,l),
(1260,1500,l),
(30,1500,l),
(30,1496,l),
(210,1496,l),
(210,4,l),
(30,4,l),
(30,0,l)
);
},
{
closed = 1;
nodes = (
(980,496,l),
(980,1046,l),
(976,1046,l),
(916,912,o),
(774,778,o),
(660,778,cs),
(550,778,l),
(550,774,l),
(660,774,ls),
(774,774,o),
(916,630,o),
(976,496,c)
);
},
{
closed = 1;
nodes = (
(992,1680,o),
(1053,1740,o),
(1053,1814,cs),
(1053,1888,o),
(992,1949,o),
(918,1949,cs),
(844,1949,o),
(784,1888,o),
(784,1814,cs),
(784,1740,o),
(844,1680,o),
(918,1680,cs)
);
},
{
closed = 1;
nodes = (
(564,1680,o),
(625,1740,o),
(625,1814,cs),
(625,1888,o),
(564,1949,o),
(490,1949,cs),
(416,1949,o),
(356,1888,o),
(356,1814,cs),
(356,1740,o),
(416,1680,o),
(490,1680,cs)
);
}
);
};
layerId = "96DEB648-6659-45A7-975A-5247D52A4CB5";
shapes = (
{
ref = E;
},
{
pos = (204,0);
ref = dieresiscomb;
}
);
width = 1339;
},
{
background = {
anchors = (
{
name = bottom;
pos = (706,0);
},
{
name = ogonek;
pos = (1096,0);
},
{
name = top;
pos = (704,1500);
}
);
shapes = (
{
closed = 1;
nodes = (
(1280,0,l),
(1280,450,l),
(1208,450,l),
(1148,196,o),
(980,72,o),
(708,72,cs),
(640,72,l),
(640,1428,l),
(728,1428,ls),
(962,1428,o),
(1128,1304,o),
(1188,1090,c),
(1260,1090,l),
(1260,1500,l),
(28,1500,l),
(28,1428,l),
(210,1428,l),
(210,72,l),
(28,72,l),
(28,0,l)
);
},
{
closed = 1;
nodes = (
(980,496,l),
(980,1046,l),
(906,1046,l),
(845,911,o),
(739,811,o),
(626,812,cs),
(620,812,l),
(620,740,l),
(626,740,ls),
(739,741,o),
(846,630,o),
(906,496,c)
);
},
{
closed = 1;
nodes = (
(992,1680,o),
(1053,1740,o),
(1053,1814,cs),
(1053,1888,o),
(992,1949,o),
(918,1949,cs),
(844,1949,o),
(784,1888,o),
(784,1814,cs),
(784,1740,o),
(844,1680,o),
(918,1680,cs)
);
},
{
closed = 1;
nodes = (
(564,1680,o),
(625,1740,o),
(625,1814,cs),
(625,1888,o),
(564,1949,o),
(490,1949,cs),
(416,1949,o),
(356,1888,o),
(356,1814,cs),
(356,1740,o),
(416,1680,o),
(490,1680,cs)
);
}
);
};
layerId = "78E0DE70-2ED7-4EA0-A1D7-377506C0A4B3";
shapes = (
{
ref = E;
},
{
pos = (204,0);
ref = dieresiscomb;
}
);
width = 1338;
},
{
background = {
anchors = (
{
name = bottom;
pos = (646,0);
},
{
name = ogonek;
pos = (956,0);
},
{
name = top;
pos = (674,1500);
}
);
shapes = (
{
closed = 1;
nodes = (
(1189,0,l),
(1189,450,l),
(1116,450,l),
(1116,196,o),
(1049,73,o),
(776,73,cs),
(457,73,l),
(457,1427,l),
(797,1427,ls),
(1031,1427,o),
(1096,1304,o),
(1096,1090,c),
(1170,1090,l),
(1170,1500,l),
(86,1500,l),
(86,1427,l),
(267,1427,l),
(267,73,l),
(86,73,l),
(86,0,l)
);
},
{
closed = 1;
nodes = (
(830,557,l),
(830,986,l),
(756,986,l),
(756,852,o),
(689,812,o),
(576,812,cs),
(441,812,l),
(441,739,l),
(576,739,ls),
(689,739,o),
(756,691,o),
(756,557,c)
);
},
{
closed = 1;
nodes = (
(886,1690,o),
(929,1733,o),
(929,1786,cs),
(929,1839,o),
(886,1883,o),
(833,1883,cs),
(780,1883,o),
(737,1839,o),
(737,1786,cs),
(737,1733,o),
(780,1690,o),
(833,1690,cs)
);
},
{
closed = 1;
nodes = (
(566,1690,o),
(609,1733,o),
(609,1786,cs),
(609,1839,o),
(566,1883,o),
(513,1883,cs),
(460,1883,o),
(417,1839,o),
(417,1786,cs),
(417,1733,o),
(460,1690,o),
(513,1690,cs)
);
}
);
};
layerId = master01;
shapes = (
{
ref = E;
},
{
pos = (173,0);
ref = dieresiscomb;
}
);
width = 1305;
}
);
unicode = 203;
},
{
color = 10;
glyphname = Edotaccent;
lastChange = "2023-10-05 14:16:21 +0000";
layers = (
{
background = {
anchors = (
{
name = bottom;
pos = (596,0);
},
{
name = ogonek;
pos = (906,0);
},
{
name = top;
pos = (624,1500);
}
);
shapes = (
{
closed = 1;
nodes = (
(1107,0,l),
(1107,450,l),
(1103,450,l),
(1103,196,o),
(1001,4,o),
(727,4,cs),
(407,4,l),
(407,1496,l),
(747,1496,ls),
(981,1496,o),
(1083,1304,o),
(1083,1090,c),
(1086,1090,l),
(1086,1500,l),
(37,1500,l),
(37,1496,l),
(216,1496,l),
(216,4,l),
(37,4,l),
(37,0,l)
);
},
{
closed = 1;
nodes = (
(747,556,l),
(747,986,l),
(743,986,l),
(743,852,o),
(641,778,o),
(527,778,cs),
(327,778,l),
(327,774,l),
(527,774,ls),
(641,774,o),
(743,690,o),
(743,556,c)
);
},
{
closed = 1;
nodes = (
(690,1860,o),
(744,1914,o),
(744,1980,cs),
(744,2046,o),
(690,2100,o),
(624,2100,cs),
(558,2100,o),
(504,2046,o),
(504,1980,cs),
(504,1914,o),
(558,1860,o),
(624,1860,cs)
);
}
);
};
layerId = "131D8093-96F9-49D1-BC5C-300C1D47CA92";
shapes = (
{
ref = E;
},
{
pos = (124,580);
ref = dotaccentcomb;
}
);
width = 1165;
},
{
background = {
anchors = (
{
name = bottom;
pos = (706,0);
},
{
name = ogonek;
pos = (1076,0);
},
{
name = top;
pos = (704,1500);
}
);
shapes = (
{
closed = 1;
nodes = (
(1280,0,l),
(1280,450,l),
(1276,450,l),
(1216,196,o),
(1014,4,o),
(740,4,cs),
(640,4,l),
(640,1496,l),
(760,1496,ls),
(994,1496,o),
(1196,1304,o),
(1256,1090,c),
(1260,1090,l),
(1260,1500,l),
(30,1500,l),
(30,1496,l),
(210,1496,l),
(210,4,l),
(30,4,l),
(30,0,l)
);
},
{
closed = 1;
nodes = (
(980,496,l),
(980,1046,l),
(976,1046,l),
(916,912,o),
(774,778,o),
(660,778,cs),
(550,778,l),
(550,774,l),
(660,774,ls),
(774,774,o),
(916,630,o),
(976,496,c)
);
},
{
closed = 1;
nodes = (
(831,1660,o),
(925,1754,o),
(925,1880,cs),
(925,2006,o),
(831,2100,o),
(705,2100,cs),
(579,2100,o),
(485,2006,o),
(485,1880,cs),
(485,1754,o),
(579,1660,o),
(705,1660,cs)
);
}
);
};
layerId = "96DEB648-6659-45A7-975A-5247D52A4CB5";
shapes = (
{
ref = E;
},
{
pos = (204,580);
ref = dotaccentcomb;
}
);
width = 1339;
},
{
background = {
anchors = (
{
name = bottom;
pos = (706,0);
},
{
name = ogonek;
pos = (1096,0);
},
{
name = top;
pos = (704,1500);
}
);
shapes = (
{
closed = 1;
nodes = (
(1280,0,l),
(1280,450,l),
(1208,450,l),
(1148,196,o),
(980,72,o),
(708,72,cs),
(640,72,l),
(640,1428,l),
(728,1428,ls),
(962,1428,o),
(1128,1304,o),
(1188,1090,c),
(1260,1090,l),
(1260,1500,l),
(28,1500,l),
(28,1428,l),
(210,1428,l),
(210,72,l),
(28,72,l),
(28,0,l)
);
},
{
closed = 1;
nodes = (
(980,496,l),
(980,1046,l),
(906,1046,l),
(845,911,o),
(739,811,o),
(626,812,cs),
(620,812,l),
(620,740,l),
(626,740,ls),
(739,741,o),
(846,630,o),
(906,496,c)
);
},
{
closed = 1;
nodes = (
(830,1660,o),
(924,1754,o),
(924,1880,cs),
(924,2006,o),
(830,2100,o),
(704,2100,cs),
(578,2100,o),
(484,2006,o),
(484,1880,cs),
(484,1754,o),
(578,1660,o),
(704,1660,cs)
);
}
);
};
layerId = "78E0DE70-2ED7-4EA0-A1D7-377506C0A4B3";
shapes = (
{
ref = E;
},
{
pos = (204,580);
ref = dotaccentcomb;
}
);
width = 1338;
},
{
background = {
anchors = (
{
name = bottom;
pos = (646,0);
},
{
name = ogonek;
pos = (956,0);
},
{
name = top;
pos = (674,1500);
}
);
shapes = (
{
closed = 1;
nodes = (
(1189,0,l),
(1189,450,l),
(1116,450,l),
(1116,196,o),
(1049,73,o),
(776,73,cs),
(457,73,l),
(457,1427,l),
(797,1427,ls),
(1031,1427,o),
(1096,1304,o),
(1096,1090,c),
(1170,1090,l),
(1170,1500,l),
(86,1500,l),
(86,1427,l),
(267,1427,l),
(267,73,l),
(86,73,l),
(86,0,l)
);
},
{
closed = 1;
nodes = (
(830,557,l),
(830,986,l),
(756,986,l),
(756,852,o),
(689,812,o),
(576,812,cs),
(441,812,l),
(441,739,l),
(576,739,ls),
(689,739,o),
(756,691,o),
(756,557,c)
);
},
{
closed = 1;
nodes = (
(741,1849,o),
(795,1904,o),
(795,1970,cs),
(795,2036,o),
(741,2090,o),
(675,2090,cs),
(609,2090,o),
(555,2036,o),
(555,1970,cs),
(555,1904,o),
(609,1849,o),
(675,1849,cs)
);
}
);
};
layerId = master01;
shapes = (
{
ref = E;
},
{
pos = (174,580);
ref = dotaccentcomb;
}
);
width = 1305;
}
);
unicode = 278;
},
{
color = 10;
glyphname = Egrave;
lastChange = "2023-10-05 14:16:21 +0000";
layers = (
{
background = {
anchors = (
{
name = bottom;
pos = (596,0);
},
{
name = ogonek;
pos = (906,0);
},
{
name = top;
pos = (624,1500);
}
);
shapes = (
{
closed = 1;
nodes = (
(1107,0,l),
(1107,450,l),
(1103,450,l),
(1103,196,o),
(1001,4,o),
(727,4,cs),
(407,4,l),
(407,1496,l),
(747,1496,ls),
(981,1496,o),
(1083,1304,o),
(1083,1090,c),
(1086,1090,l),
(1086,1500,l),
(37,1500,l),
(37,1496,l),
(216,1496,l),
(216,4,l),
(37,4,l),
(37,0,l)
);
},
{
closed = 1;
nodes = (
(747,556,l),
(747,986,l),
(743,986,l),
(743,852,o),
(641,778,o),
(527,778,cs),
(327,778,l),
(327,774,l),
(527,774,ls),
(641,774,o),
(743,690,o),
(743,556,c)
);
},
{
closed = 1;
nodes = (
(698,1696,l),
(507,1926,ls),
(470,1971,o),
(414,1948,o),
(395,1915,cs),
(376,1882,o),
(388,1832,o),
(422,1817,cs),
(696,1693,l)
);
}
);
};
layerId = "131D8093-96F9-49D1-BC5C-300C1D47CA92";
shapes = (
{
ref = E;
},
{
pos = (42,0);
ref = gravecomb;
}
);
width = 1165;
},
{
background = {
anchors = (
{
name = bottom;
pos = (706,0);
},
{
name = ogonek;
pos = (1076,0);
},
{
name = top;
pos = (704,1500);
}
);
shapes = (
{
closed = 1;
nodes = (
(1280,0,l),
(1280,450,l),
(1276,450,l),
(1216,196,o),
(1014,4,o),
(740,4,cs),
(640,4,l),
(640,1496,l),
(760,1496,ls),
(994,1496,o),
(1196,1304,o),
(1256,1090,c),
(1260,1090,l),
(1260,1500,l),
(30,1500,l),
(30,1496,l),
(210,1496,l),
(210,4,l),
(30,4,l),
(30,0,l)
);
},
{
closed = 1;
nodes = (
(980,496,l),
(980,1046,l),
(976,1046,l),
(916,912,o),
(774,778,o),
(660,778,cs),
(550,778,l),
(550,774,l),
(660,774,ls),
(774,774,o),
(916,630,o),
(976,496,c)
);
},
{
closed = 1;
nodes = (
(826,1683,l),
(687,1956,ls),
(611,2104,o),
(436,2079,o),
(382,2001,cs),
(316,1905,o),
(372,1739,o),
(532,1718,cs),
(824,1680,l)
);
}
);
};
layerId = "96DEB648-6659-45A7-975A-5247D52A4CB5";
shapes = (
{
ref = E;
},
{
pos = (90,0);
ref = gravecomb;
}
);
width = 1339;
},
{
background = {
anchors = (
{
name = bottom;
pos = (706,0);
},
{
name = ogonek;
pos = (1096,0);
},
{
name = top;
pos = (704,1500);
}
);
shapes = (
{
closed = 1;
nodes = (
(1280,0,l),
(1280,450,l),
(1208,450,l),
(1148,196,o),
(980,72,o),
(708,72,cs),
(640,72,l),
(640,1428,l),
(728,1428,ls),
(962,1428,o),
(1128,1304,o),
(1188,1090,c),
(1260,1090,l),
(1260,1500,l),
(28,1500,l),
(28,1428,l),
(210,1428,l),
(210,72,l),
(28,72,l),
(28,0,l)
);
},
{
closed = 1;
nodes = (
(980,496,l),
(980,1046,l),
(906,1046,l),
(845,911,o),
(739,811,o),
(626,812,cs),
(620,812,l),
(620,740,l),
(626,740,ls),
(739,741,o),
(846,630,o),
(906,496,c)
);
},
{
closed = 1;
nodes = (
(836,1708,l),
(687,1956,ls),
(601,2099,o),
(435,2079,o),
(382,2001,cs),
(316,1905,o),
(374,1752,o),
(532,1718,cs),
(804,1660,l)
);
}
);
};
layerId = "78E0DE70-2ED7-4EA0-A1D7-377506C0A4B3";
shapes = (
{
ref = E;
},
{
pos = (95,0);
ref = gravecomb;
}
);
width = 1338;
},
{
background = {
anchors = (
{
name = bottom;
pos = (646,0);
},
{
name = ogonek;
pos = (956,0);
},
{
name = top;
pos = (674,1500);
}
);
shapes = (
{
closed = 1;
nodes = (
(1189,0,l),
(1189,450,l),
(1116,450,l),
(1116,196,o),
(1049,73,o),
(776,73,cs),
(457,73,l),
(457,1427,l),
(797,1427,ls),
(1031,1427,o),
(1096,1304,o),
(1096,1090,c),
(1170,1090,l),
(1170,1500,l),
(86,1500,l),
(86,1427,l),
(267,1427,l),
(267,73,l),
(86,73,l),
(86,0,l)
);
},
{
closed = 1;
nodes = (
(830,557,l),
(830,986,l),
(756,986,l),
(756,852,o),
(689,812,o),
(576,812,cs),
(441,812,l),
(441,739,l),
(576,739,ls),
(689,739,o),
(756,691,o),
(756,557,c)
);
},
{
closed = 1;
nodes = (
(769,1719,l),
(557,1926,ls),
(515,1967,o),
(464,1948,o),
(445,1915,cs),
(426,1882,o),
(440,1836,o),
(472,1817,cs),
(724,1670,l)
);
}
);
};
layerId = master01;
shapes = (
{
ref = E;
},
{
pos = (103,0);
ref = gravecomb;
}
);
width = 1305;
}
);
unicode = 200;
},
{
color = 10;
glyphname = Emacron;
lastChange = "2023-10-05 14:16:21 +0000";
layers = (
{
background = {
anchors = (
{
name = bottom;
pos = (596,0);
},
{
name = ogonek;
pos = (906,0);
},
{
name = top;
pos = (624,1500);
}
);
shapes = (
{
closed = 1;
nodes = (
(1107,0,l),
(1107,450,l),
(1103,450,l),
(1103,196,o),
(1001,4,o),
(727,4,cs),
(407,4,l),
(407,1496,l),
(747,1496,ls),
(981,1496,o),
(1083,1304,o),
(1083,1090,c),
(1086,1090,l),
(1086,1500,l),
(37,1500,l),
(37,1496,l),
(216,1496,l),
(216,4,l),
(37,4,l),
(37,0,l)
);
},
{
closed = 1;
nodes = (
(747,556,l),
(747,986,l),
(743,986,l),
(743,852,o),
(641,778,o),
(527,778,cs),
(327,778,l),
(327,774,l),
(527,774,ls),
(641,774,o),
(743,690,o),
(743,556,c)
);
},
{
closed = 1;
nodes = (
(864,1700,l),
(864,1704,l),
(384,1704,l),
(384,1700,l)
);
}
);
};
layerId = "131D8093-96F9-49D1-BC5C-300C1D47CA92";
shapes = (
{
ref = E;
},
{
pos = (124,0);
ref = macroncomb;
}
);
width = 1165;
},
{
background = {
anchors = (
{
name = bottom;
pos = (706,0);
},
{
name = ogonek;
pos = (1076,0);
},
{
name = top;
pos = (704,1500);
}
);
shapes = (
{
closed = 1;
nodes = (
(1280,0,l),
(1280,450,l),
(1276,450,l),
(1216,196,o),
(1014,4,o),
(740,4,cs),
(640,4,l),
(640,1496,l),
(760,1496,ls),
(994,1496,o),
(1196,1304,o),
(1256,1090,c),
(1260,1090,l),
(1260,1500,l),
(30,1500,l),
(30,1496,l),
(210,1496,l),
(210,4,l),
(30,4,l),
(30,0,l)
);
},
{
closed = 1;
nodes = (
(980,496,l),
(980,1046,l),
(976,1046,l),
(916,912,o),
(774,778,o),
(660,778,cs),
(550,778,l),
(550,774,l),
(660,774,ls),
(774,774,o),
(916,630,o),
(976,496,c)
);
},
{
closed = 1;
nodes = (
(944,1700,l),
(944,1704,l),
(464,1704,l),
(464,1700,l)
);
}
);
};
layerId = "96DEB648-6659-45A7-975A-5247D52A4CB5";
shapes = (
{
ref = E;
},
{
pos = (204,0);
ref = macroncomb;
}
);
width = 1339;
},
{
background = {
anchors = (
{
name = bottom;
pos = (706,0);
},
{
name = ogonek;
pos = (1096,0);
},
{
name = top;
pos = (704,1500);
}
);
shapes = (
{
closed = 1;
nodes = (
(1280,0,l),
(1280,450,l),
(1208,450,l),
(1148,196,o),
(980,72,o),
(708,72,cs),
(640,72,l),
(640,1428,l),
(728,1428,ls),
(962,1428,o),
(1128,1304,o),
(1188,1090,c),
(1260,1090,l),
(1260,1500,l),
(28,1500,l),
(28,1428,l),
(210,1428,l),
(210,72,l),
(28,72,l),
(28,0,l)
);
},
{
closed = 1;
nodes = (
(980,496,l),
(980,1046,l),
(906,1046,l),
(845,911,o),
(739,811,o),
(626,812,cs),
(620,812,l),
(620,740,l),
(626,740,ls),
(739,741,o),
(846,630,o),
(906,496,c)
);
},
{
closed = 1;
nodes = (
(944,1700,l),
(944,1772,l),
(464,1772,l),
(464,1700,l)
);
}
);
};
layerId = "78E0DE70-2ED7-4EA0-A1D7-377506C0A4B3";
shapes = (
{
ref = E;
},
{
pos = (204,0);
ref = macroncomb;
}
);
width = 1338;
},
{
background = {
anchors = (
{
name = bottom;
pos = (646,0);
},
{
name = ogonek;
pos = (956,0);
},
{
name = top;
pos = (674,1500);
}
);
shapes = (
{
closed = 1;
nodes = (
(1189,0,l),
(1189,450,l),
(1116,450,l),
(1116,196,o),
(1049,73,o),
(776,73,cs),
(457,73,l),
(457,1427,l),
(797,1427,ls),
(1031,1427,o),
(1096,1304,o),
(1096,1090,c),
(1170,1090,l),
(1170,1500,l),
(86,1500,l),
(86,1427,l),
(267,1427,l),
(267,73,l),
(86,73,l),
(86,0,l)
);
},
{
closed = 1;
nodes = (
(830,557,l),
(830,986,l),
(756,986,l),
(756,852,o),
(689,812,o),
(576,812,cs),
(441,812,l),
(441,739,l),
(576,739,ls),
(689,739,o),
(756,691,o),
(756,557,c)
);
},
{
closed = 1;
nodes = (
(914,1700,l),
(914,1772,l),
(434,1772,l),
(434,1700,l)
);
}
);
};
layerId = master01;
shapes = (
{
ref = E;
},
{
pos = (174,0);
ref = macroncomb;
}
);
width = 1305;
}
);
unicode = 274;
},
{
color = 10;
glyphname = Eogonek;
lastChange = "2023-10-05 14:16:21 +0000";
layers = (
{
background = {
anchors = (
{
name = bottom;
pos = (596,0);
},
{
name = ogonek;
pos = (906,0);
},
{
name = top;
pos = (624,1500);
}
);
shapes = (
{
closed = 1;
nodes = (
(1107,0,l),
(1107,450,l),
(1103,450,l),
(1103,196,o),
(1001,4,o),
(727,4,cs),
(407,4,l),
(407,1496,l),
(747,1496,ls),
(981,1496,o),
(1083,1304,o),
(1083,1090,c),
(1086,1090,l),
(1086,1500,l),
(37,1500,l),
(37,1496,l),
(216,1496,l),
(216,4,l),
(37,4,l),
(37,0,l)
);
},
{
closed = 1;
nodes = (
(747,556,l),
(747,986,l),
(743,986,l),
(743,852,o),
(641,778,o),
(527,778,cs),
(327,778,l),
(327,774,l),
(527,774,ls),
(641,774,o),
(743,690,o),
(743,556,c)
);
},
{
closed = 1;
nodes = (
(1031,-419,o),
(1089,-329,o),
(1119,-273,c),
(1117,-271,l),
(1079,-333,o),
(1045,-383,o),
(973,-383,cs),
(905,-383,o),
(859,-311,o),
(859,-217,cs),
(859,-91,o),
(893,1,o),
(955,35,c),
(951,39,l),
(829,-1,o),
(673,-87,o),
(673,-247,cs),
(673,-367,o),
(787,-419,o),
(889,-419,cs)
);
}
);
};
layerId = "131D8093-96F9-49D1-BC5C-300C1D47CA92";
shapes = (
{
ref = E;
},
{
pos = (396,-47);
ref = ogonekcomb;
}
);
width = 1165;
},
{
background = {
anchors = (
{
name = bottom;
pos = (706,0);
},
{
name = ogonek;
pos = (1076,0);
},
{
name = top;
pos = (704,1500);
}
);
shapes = (
{
closed = 1;
nodes = (
(1280,0,l),
(1280,450,l),
(1276,450,l),
(1216,196,o),
(1014,4,o),
(740,4,cs),
(640,4,l),
(640,1496,l),
(760,1496,ls),
(994,1496,o),
(1196,1304,o),
(1256,1090,c),
(1260,1090,l),
(1260,1500,l),
(30,1500,l),
(30,1496,l),
(210,1496,l),
(210,4,l),
(30,4,l),
(30,0,l)
);
},
{
closed = 1;
nodes = (
(980,496,l),
(980,1046,l),
(976,1046,l),
(916,912,o),
(774,778,o),
(660,778,cs),
(550,778,l),
(550,774,l),
(660,774,ls),
(774,774,o),
(916,630,o),
(976,496,c)
);
},
{
closed = 1;
nodes = (
(1171,-474,o),
(1209,-384,o),
(1239,-328,c),
(1237,-326,l),
(1207,-384,o),
(1181,-422,o),
(1137,-422,cs),
(1089,-422,o),
(1039,-366,o),
(1039,-232,cs),
(1039,-86,o),
(1091,6,o),
(1113,20,c),
(1111,24,l),
(929,-26,o),
(693,-142,o),
(693,-302,cs),
(693,-422,o),
(807,-474,o),
(969,-474,cs)
);
}
);
};
layerId = "96DEB648-6659-45A7-975A-5247D52A4CB5";
shapes = (
{
ref = E;
},
{
pos = (466,-37);
ref = ogonekcomb;
}
);
width = 1339;
},
{
background = {
anchors = (
{
name = bottom;
pos = (706,0);
},
{
name = ogonek;
pos = (1096,0);
},
{
name = top;
pos = (704,1500);
}
);
shapes = (
{
closed = 1;
nodes = (
(1280,0,l),
(1280,450,l),
(1208,450,l),
(1148,196,o),
(980,72,o),
(708,72,cs),
(640,72,l),
(640,1428,l),
(728,1428,ls),
(962,1428,o),
(1128,1304,o),
(1188,1090,c),
(1260,1090,l),
(1260,1500,l),
(28,1500,l),
(28,1428,l),
(210,1428,l),
(210,72,l),
(28,72,l),
(28,0,l)
);
},
{
closed = 1;
nodes = (
(980,496,l),
(980,1046,l),
(906,1046,l),
(845,911,o),
(739,811,o),
(626,812,cs),
(620,812,l),
(620,740,l),
(626,740,ls),
(739,741,o),
(846,630,o),
(906,496,c)
);
},
{
closed = 1;
nodes = (
(1191,-474,o),
(1231,-384,o),
(1259,-328,c),
(1197,-300,l),
(1179,-332,o),
(1163,-358,o),
(1127,-358,cs),
(1087,-358,o),
(1059,-320,o),
(1059,-235,cs),
(1059,-109,o),
(1119,-12,o),
(1139,2,c),
(1121,54,l),
(939,4,o),
(713,-142,o),
(713,-302,cs),
(713,-422,o),
(827,-474,o),
(989,-474,cs)
);
}
);
};
layerId = "78E0DE70-2ED7-4EA0-A1D7-377506C0A4B3";
shapes = (
{
ref = E;
},
{
pos = (486,-37);
ref = ogonekcomb;
}
);
width = 1338;
},
{
background = {
anchors = (
{
name = bottom;
pos = (646,0);
},
{
name = ogonek;
pos = (956,0);
},
{
name = top;
pos = (674,1500);
}
);
shapes = (
{
closed = 1;
nodes = (
(1189,0,l),
(1189,450,l),
(1116,450,l),
(1116,196,o),
(1049,73,o),
(776,73,cs),
(457,73,l),
(457,1427,l),
(797,1427,ls),
(1031,1427,o),
(1096,1304,o),
(1096,1090,c),
(1170,1090,l),
(1170,1500,l),
(86,1500,l),
(86,1427,l),
(267,1427,l),
(267,73,l),
(86,73,l),
(86,0,l)
);
},
{
closed = 1;
nodes = (
(830,557,l),
(830,986,l),
(756,986,l),
(756,852,o),
(689,812,o),
(576,812,cs),
(441,812,l),
(441,739,l),
(576,739,ls),
(689,739,o),
(756,691,o),
(756,557,c)
);
},
{
closed = 1;
nodes = (
(1082,-419,o),
(1139,-331,o),
(1168,-274,c),
(1121,-242,l),
(1100,-284,o),
(1061,-322,o),
(1004,-322,cs),
(936,-322,o),
(909,-271,o),
(909,-197,cs),
(909,-111,o),
(964,-34,o),
(1026,0,c),
(1005,38,l),
(881,-2,o),
(723,-88,o),
(723,-247,cs),
(723,-367,o),
(837,-419,o),
(939,-419,cs)
);
}
);
};
layerId = master01;
shapes = (
{
ref = E;
},
{
pos = (445,-47);
ref = ogonekcomb;
}
);
width = 1305;
}
);
unicode = 280;
},
{
color = (0,171,232,255);
glyphname = F;
lastChange = "2023-10-06 08:49:31 +0000";
layers = (
{
anchors = (
{
name = bottom;
pos = (317,0);
},
{
name = top;
pos = (624,1500);
}
);
background = {
anchors = (
{
name = bottom;
pos = (317,0);
},
{
name = top;
pos = (624,1500);
}
);
shapes = (
{
closed = 1;
nodes = (
(766,536,l),
(766,946,l),
(762,946,l),
(762,812,o),
(671,748,o),
(497,748,cs),
(367,748,l),
(367,744,l),
(497,744,ls),
(671,744,o),
(762,670,o),
(762,536,c)
);
},
{
closed = 1;
nodes = (
(37,1500,l),
(37,1496,l),
(216,1496,l),
(216,4,l),
(37,4,l),
(37,0,l),
(607,0,l),
(607,4,l),
(407,4,l),
(407,1496,l),
(727,1496,ls),
(961,1496,o),
(1063,1304,o),
(1063,1090,c),
(1067,1090,l),
(1067,1500,l)
);
}
);
};
layerId = "131D8093-96F9-49D1-BC5C-300C1D47CA92";
shapes = (
{
closed = 1;
nodes = (
(766,536,l),
(766,946,l),
(762,946,l),
(762,812,o),
(671,748,o),
(497,748,cs),
(367,748,l),
(367,744,l),
(497,744,ls),
(671,744,o),
(762,670,o),
(762,536,c)
);
},
{
closed = 1;
nodes = (
(37,1500,l),
(37,1496,l),
(216,1496,l),
(216,4,l),
(37,4,l),
(37,0,l),
(607,0,l),
(607,4,l),
(407,4,l),
(407,1496,l),
(727,1496,ls),
(961,1496,o),
(1063,1304,o),
(1063,1090,c),
(1067,1090,l),
(1067,1500,l)
);
}
);
width = 1125;
},
{
anchors = (
{
name = bottom;
pos = (416,0);
},
{
name = top;
pos = (684,1500);
}
);
background = {
anchors = (
{
name = bottom;
pos = (416,0);
},
{
name = top;
pos = (684,1500);
}
);
shapes = (
{
closed = 1;
nodes = (
(960,456,l),
(960,1026,l),
(956,1026,l),
(896,892,o),
(784,748,o),
(650,748,cs),
(520,748,l),
(520,744,l),
(650,744,ls),
(784,744,o),
(896,590,o),
(956,456,c)
);
},
{
closed = 1;
nodes = (
(30,1500,l),
(30,1496,l),
(210,1496,l),
(210,4,l),
(30,4,l),
(30,0,l),
(840,0,l),
(840,4,l),
(640,4,l),
(640,1496,l),
(780,1496,ls),
(994,1496,o),
(1156,1304,o),
(1216,1090,c),
(1220,1090,l),
(1220,1500,l)
);
}
);
};
layerId = "96DEB648-6659-45A7-975A-5247D52A4CB5";
shapes = (
{
closed = 1;
nodes = (
(960,456,l),
(960,1026,l),
(956,1026,l),
(896,892,o),
(784,748,o),
(650,748,cs),
(520,748,l),
(520,744,l),
(650,744,ls),
(784,744,o),
(896,590,o),
(956,456,c)
);
},
{
closed = 1;
nodes = (
(30,1500,l),
(30,1496,l),
(210,1496,l),
(210,4,l),
(30,4,l),
(30,0,l),
(840,0,l),
(840,4,l),
(640,4,l),
(640,1496,l),
(780,1496,ls),
(994,1496,o),
(1156,1304,o),
(1216,1090,c),
(1220,1090,l),
(1220,1500,l)
);
}
);
width = 1279;
},
{
anchors = (
{
name = bottom;
pos = (416,0);
},
{
name = top;
pos = (684,1500);
}
);
background = {
anchors = (
{
name = bottom;
pos = (416,0);
},
{
name = top;
pos = (684,1500);
}
);
shapes = (
{
closed = 1;
nodes = (
(960,456,l),
(960,1024,l),
(888,1024,l),
(828,890,o),
(750,784,o),
(616,784,cs),
(486,784,l),
(486,708,l),
(616,708,ls),
(750,708,o),
(828,590,o),
(888,456,c)
);
},
{
closed = 1;
nodes = (
(28,1500,l),
(28,1428,l),
(210,1428,l),
(210,72,l),
(28,72,l),
(28,0,l),
(840,0,l),
(840,72,l),
(640,72,l),
(640,1428,l),
(746,1428,ls),
(960,1428,o),
(1086,1304,o),
(1146,1090,c),
(1220,1090,l),
(1220,1500,l)
);
}
);
};
layerId = "78E0DE70-2ED7-4EA0-A1D7-377506C0A4B3";
shapes = (
{
closed = 1;
nodes = (
(960,456,l),
(960,1024,l),
(888,1024,l),
(828,890,o),
(750,784,o),
(616,784,cs),
(486,784,l),
(486,708,l),
(616,708,ls),
(750,708,o),
(828,590,o),
(888,456,c)
);
},
{
closed = 1;
nodes = (
(28,1500,l),
(28,1428,l),
(210,1428,l),
(210,72,l),
(28,72,l),
(28,0,l),
(840,0,l),
(840,72,l),
(640,72,l),
(640,1428,l),
(746,1428,ls),
(960,1428,o),
(1086,1304,o),
(1146,1090,c),
(1220,1090,l),
(1220,1500,l)
);
}
);
width = 1278;
},
{
anchors = (
{
name = bottom;
pos = (376,0);
},
{
name = top;
pos = (674,1500);
}
);
background = {
anchors = (
{
name = bottom;
pos = (376,0);
},
{
name = top;
pos = (674,1500);
}
);
shapes = (
{
closed = 1;
nodes = (
(850,536,l),
(850,945,l),
(776,945,l),
(776,811,o),
(721,782,o),
(547,782,cs),
(416,782,l),
(416,710,l),
(547,710,ls),
(721,710,o),
(776,670,o),
(776,536,c)
);
},
{
closed = 1;
nodes = (
(86,1500,l),
(86,1427,l),
(267,1427,l),
(267,73,l),
(86,73,l),
(86,0,l),
(656,0,l),
(656,73,l),
(457,73,l),
(457,1427,l),
(776,1427,ls),
(1010,1427,o),
(1076,1304,o),
(1076,1090,c),
(1149,1090,l),
(1149,1500,l)
);
}
);
};
layerId = master01;
shapes = (
{
closed = 1;
nodes = (
(850,536,l),
(850,945,l),
(776,945,l),
(776,811,o),
(721,782,o),
(547,782,cs),
(416,782,l),
(416,710,l),
(547,710,ls),
(721,710,o),
(776,670,o),
(776,536,c)
);
},
{
closed = 1;
nodes = (
(86,1500,l),
(86,1427,l),
(267,1427,l),
(267,73,l),
(86,73,l),
(86,0,l),
(656,0,l),
(656,73,l),
(457,73,l),
(457,1427,l),
(776,1427,ls),
(1010,1427,o),
(1076,1304,o),
(1076,1090,c),
(1149,1090,l),
(1149,1500,l)
);
}
);
width = 1265;
}
);
unicode = 70;
},
{
color = (0,171,232,255);
glyphname = G;
lastChange = "2023-10-06 08:49:31 +0000";
layers = (
{
anchors = (
{
name = bottom;
pos = (737,0);
},
{
name = cedilla;
pos = (736,0);
},
{
name = top;
pos = (766,1500);
}
);
background = {
anchors = (
{
name = bottom;
pos = (737,0);
},
{
name = cedilla;
pos = (736,0);
},
{
name = top;
pos = (766,1500);
}
);
shapes = (
{
closed = 1;
nodes = (
(863,568,l),
(1073,568,l),
(1073,250,l),
(1053,206,o),
(981,-16,o),
(733,-16,cs),
(395,-16,o),
(313,386,o),
(313,750,cs),
(313,1114,o),
(435,1510,o),
(783,1510,cs),
(1013,1510,o),
(1229,1338,o),
(1229,1090,c),
(1233,1090,l),
(1233,1500,l),
(1229,1500,l),
(1107,1385,l),
(1020,1469,o),
(897,1520,o),
(763,1520,cs),
(357,1520,o),
(83,1196,o),
(83,750,cs),
(83,304,o),
(317,-20,o),
(733,-20,cs),
(1059,-20,o),
(1223,204,o),
(1283,330,c),
(1283,568,l),
(1403,568,l),
(1403,572,l),
(863,572,l)
);
}
);
};
layerId = "131D8093-96F9-49D1-BC5C-300C1D47CA92";
shapes = (
{
closed = 1;
nodes = (
(863,568,l),
(1073,568,l),
(1073,250,l),
(1053,206,o),
(981,-16,o),
(733,-16,cs),
(395,-16,o),
(313,386,o),
(313,750,cs),
(313,1114,o),
(435,1510,o),
(783,1510,cs),
(1013,1510,o),
(1229,1338,o),
(1229,1090,c),
(1233,1090,l),
(1233,1500,l),
(1229,1500,l),
(1107,1385,l),
(1020,1469,o),
(897,1520,o),
(763,1520,cs),
(357,1520,o),
(83,1196,o),
(83,750,cs),
(83,304,o),
(317,-20,o),
(733,-20,cs),
(1059,-20,o),
(1223,204,o),
(1283,330,c),
(1283,568,l),
(1403,568,l),
(1403,572,l),
(863,572,l)
);
}
);
width = 1422;
},
{
anchors = (
{
name = bottom;
pos = (851,0);
},
{
name = cedilla;
pos = (851,0);
},
{
name = top;
pos = (879,1500);
}
);
background = {
anchors = (
{
name = bottom;
pos = (851,0);
},
{
name = cedilla;
pos = (851,0);
},
{
name = top;
pos = (879,1500);
}
);
shapes = (
{
closed = 1;
nodes = (
(840,568,l),
(1050,568,l),
(1050,250,l),
(1010,126,o),
(938,-16,o),
(850,-16,cs),
(612,-16,o),
(550,386,o),
(550,750,cs),
(550,1114,o),
(662,1508,o),
(910,1508,cs),
(1164,1508,o),
(1366,1214,o),
(1446,1030,c),
(1450,1030,l),
(1450,1500,l),
(1446,1500,l),
(1156,1423,l),
(1073,1483,o),
(980,1520,o),
(880,1520,cs),
(474,1520,o),
(80,1236,o),
(80,750,cs),
(80,264,o),
(374,-20,o),
(850,-20,cs),
(1176,-20,o),
(1300,144,o),
(1500,290,c),
(1500,568,l),
(1580,568,l),
(1580,572,l),
(840,572,l)
);
}
);
};
layerId = "96DEB648-6659-45A7-975A-5247D52A4CB5";
shapes = (
{
closed = 1;
nodes = (
(840,568,l),
(1050,568,l),
(1050,250,l),
(1010,126,o),
(938,-16,o),
(850,-16,cs),
(612,-16,o),
(550,386,o),
(550,750,cs),
(550,1114,o),
(662,1508,o),
(910,1508,cs),
(1164,1508,o),
(1366,1214,o),
(1446,1030,c),
(1450,1030,l),
(1450,1500,l),
(1446,1500,l),
(1156,1423,l),
(1073,1483,o),
(980,1520,o),
(880,1520,cs),
(474,1520,o),
(80,1236,o),
(80,750,cs),
(80,264,o),
(374,-20,o),
(850,-20,cs),
(1176,-20,o),
(1300,144,o),
(1500,290,c),
(1500,568,l),
(1580,568,l),
(1580,572,l),
(840,572,l)
);
}
);
width = 1599;
},
{
anchors = (
{
name = bottom;
pos = (851,0);
},
{
name = cedilla;
pos = (851,0);
},
{
name = top;
pos = (879,1500);
}
);
background = {
anchors = (
{
name = bottom;
pos = (851,0);
},
{
name = cedilla;
pos = (851,0);
},
{
name = top;
pos = (879,1500);
}
);
shapes = (
{
closed = 1;
nodes = (
(840,532,l),
(1050,532,l),
(1050,250,l),
(1010,126,o),
(938,48,o),
(850,48,cs),
(612,48,o),
(550,386,o),
(550,750,cs),
(550,1114,o),
(672,1428,o),
(920,1428,cs),
(1168,1428,o),
(1296,1212,o),
(1376,1028,c),
(1450,1028,l),
(1450,1500,l),
(1388,1500,l),
(1171,1430,l),
(1079,1486,o),
(975,1520,o),
(880,1520,cs),
(474,1520,o),
(80,1236,o),
(80,750,cs),
(80,264,o),
(374,-20,o),
(850,-20,cs),
(1176,-20,o),
(1300,144,o),
(1500,290,c),
(1500,532,l),
(1580,532,l),
(1580,606,l),
(840,606,l)
);
}
);
};
layerId = "78E0DE70-2ED7-4EA0-A1D7-377506C0A4B3";
shapes = (
{
closed = 1;
nodes = (
(840,532,l),
(1050,532,l),
(1050,250,l),
(1010,126,o),
(938,48,o),
(850,48,cs),
(612,48,o),
(550,386,o),
(550,750,cs),
(550,1114,o),
(672,1428,o),
(920,1428,cs),
(1168,1428,o),
(1296,1212,o),
(1376,1028,c),
(1450,1028,l),
(1450,1500,l),
(1388,1500,l),
(1171,1430,l),
(1079,1486,o),
(975,1520,o),
(880,1520,cs),
(474,1520,o),
(80,1236,o),
(80,750,cs),
(80,264,o),
(374,-20,o),
(850,-20,cs),
(1176,-20,o),
(1300,144,o),
(1500,290,c),
(1500,532,l),
(1580,532,l),
(1580,606,l),
(840,606,l)
);
}
);
width = 1598;
},
{
anchors = (
{
name = bottom;
pos = (787,0);
},
{
name = cedilla;
pos = (786,0);
},
{
name = top;
pos = (816,1500);
}
);
background = {
anchors = (
{
name = bottom;
pos = (787,0);
},
{
name = cedilla;
pos = (786,0);
},
{
name = top;
pos = (816,1500);
}
);
shapes = (
{
closed = 1;
nodes = (
(916,529,l),
(1127,529,l),
(1127,250,l),
(1107,206,o),
(1035,54,o),
(787,54,cs),
(449,54,o),
(366,387,o),
(366,750,cs),
(366,1113,o),
(488,1437,o),
(836,1437,cs),
(1044,1437,o),
(1226,1315,o),
(1246,1090,c),
(1320,1090,l),
(1320,1500,l),
(1256,1500,l),
(1168,1394,l),
(1073,1473,o),
(946,1520,o),
(816,1520,cs),
(410,1520,o),
(137,1195,o),
(137,750,cs),
(137,305,o),
(371,-20,o),
(787,-20,cs),
(1113,-20,o),
(1275,204,o),
(1336,330,c),
(1336,529,l),
(1457,529,l),
(1457,611,l),
(916,611,l)
);
}
);
};
layerId = master01;
shapes = (
{
closed = 1;
nodes = (
(916,529,l),
(1127,529,l),
(1127,250,l),
(1107,206,o),
(1035,54,o),
(787,54,cs),
(449,54,o),
(366,387,o),
(366,750,cs),
(366,1113,o),
(488,1437,o),
(836,1437,cs),
(1044,1437,o),
(1226,1315,o),
(1246,1090,c),
(1320,1090,l),
(1320,1500,l),
(1256,1500,l),
(1168,1394,l),
(1073,1473,o),
(946,1520,o),
(816,1520,cs),
(410,1520,o),
(137,1195,o),
(137,750,cs),
(137,305,o),
(371,-20,o),
(787,-20,cs),
(1113,-20,o),
(1275,204,o),
(1336,330,c),
(1336,529,l),
(1457,529,l),
(1457,611,l),
(916,611,l)
);
}
);
width = 1532;
}
);
unicode = 71;
},
{
color = 10;
glyphname = Gbreve;
lastChange = "2023-10-05 14:16:21 +0000";
layers = (
{
background = {
anchors = (
{
name = bottom;
pos = (737,0);
},
{
name = cedilla;
pos = (736,0);
},
{
name = top;
pos = (766,1500);
}
);
shapes = (
{
closed = 1;
nodes = (
(863,568,l),
(1073,568,l),
(1073,250,l),
(1053,206,o),
(981,-16,o),
(733,-16,cs),
(395,-16,o),
(313,386,o),
(313,750,cs),
(313,1114,o),
(435,1510,o),
(783,1510,cs),
(1013,1510,o),
(1229,1338,o),
(1229,1090,c),
(1233,1090,l),
(1233,1500,l),
(1229,1500,l),
(1107,1385,l),
(1020,1469,o),
(897,1520,o),
(763,1520,cs),
(357,1520,o),
(83,1196,o),
(83,750,cs),
(83,304,o),
(317,-20,o),
(733,-20,cs),
(1059,-20,o),
(1223,204,o),
(1283,330,c),
(1283,568,l),
(1403,568,l),
(1403,572,l),
(863,572,l)
);
},
{
closed = 1;
nodes = (
(946,1680,o),
(986,1816,o),
(986,1938,c),
(982,1938,l),
(982,1840,o),
(874,1790,o),
(766,1790,cs),
(658,1790,o),
(550,1840,o),
(550,1938,c),
(546,1938,l),
(546,1816,o),
(586,1680,o),
(766,1680,cs)
);
}
);
};
layerId = "131D8093-96F9-49D1-BC5C-300C1D47CA92";
shapes = (
{
ref = G;
},
{
pos = (266,0);
ref = brevecomb;
}
);
width = 1422;
},
{
background = {
anchors = (
{
name = bottom;
pos = (851,0);
},
{
name = cedilla;
pos = (851,0);
},
{
name = top;
pos = (879,1500);
}
);
shapes = (
{
closed = 1;
nodes = (
(840,568,l),
(1050,568,l),
(1050,250,l),
(1010,126,o),
(938,-16,o),
(850,-16,cs),
(612,-16,o),
(550,386,o),
(550,750,cs),
(550,1114,o),
(662,1508,o),
(910,1508,cs),
(1164,1508,o),
(1366,1214,o),
(1446,1030,c),
(1450,1030,l),
(1450,1500,l),
(1446,1500,l),
(1156,1423,l),
(1073,1483,o),
(980,1520,o),
(880,1520,cs),
(474,1520,o),
(80,1236,o),
(80,750,cs),
(80,264,o),
(374,-20,o),
(850,-20,cs),
(1176,-20,o),
(1300,144,o),
(1500,290,c),
(1500,568,l),
(1580,568,l),
(1580,572,l),
(840,572,l)
);
},
{
closed = 1;
nodes = (
(1039,1680,o),
(1139,1796,o),
(1139,2058,c),
(1135,2058,l),
(1135,1970,o),
(987,1950,o),
(879,1950,cs),
(771,1950,o),
(623,1970,o),
(623,2058,c),
(619,2058,l),
(619,1796,o),
(719,1680,o),
(879,1680,cs)
);
}
);
};
layerId = "96DEB648-6659-45A7-975A-5247D52A4CB5";
shapes = (
{
ref = G;
},
{
pos = (379,0);
ref = brevecomb;
}
);
width = 1599;
},
{
background = {
anchors = (
{
name = bottom;
pos = (851,0);
},
{
name = cedilla;
pos = (851,0);
},
{
name = top;
pos = (879,1500);
}
);
shapes = (
{
closed = 1;
nodes = (
(840,532,l),
(1050,532,l),
(1050,250,l),
(1010,126,o),
(938,48,o),
(850,48,cs),
(612,48,o),
(550,386,o),
(550,750,cs),
(550,1114,o),
(672,1428,o),
(920,1428,cs),
(1168,1428,o),
(1296,1212,o),
(1376,1028,c),
(1450,1028,l),
(1450,1500,l),
(1388,1500,l),
(1171,1430,l),
(1079,1486,o),
(975,1520,o),
(880,1520,cs),
(474,1520,o),
(80,1236,o),
(80,750,cs),
(80,264,o),
(374,-20,o),
(850,-20,cs),
(1176,-20,o),
(1300,144,o),
(1500,290,c),
(1500,532,l),
(1580,532,l),
(1580,606,l),
(840,606,l)
);
},
{
closed = 1;
nodes = (
(1039,1680,o),
(1139,1796,o),
(1139,2058,c),
(1067,2058,l),
(1067,1970,o),
(987,1950,o),
(879,1950,cs),
(771,1950,o),
(691,1970,o),
(691,2058,c),
(619,2058,l),
(619,1796,o),
(719,1680,o),
(879,1680,cs)
);
}
);
};
layerId = "78E0DE70-2ED7-4EA0-A1D7-377506C0A4B3";
shapes = (
{
ref = G;
},
{
pos = (379,0);
ref = brevecomb;
}
);
width = 1598;
},
{
background = {
anchors = (
{
name = bottom;
pos = (787,0);
},
{
name = cedilla;
pos = (786,0);
},
{
name = top;
pos = (816,1500);
}
);
shapes = (
{
closed = 1;
nodes = (
(916,529,l),
(1127,529,l),
(1127,250,l),
(1107,206,o),
(1035,54,o),
(787,54,cs),
(449,54,o),
(366,387,o),
(366,750,cs),
(366,1113,o),
(488,1437,o),
(836,1437,cs),
(1044,1437,o),
(1226,1315,o),
(1246,1090,c),
(1320,1090,l),
(1320,1500,l),
(1256,1500,l),
(1168,1394,l),
(1073,1473,o),
(946,1520,o),
(816,1520,cs),
(410,1520,o),
(137,1195,o),
(137,750,cs),
(137,305,o),
(371,-20,o),
(787,-20,cs),
(1113,-20,o),
(1275,204,o),
(1336,330,c),
(1336,529,l),
(1457,529,l),
(1457,611,l),
(916,611,l)
);
},
{
closed = 1;
nodes = (
(996,1680,o),
(1037,1816,o),
(1037,1938,c),
(997,1938,l),
(997,1840,o),
(923,1790,o),
(816,1790,cs),
(709,1790,o),
(637,1840,o),
(637,1938,c),
(598,1938,l),
(598,1816,o),
(636,1680,o),
(816,1680,cs)
);
}
);
};
layerId = master01;
shapes = (
{
ref = G;
},
{
pos = (317,0);
ref = brevecomb;
}
);
width = 1532;
}
);
unicode = 286;
},
{
color = 10;
glyphname = Gcircumflex;
lastChange = "2023-10-05 14:16:21 +0000";
layers = (
{
background = {
anchors = (
{
name = bottom;
pos = (737,0);
},
{
name = cedilla;
pos = (736,0);
},
{
name = top;
pos = (766,1500);
}
);
shapes = (
{
closed = 1;
nodes = (
(863,568,l),
(1073,568,l),
(1073,250,l),
(1053,206,o),
(981,-16,o),
(733,-16,cs),
(395,-16,o),
(313,386,o),
(313,750,cs),
(313,1114,o),
(435,1510,o),
(783,1510,cs),
(1013,1510,o),
(1229,1338,o),
(1229,1090,c),
(1233,1090,l),
(1233,1500,l),
(1229,1500,l),
(1107,1385,l),
(1020,1469,o),
(897,1520,o),
(763,1520,cs),
(357,1520,o),
(83,1196,o),
(83,750,cs),
(83,304,o),
(317,-20,o),
(733,-20,cs),
(1059,-20,o),
(1223,204,o),
(1283,330,c),
(1283,568,l),
(1403,568,l),
(1403,572,l),
(863,572,l)
);
},
{
closed = 1;
nodes = (
(766,1849,l),
(1050,1715,l),
(1052,1719,l),
(832,1939,l),
(702,1939,l),
(482,1719,l),
(484,1715,l)
);
}
);
};
layerId = "131D8093-96F9-49D1-BC5C-300C1D47CA92";
shapes = (
{
ref = G;
},
{
pos = (267,0);
ref = circumflexcomb;
}
);
width = 1422;
},
{
background = {
anchors = (
{
name = bottom;
pos = (851,0);
},
{
name = cedilla;
pos = (851,0);
},
{
name = top;
pos = (879,1500);
}
);
shapes = (
{
closed = 1;
nodes = (
(840,568,l),
(1050,568,l),
(1050,250,l),
(1010,126,o),
(938,-16,o),
(850,-16,cs),
(612,-16,o),
(550,386,o),
(550,750,cs),
(550,1114,o),
(662,1508,o),
(910,1508,cs),
(1164,1508,o),
(1366,1214,o),
(1446,1030,c),
(1450,1030,l),
(1450,1500,l),
(1446,1500,l),
(1156,1423,l),
(1073,1483,o),
(980,1520,o),
(880,1520,cs),
(474,1520,o),
(80,1236,o),
(80,750,cs),
(80,264,o),
(374,-20,o),
(850,-20,cs),
(1176,-20,o),
(1300,144,o),
(1500,290,c),
(1500,568,l),
(1580,568,l),
(1580,572,l),
(840,572,l)
);
},
{
closed = 1;
nodes = (
(879,1845,l),
(1243,1713,l),
(1245,1715,l),
(985,2035,l),
(775,2035,l),
(515,1715,l),
(517,1713,l)
);
}
);
};
layerId = "96DEB648-6659-45A7-975A-5247D52A4CB5";
shapes = (
{
ref = G;
},
{
pos = (380,0);
ref = circumflexcomb;
}
);
width = 1599;
},
{
background = {
anchors = (
{
name = bottom;
pos = (851,0);
},
{
name = cedilla;
pos = (851,0);
},
{
name = top;
pos = (879,1500);
}
);
shapes = (
{
closed = 1;
nodes = (
(840,532,l),
(1050,532,l),
(1050,250,l),
(1010,126,o),
(938,48,o),
(850,48,cs),
(612,48,o),
(550,386,o),
(550,750,cs),
(550,1114,o),
(672,1428,o),
(920,1428,cs),
(1168,1428,o),
(1296,1212,o),
(1376,1028,c),
(1450,1028,l),
(1450,1500,l),
(1388,1500,l),
(1171,1430,l),
(1079,1486,o),
(975,1520,o),
(880,1520,cs),
(474,1520,o),
(80,1236,o),
(80,750,cs),
(80,264,o),
(374,-20,o),
(850,-20,cs),
(1176,-20,o),
(1300,144,o),
(1500,290,c),
(1500,532,l),
(1580,532,l),
(1580,606,l),
(840,606,l)
);
},
{
closed = 1;
nodes = (
(879,1845,l),
(1207,1679,l),
(1245,1715,l),
(985,2035,l),
(775,2035,l),
(515,1715,l),
(551,1679,l)
);
}
);
};
layerId = "78E0DE70-2ED7-4EA0-A1D7-377506C0A4B3";
shapes = (
{
ref = G;
},
{
pos = (380,0);
ref = circumflexcomb;
}
);
width = 1598;
},
{
background = {
anchors = (
{
name = bottom;
pos = (787,0);
},
{
name = cedilla;
pos = (786,0);
},
{
name = top;
pos = (816,1500);
}
);
shapes = (
{
closed = 1;
nodes = (
(916,529,l),
(1127,529,l),
(1127,250,l),
(1107,206,o),
(1035,54,o),
(787,54,cs),
(449,54,o),
(366,387,o),
(366,750,cs),
(366,1113,o),
(488,1437,o),
(836,1437,cs),
(1044,1437,o),
(1226,1315,o),
(1246,1090,c),
(1320,1090,l),
(1320,1500,l),
(1256,1500,l),
(1168,1394,l),
(1073,1473,o),
(946,1520,o),
(816,1520,cs),
(410,1520,o),
(137,1195,o),
(137,750,cs),
(137,305,o),
(371,-20,o),
(787,-20,cs),
(1113,-20,o),
(1275,204,o),
(1336,330,c),
(1336,529,l),
(1457,529,l),
(1457,611,l),
(916,611,l)
);
},
{
closed = 1;
nodes = (
(816,1849,l),
(1065,1682,l),
(1102,1719,l),
(882,1939,l),
(752,1939,l),
(532,1719,l),
(569,1682,l)
);
}
);
};
layerId = master01;
shapes = (
{
ref = G;
},
{
pos = (317,0);
ref = circumflexcomb;
}
);
width = 1532;
}
);
unicode = 284;
},
{
color = 10;
glyphname = Gcommaaccent;
lastChange = "2023-10-05 14:16:21 +0000";
layers = (
{
background = {
anchors = (
{
name = bottom;
pos = (737,0);
},
{
name = cedilla;
pos = (736,0);
},
{
name = top;
pos = (766,1500);
}
);
shapes = (
{
closed = 1;
nodes = (
(863,568,l),
(1073,568,l),
(1073,250,l),
(1053,206,o),
(981,-16,o),
(733,-16,cs),
(395,-16,o),
(313,386,o),
(313,750,cs),
(313,1114,o),
(435,1510,o),
(783,1510,cs),
(1013,1510,o),
(1229,1338,o),
(1229,1090,c),
(1233,1090,l),
(1233,1500,l),
(1229,1500,l),
(1107,1385,l),
(1020,1469,o),
(897,1520,o),
(763,1520,cs),
(357,1520,o),
(83,1196,o),
(83,750,cs),
(83,304,o),
(317,-20,o),
(733,-20,cs),
(1059,-20,o),
(1223,204,o),
(1283,330,c),
(1283,568,l),
(1403,568,l),
(1403,572,l),
(863,572,l)
);
},
{
closed = 1;
nodes = (
(774,-608,o),
(852,-479,o),
(852,-359,cs),
(852,-258,o),
(803,-200,o),
(740,-200,cs),
(679,-200,o),
(633,-242,o),
(633,-295,cs),
(633,-347,o),
(665,-389,o),
(734,-389,cs),
(801,-389,o),
(847,-330,o),
(839,-282,c),
(837,-282,l),
(879,-427,o),
(795,-605,o),
(630,-605,c),
(630,-608,l)
);
}
);
};
layerId = "131D8093-96F9-49D1-BC5C-300C1D47CA92";
shapes = (
{
ref = G;
},
{
pos = (241,0);
ref = commaaccentcomb;
}
);
width = 1422;
},
{
background = {
anchors = (
{
name = bottom;
pos = (851,0);
},
{
name = cedilla;
pos = (851,0);
},
{
name = top;
pos = (879,1500);
}
);
shapes = (
{
closed = 1;
nodes = (
(840,568,l),
(1050,568,l),
(1050,250,l),
(1010,126,o),
(938,-16,o),
(850,-16,cs),
(612,-16,o),
(550,386,o),
(550,750,cs),
(550,1114,o),
(662,1508,o),
(910,1508,cs),
(1164,1508,o),
(1366,1214,o),
(1446,1030,c),
(1450,1030,l),
(1450,1500,l),
(1446,1500,l),
(1156,1423,l),
(1073,1483,o),
(980,1520,o),
(880,1520,cs),
(474,1520,o),
(80,1236,o),
(80,750,cs),
(80,264,o),
(374,-20,o),
(850,-20,cs),
(1176,-20,o),
(1300,144,o),
(1500,290,c),
(1500,568,l),
(1580,568,l),
(1580,572,l),
(840,572,l)
);
},
{
closed = 1;
nodes = (
(900,-797,o),
(1066,-653,o),
(1066,-429,cs),
(1066,-280,o),
(969,-182,o),
(858,-182,cs),
(749,-182,o),
(655,-272,o),
(655,-373,cs),
(655,-473,o),
(727,-563,o),
(844,-563,cs),
(946,-563,o),
(1054,-472,o),
(1054,-352,c),
(1053,-352,l),
(1102,-635,o),
(903,-793,o),
(652,-793,c),
(652,-797,l)
);
}
);
};
layerId = "96DEB648-6659-45A7-975A-5247D52A4CB5";
shapes = (
{
ref = G;
},
{
pos = (359,0);
ref = commaaccentcomb;
}
);
width = 1599;
},
{
background = {
anchors = (
{
name = bottom;
pos = (851,0);
},
{
name = cedilla;
pos = (851,0);
},
{
name = top;
pos = (879,1500);
}
);
shapes = (
{
closed = 1;
nodes = (
(840,532,l),
(1050,532,l),
(1050,250,l),
(1010,126,o),
(938,48,o),
(850,48,cs),
(612,48,o),
(550,386,o),
(550,750,cs),
(550,1114,o),
(672,1428,o),
(920,1428,cs),
(1168,1428,o),
(1296,1212,o),
(1376,1028,c),
(1450,1028,l),
(1450,1500,l),
(1388,1500,l),
(1171,1430,l),
(1079,1486,o),
(975,1520,o),
(880,1520,cs),
(474,1520,o),
(80,1236,o),
(80,750,cs),
(80,264,o),
(374,-20,o),
(850,-20,cs),
(1176,-20,o),
(1300,144,o),
(1500,290,c),
(1500,532,l),
(1580,532,l),
(1580,606,l),
(840,606,l)
);
},
{
closed = 1;
nodes = (
(900,-797,o),
(1066,-645,o),
(1066,-429,cs),
(1066,-280,o),
(969,-182,o),
(858,-182,cs),
(749,-182,o),
(655,-272,o),
(655,-373,cs),
(655,-473,o),
(727,-563,o),
(844,-563,cs),
(938,-563,o),
(1025,-485,o),
(1025,-429,c),
(1006,-429,l),
(1006,-645,o),
(839,-737,o),
(652,-737,c),
(652,-797,l)
);
}
);
};
layerId = "78E0DE70-2ED7-4EA0-A1D7-377506C0A4B3";
shapes = (
{
ref = G;
},
{
pos = (359,0);
ref = commaaccentcomb;
}
);
width = 1598;
},
{
background = {
anchors = (
{
name = bottom;
pos = (787,0);
},
{
name = cedilla;
pos = (786,0);
},
{
name = top;
pos = (816,1500);
}
);
shapes = (
{
closed = 1;
nodes = (
(916,529,l),
(1127,529,l),
(1127,250,l),
(1107,206,o),
(1035,54,o),
(787,54,cs),
(449,54,o),
(366,387,o),
(366,750,cs),
(366,1113,o),
(488,1437,o),
(836,1437,cs),
(1044,1437,o),
(1226,1315,o),
(1246,1090,c),
(1320,1090,l),
(1320,1500,l),
(1256,1500,l),
(1168,1394,l),
(1073,1473,o),
(946,1520,o),
(816,1520,cs),
(410,1520,o),
(137,1195,o),
(137,750,cs),
(137,305,o),
(371,-20,o),
(787,-20,cs),
(1113,-20,o),
(1275,204,o),
(1336,330,c),
(1336,529,l),
(1457,529,l),
(1457,611,l),
(916,611,l)
);
},
{
closed = 1;
nodes = (
(824,-623,o),
(902,-487,o),
(902,-351,cs),
(902,-250,o),
(853,-200,o),
(790,-200,cs),
(729,-200,o),
(683,-242,o),
(683,-295,cs),
(683,-347,o),
(715,-389,o),
(784,-389,cs),
(830,-389,o),
(861,-359,o),
(861,-351,c),
(842,-351,l),
(842,-487,o),
(763,-563,o),
(680,-563,c),
(680,-623,l)
);
}
);
};
layerId = master01;
shapes = (
{
ref = G;
},
{
pos = (291,0);
ref = commaaccentcomb;
}
);
width = 1532;
}
);
unicode = 290;
},
{
color = 10;
glyphname = Gdotaccent;
lastChange = "2023-10-05 14:16:21 +0000";
layers = (
{
background = {
anchors = (
{
name = bottom;
pos = (737,0);
},
{
name = cedilla;
pos = (736,0);
},
{
name = top;
pos = (766,1500);
}
);
shapes = (
{
closed = 1;
nodes = (
(863,568,l),
(1073,568,l),
(1073,250,l),
(1053,206,o),
(981,-16,o),
(733,-16,cs),
(395,-16,o),
(313,386,o),
(313,750,cs),
(313,1114,o),
(435,1510,o),
(783,1510,cs),
(1013,1510,o),
(1229,1338,o),
(1229,1090,c),
(1233,1090,l),
(1233,1500,l),
(1229,1500,l),
(1107,1385,l),
(1020,1469,o),
(897,1520,o),
(763,1520,cs),
(357,1520,o),
(83,1196,o),
(83,750,cs),
(83,304,o),
(317,-20,o),
(733,-20,cs),
(1059,-20,o),
(1223,204,o),
(1283,330,c),
(1283,568,l),
(1403,568,l),
(1403,572,l),
(863,572,l)
);
},
{
closed = 1;
nodes = (
(832,1860,o),
(886,1914,o),
(886,1980,cs),
(886,2046,o),
(832,2100,o),
(766,2100,cs),
(700,2100,o),
(646,2046,o),
(646,1980,cs),
(646,1914,o),
(700,1860,o),
(766,1860,cs)
);
}
);
};
layerId = "131D8093-96F9-49D1-BC5C-300C1D47CA92";
shapes = (
{
ref = G;
},
{
pos = (266,580);
ref = dotaccentcomb;
}
);
width = 1422;
},
{
background = {
anchors = (
{
name = bottom;
pos = (851,0);
},
{
name = cedilla;
pos = (851,0);
},
{
name = top;
pos = (879,1500);
}
);
shapes = (
{
closed = 1;
nodes = (
(840,568,l),
(1050,568,l),
(1050,250,l),
(1010,126,o),
(938,-16,o),
(850,-16,cs),
(612,-16,o),
(550,386,o),
(550,750,cs),
(550,1114,o),
(662,1508,o),
(910,1508,cs),
(1164,1508,o),
(1366,1214,o),
(1446,1030,c),
(1450,1030,l),
(1450,1500,l),
(1446,1500,l),
(1156,1423,l),
(1073,1483,o),
(980,1520,o),
(880,1520,cs),
(474,1520,o),
(80,1236,o),
(80,750,cs),
(80,264,o),
(374,-20,o),
(850,-20,cs),
(1176,-20,o),
(1300,144,o),
(1500,290,c),
(1500,568,l),
(1580,568,l),
(1580,572,l),
(840,572,l)
);
},
{
closed = 1;
nodes = (
(1006,1660,o),
(1100,1754,o),
(1100,1880,cs),
(1100,2006,o),
(1006,2100,o),
(880,2100,cs),
(754,2100,o),
(660,2006,o),
(660,1880,cs),
(660,1754,o),
(754,1660,o),
(880,1660,cs)
);
}
);
};
layerId = "96DEB648-6659-45A7-975A-5247D52A4CB5";
shapes = (
{
ref = G;
},
{
pos = (379,580);
ref = dotaccentcomb;
}
);
width = 1599;
},
{
background = {
anchors = (
{
name = bottom;
pos = (851,0);
},
{
name = cedilla;
pos = (851,0);
},
{
name = top;
pos = (879,1500);
}
);
shapes = (
{
closed = 1;
nodes = (
(840,532,l),
(1050,532,l),
(1050,250,l),
(1010,126,o),
(938,48,o),
(850,48,cs),
(612,48,o),
(550,386,o),
(550,750,cs),
(550,1114,o),
(672,1428,o),
(920,1428,cs),
(1168,1428,o),
(1296,1212,o),
(1376,1028,c),
(1450,1028,l),
(1450,1500,l),
(1388,1500,l),
(1171,1430,l),
(1079,1486,o),
(975,1520,o),
(880,1520,cs),
(474,1520,o),
(80,1236,o),
(80,750,cs),
(80,264,o),
(374,-20,o),
(850,-20,cs),
(1176,-20,o),
(1300,144,o),
(1500,290,c),
(1500,532,l),
(1580,532,l),
(1580,606,l),
(840,606,l)
);
},
{
closed = 1;
nodes = (
(1005,1660,o),
(1099,1754,o),
(1099,1880,cs),
(1099,2006,o),
(1005,2100,o),
(879,2100,cs),
(753,2100,o),
(659,2006,o),
(659,1880,cs),
(659,1754,o),
(753,1660,o),
(879,1660,cs)
);
}
);
};
layerId = "78E0DE70-2ED7-4EA0-A1D7-377506C0A4B3";
shapes = (
{
ref = G;
},
{
pos = (379,580);
ref = dotaccentcomb;
}
);
width = 1598;
},
{
background = {
anchors = (
{
name = bottom;
pos = (787,0);
},
{
name = cedilla;
pos = (786,0);
},
{
name = top;
pos = (816,1500);
}
);
shapes = (
{
closed = 1;
nodes = (
(916,529,l),
(1127,529,l),
(1127,250,l),
(1107,206,o),
(1035,54,o),
(787,54,cs),
(449,54,o),
(366,387,o),
(366,750,cs),
(366,1113,o),
(488,1437,o),
(836,1437,cs),
(1044,1437,o),
(1226,1315,o),
(1246,1090,c),
(1320,1090,l),
(1320,1500,l),
(1256,1500,l),
(1168,1394,l),
(1073,1473,o),
(946,1520,o),
(816,1520,cs),
(410,1520,o),
(137,1195,o),
(137,750,cs),
(137,305,o),
(371,-20,o),
(787,-20,cs),
(1113,-20,o),
(1275,204,o),
(1336,330,c),
(1336,529,l),
(1457,529,l),
(1457,611,l),
(916,611,l)
);
},
{
closed = 1;
nodes = (
(883,1849,o),
(937,1904,o),
(937,1970,cs),
(937,2036,o),
(883,2090,o),
(817,2090,cs),
(751,2090,o),
(697,2036,o),
(697,1970,cs),
(697,1904,o),
(751,1849,o),
(817,1849,cs)
);
}
);
};
layerId = master01;
shapes = (
{
ref = G;
},
{
pos = (316,580);
ref = dotaccentcomb;
}
);
width = 1532;
}
);
unicode = 288;
},
{
color = (0,171,232,255);
glyphname = H;
lastChange = "2023-10-06 08:49:31 +0000";
layers = (
{
anchors = (
{
name = bottom;
pos = (741,0);
},
{
name = cedilla;
pos = (308,0);
},
{
name = top;
pos = (741,1500);
}
);
background = {
anchors = (
{
name = bottom;
pos = (741,0);
},
{
name = cedilla;
pos = (308,0);
},
{
name = top;
pos = (741,1500);
}
);
shapes = (
{
closed = 1;
nodes = (
(867,1500,l),
(867,1496,l),
(1067,1496,l),
(1067,742,l),
(407,742,l),
(407,1496,l),
(607,1496,l),
(607,1500,l),
(37,1500,l),
(37,1496,l),
(216,1496,l),
(216,4,l),
(37,4,l),
(37,0,l),
(607,0,l),
(607,4,l),
(407,4,l),
(407,738,l),
(1067,738,l),
(1067,4,l),
(867,4,l),
(867,0,l),
(1437,0,l),
(1437,4,l),
(1256,4,l),
(1256,1496,l),
(1437,1496,l),
(1437,1500,l)
);
}
);
};
layerId = "131D8093-96F9-49D1-BC5C-300C1D47CA92";
shapes = (
{
closed = 1;
nodes = (
(867,1500,l),
(867,1496,l),
(1067,1496,l),
(1067,742,l),
(407,742,l),
(407,1496,l),
(607,1496,l),
(607,1500,l),
(37,1500,l),
(37,1496,l),
(216,1496,l),
(216,4,l),
(37,4,l),
(37,0,l),
(607,0,l),
(607,4,l),
(407,4,l),
(407,738,l),
(1067,738,l),
(1067,4,l),
(867,4,l),
(867,0,l),
(1437,0,l),
(1437,4,l),
(1256,4,l),
(1256,1496,l),
(1437,1496,l),
(1437,1500,l)
);
}
);
width = 1473;
},
{
anchors = (
{
name = bottom;
pos = (851,0);
},
{
name = cedilla;
pos = (411,0);
},
{
name = top;
pos = (850,1500);
}
);
background = {
anchors = (
{
name = bottom;
pos = (851,0);
},
{
name = cedilla;
pos = (411,0);
},
{
name = top;
pos = (850,1500);
}
);
shapes = (
{
closed = 1;
nodes = (
(900,1500,l),
(900,1496,l),
(1060,1496,l),
(1060,742,l),
(640,742,l),
(640,1496,l),
(800,1496,l),
(800,1500,l),
(30,1500,l),
(30,1496,l),
(210,1496,l),
(210,4,l),
(30,4,l),
(30,0,l),
(800,0,l),
(800,4,l),
(640,4,l),
(640,738,l),
(1060,738,l),
(1060,4,l),
(900,4,l),
(900,0,l),
(1670,0,l),
(1670,4,l),
(1490,4,l),
(1490,1496,l),
(1670,1496,l),
(1670,1500,l)
);
}
);
};
layerId = "96DEB648-6659-45A7-975A-5247D52A4CB5";
shapes = (
{
closed = 1;
nodes = (
(900,1500,l),
(900,1496,l),
(1060,1496,l),
(1060,742,l),
(640,742,l),
(640,1496,l),
(800,1496,l),
(800,1500,l),
(30,1500,l),
(30,1496,l),
(210,1496,l),
(210,4,l),
(30,4,l),
(30,0,l),
(800,0,l),
(800,4,l),
(640,4,l),
(640,738,l),
(1060,738,l),
(1060,4,l),
(900,4,l),
(900,0,l),
(1670,0,l),
(1670,4,l),
(1490,4,l),
(1490,1496,l),
(1670,1496,l),
(1670,1500,l)
);
}
);
width = 1699;
},
{
anchors = (
{
name = bottom;
pos = (851,0);
},
{
name = cedilla;
pos = (411,0);
},
{
name = top;
pos = (850,1500);
}
);
background = {
anchors = (
{
name = bottom;
pos = (851,0);
},
{
name = cedilla;
pos = (411,0);
},
{
name = top;
pos = (850,1500);
}
);
shapes = (
{
closed = 1;
nodes = (
(900,1500,l),
(900,1428,l),
(1060,1428,l),
(1060,776,l),
(640,776,l),
(640,1428,l),
(800,1428,l),
(800,1500,l),
(28,1500,l),
(28,1428,l),
(210,1428,l),
(210,72,l),
(28,72,l),
(28,0,l),
(800,0,l),
(800,72,l),
(640,72,l),
(640,704,l),
(1060,704,l),
(1060,72,l),
(900,72,l),
(900,0,l),
(1670,0,l),
(1670,72,l),
(1490,72,l),
(1490,1428,l),
(1670,1428,l),
(1670,1500,l)
);
}
);
};
layerId = "78E0DE70-2ED7-4EA0-A1D7-377506C0A4B3";
shapes = (
{
closed = 1;
nodes = (
(900,1500,l),
(900,1428,l),
(1060,1428,l),
(1060,776,l),
(640,776,l),
(640,1428,l),
(800,1428,l),
(800,1500,l),
(28,1500,l),
(28,1428,l),
(210,1428,l),
(210,72,l),
(28,72,l),
(28,0,l),
(800,0,l),
(800,72,l),
(640,72,l),
(640,704,l),
(1060,704,l),
(1060,72,l),
(900,72,l),
(900,0,l),
(1670,0,l),
(1670,72,l),
(1490,72,l),
(1490,1428,l),
(1670,1428,l),
(1670,1500,l)
);
}
);
width = 1698;
},
{
anchors = (
{
name = bottom;
pos = (786,0);
},
{
name = cedilla;
pos = (358,0);
},
{
name = top;
pos = (786,1500);
}
);
background = {
anchors = (
{
name = bottom;
pos = (786,0);
},
{
name = cedilla;
pos = (358,0);
},
{
name = top;
pos = (786,1500);
}
);
shapes = (
{
closed = 1;
nodes = (
(916,1500,l),
(916,1427,l),
(1116,1427,l),
(1116,777,l),
(457,777,l),
(457,1427,l),
(656,1427,l),
(656,1500,l),
(86,1500,l),
(86,1427,l),
(267,1427,l),
(267,73,l),
(86,73,l),
(86,0,l),
(656,0,l),
(656,73,l),
(457,73,l),
(457,703,l),
(1116,703,l),
(1116,73,l),
(916,73,l),
(916,0,l),
(1486,0,l),
(1486,73,l),
(1307,73,l),
(1307,1427,l),
(1486,1427,l),
(1486,1500,l)
);
}
);
};
layerId = master01;
shapes = (
{
closed = 1;
nodes = (
(916,1500,l),
(916,1427,l),
(1116,1427,l),
(1116,777,l),
(457,777,l),
(457,1427,l),
(656,1427,l),
(656,1500,l),
(86,1500,l),
(86,1427,l),
(267,1427,l),
(267,73,l),
(86,73,l),
(86,0,l),
(656,0,l),
(656,73,l),
(457,73,l),
(457,703,l),
(1116,703,l),
(1116,73,l),
(916,73,l),
(916,0,l),
(1486,0,l),
(1486,73,l),
(1307,73,l),
(1307,1427,l),
(1486,1427,l),
(1486,1500,l)
);
}
);
width = 1572;
}
);
unicode = 72;
},
{
color = (247,255,0,255);
glyphname = Hbar;
lastChange = "2023-10-06 08:49:31 +0000";
layers = (
{
background = {
anchors = (
{
name = bottom;
pos = (741,0);
},
{
name = cedilla;
pos = (308,0);
},
{
name = top;
pos = (741,1500);
}
);
shapes = (
{
closed = 1;
nodes = (
(1436.002,1116,l),
(1436.002,1120,l),
(36,1120,l),
(36,1116,l)
);
},
{
closed = 1;
nodes = (
(867,1500,l),
(867,1496,l),
(1067,1496,l),
(1067,742,l),
(407,742,l),
(407,1496,l),
(607,1496,l),
(607,1500,l),
(37,1500,l),
(37,1496,l),
(216,1496,l),
(216,4,l),
(37,4,l),
(37,0,l),
(607,0,l),
(607,4,l),
(407,4,l),
(407,738,l),
(1067,738,l),
(1067,4,l),
(867,4,l),
(867,0,l),
(1437,0,l),
(1437,4,l),
(1256,4,l),
(1256,1496,l),
(1437,1496,l),
(1437,1500,l)
);
}
);
};
layerId = "131D8093-96F9-49D1-BC5C-300C1D47CA92";
shapes = (
{
closed = 1;
nodes = (
(1436.002,1116,l),
(1436.002,1120,l),
(36,1120,l),
(36,1116,l)
);
},
{
ref = H;
}
);
width = 1473;
},
{
background = {
anchors = (
{
name = bottom;
pos = (851,0);
},
{
name = cedilla;
pos = (411,0);
},
{
name = top;
pos = (850,1500);
}
);
shapes = (
{
closed = 1;
nodes = (
(1669.999,1142,l),
(1669.999,1146,l),
(28,1146,l),
(28,1142,l)
);
},
{
closed = 1;
nodes = (
(900,1500,l),
(900,1496,l),
(1060,1496,l),
(1060,742,l),
(640,742,l),
(640,1496,l),
(800,1496,l),
(800,1500,l),
(30,1500,l),
(30,1496,l),
(210,1496,l),
(210,4,l),
(30,4,l),
(30,0,l),
(800,0,l),
(800,4,l),
(640,4,l),
(640,738,l),
(1060,738,l),
(1060,4,l),
(900,4,l),
(900,0,l),
(1670,0,l),
(1670,4,l),
(1490,4,l),
(1490,1496,l),
(1670,1496,l),
(1670,1500,l)
);
}
);
};
layerId = "96DEB648-6659-45A7-975A-5247D52A4CB5";
shapes = (
{
closed = 1;
nodes = (
(1669.999,1142,l),
(1669.999,1146,l),
(28,1146,l),
(28,1142,l)
);
},
{
ref = H;
}
);
width = 1699;
},
{
background = {
anchors = (
{
name = bottom;
pos = (851,0);
},
{
name = cedilla;
pos = (411,0);
},
{
name = top;
pos = (850,1500);
}
);
shapes = (
{
closed = 1;
nodes = (
(1669.999,1108,l),
(1669.999,1180,l),
(28,1180,l),
(28,1108,l)
);
},
{
closed = 1;
nodes = (
(900,1500,l),
(900,1428,l),
(1060,1428,l),
(1060,776,l),
(640,776,l),
(640,1428,l),
(800,1428,l),
(800,1500,l),
(28,1500,l),
(28,1428,l),
(210,1428,l),
(210,72,l),
(28,72,l),
(28,0,l),
(800,0,l),
(800,72,l),
(640,72,l),
(640,704,l),
(1060,704,l),
(1060,72,l),
(900,72,l),
(900,0,l),
(1670,0,l),
(1670,72,l),
(1490,72,l),
(1490,1428,l),
(1670,1428,l),
(1670,1500,l)
);
}
);
};
layerId = "78E0DE70-2ED7-4EA0-A1D7-377506C0A4B3";
shapes = (
{
closed = 1;
nodes = (
(1669.999,1108,l),
(1669.999,1180,l),
(28,1180,l),
(28,1108,l)
);
},
{
ref = H;
}
);
width = 1698;
},
{
background = {
anchors = (
{
name = bottom;
pos = (786,0);
},
{
name = cedilla;
pos = (358,0);
},
{
name = top;
pos = (786,1500);
}
);
shapes = (
{
closed = 1;
nodes = (
(1486.002,1074,l),
(1486.002,1146,l),
(86,1146,l),
(86,1074,l)
);
},
{
closed = 1;
nodes = (
(916,1500,l),
(916,1427,l),
(1116,1427,l),
(1116,777,l),
(457,777,l),
(457,1427,l),
(656,1427,l),
(656,1500,l),
(86,1500,l),
(86,1427,l),
(267,1427,l),
(267,73,l),
(86,73,l),
(86,0,l),
(656,0,l),
(656,73,l),
(457,73,l),
(457,703,l),
(1116,703,l),
(1116,73,l),
(916,73,l),
(916,0,l),
(1486,0,l),
(1486,73,l),
(1307,73,l),
(1307,1427,l),
(1486,1427,l),
(1486,1500,l)
);
}
);
};
layerId = master01;
shapes = (
{
closed = 1;
nodes = (
(1486.002,1074,l),
(1486.002,1146,l),
(86,1146,l),
(86,1074,l)
);
},
{
ref = H;
}
);
width = 1572;
}
);
unicode = 294;
},
{
color = 10;
glyphname = Hcircumflex;
lastChange = "2023-10-05 14:16:21 +0000";
layers = (
{
background = {
anchors = (
{
name = bottom;
pos = (741,0);
},
{
name = cedilla;
pos = (308,0);
},
{
name = top;
pos = (741,1500);
}
);
shapes = (
{
closed = 1;
nodes = (
(867,1500,l),
(867,1496,l),
(1067,1496,l),
(1067,742,l),
(407,742,l),
(407,1496,l),
(607,1496,l),
(607,1500,l),
(37,1500,l),
(37,1496,l),
(216,1496,l),
(216,4,l),
(37,4,l),
(37,0,l),
(607,0,l),
(607,4,l),
(407,4,l),
(407,738,l),
(1067,738,l),
(1067,4,l),
(867,4,l),
(867,0,l),
(1437,0,l),
(1437,4,l),
(1256,4,l),
(1256,1496,l),
(1437,1496,l),
(1437,1500,l)
);
},
{
closed = 1;
nodes = (
(741,1849,l),
(1025,1715,l),
(1027,1719,l),
(807,1939,l),
(677,1939,l),
(457,1719,l),
(459,1715,l)
);
}
);
};
layerId = "131D8093-96F9-49D1-BC5C-300C1D47CA92";
shapes = (
{
ref = H;
},
{
pos = (242,0);
ref = circumflexcomb;
}
);
width = 1473;
},
{
background = {
anchors = (
{
name = bottom;
pos = (851,0);
},
{
name = cedilla;
pos = (411,0);
},
{
name = top;
pos = (850,1500);
}
);
shapes = (
{
closed = 1;
nodes = (
(900,1500,l),
(900,1496,l),
(1060,1496,l),
(1060,742,l),
(640,742,l),
(640,1496,l),
(800,1496,l),
(800,1500,l),
(30,1500,l),
(30,1496,l),
(210,1496,l),
(210,4,l),
(30,4,l),
(30,0,l),
(800,0,l),
(800,4,l),
(640,4,l),
(640,738,l),
(1060,738,l),
(1060,4,l),
(900,4,l),
(900,0,l),
(1670,0,l),
(1670,4,l),
(1490,4,l),
(1490,1496,l),
(1670,1496,l),
(1670,1500,l)
);
},
{
closed = 1;
nodes = (
(850,1845,l),
(1214,1713,l),
(1216,1715,l),
(956,2035,l),
(746,2035,l),
(486,1715,l),
(488,1713,l)
);
}
);
};
layerId = "96DEB648-6659-45A7-975A-5247D52A4CB5";
shapes = (
{
ref = H;
},
{
pos = (351,0);
ref = circumflexcomb;
}
);
width = 1699;
},
{
background = {
anchors = (
{
name = bottom;
pos = (851,0);
},
{
name = cedilla;
pos = (411,0);
},
{
name = top;
pos = (850,1500);
}
);
shapes = (
{
closed = 1;
nodes = (
(900,1500,l),
(900,1428,l),
(1060,1428,l),
(1060,776,l),
(640,776,l),
(640,1428,l),
(800,1428,l),
(800,1500,l),
(28,1500,l),
(28,1428,l),
(210,1428,l),
(210,72,l),
(28,72,l),
(28,0,l),
(800,0,l),
(800,72,l),
(640,72,l),
(640,704,l),
(1060,704,l),
(1060,72,l),
(900,72,l),
(900,0,l),
(1670,0,l),
(1670,72,l),
(1490,72,l),
(1490,1428,l),
(1670,1428,l),
(1670,1500,l)
);
},
{
closed = 1;
nodes = (
(850,1845,l),
(1178,1679,l),
(1216,1715,l),
(956,2035,l),
(746,2035,l),
(486,1715,l),
(522,1679,l)
);
}
);
};
layerId = "78E0DE70-2ED7-4EA0-A1D7-377506C0A4B3";
shapes = (
{
ref = H;
},
{
pos = (351,0);
ref = circumflexcomb;
}
);
width = 1698;
},
{
background = {
anchors = (
{
name = bottom;
pos = (786,0);
},
{
name = cedilla;
pos = (358,0);
},
{
name = top;
pos = (786,1500);
}
);
shapes = (
{
closed = 1;
nodes = (
(916,1500,l),
(916,1427,l),
(1116,1427,l),
(1116,777,l),
(457,777,l),
(457,1427,l),
(656,1427,l),
(656,1500,l),
(86,1500,l),
(86,1427,l),
(267,1427,l),
(267,73,l),
(86,73,l),
(86,0,l),
(656,0,l),
(656,73,l),
(457,73,l),
(457,703,l),
(1116,703,l),
(1116,73,l),
(916,73,l),
(916,0,l),
(1486,0,l),
(1486,73,l),
(1307,73,l),
(1307,1427,l),
(1486,1427,l),
(1486,1500,l)
);
},
{
closed = 1;
nodes = (
(786,1849,l),
(1035,1682,l),
(1072,1719,l),
(852,1939,l),
(722,1939,l),
(502,1719,l),
(539,1682,l)
);
}
);
};
layerId = master01;
shapes = (
{
ref = H;
},
{
pos = (287,0);
ref = circumflexcomb;
}
);
width = 1572;
}
);
unicode = 292;
},
{
color = (0,171,232,255);
glyphname = I;
lastChange = "2023-10-06 08:49:31 +0000";
layers = (
{
anchors = (
{
name = bottom;
pos = (349,0);
},
{
name = ogonek;
pos = (381,0);
},
{
name = top;
pos = (353,1500);
}
);
background = {
anchors = (
{
name = bottom;
pos = (349,0);
},
{
name = ogonek;
pos = (381,0);
},
{
name = top;
pos = (353,1500);
}
);
shapes = (
{
closed = 1;
nodes = (
(687,0,l),
(687,4,l),
(447,4,l),
(447,1496,l),
(687,1496,l),
(687,1500,l),
(37,1500,l),
(37,1496,l),
(256,1496,l),
(256,4,l),
(37,4,l),
(37,0,l)
);
}
);
};
layerId = "131D8093-96F9-49D1-BC5C-300C1D47CA92";
shapes = (
{
closed = 1;
nodes = (
(687,0,l),
(687,4,l),
(447,4,l),
(447,1496,l),
(687,1496,l),
(687,1500,l),
(37,1500,l),
(37,1496,l),
(256,1496,l),
(256,4,l),
(37,4,l),
(37,0,l)
);
}
);
width = 723;
},
{
anchors = (
{
name = bottom;
pos = (466,0);
},
{
name = ogonek;
pos = (548,0);
},
{
name = top;
pos = (462,1500);
}
);
background = {
anchors = (
{
name = bottom;
pos = (466,0);
},
{
name = ogonek;
pos = (548,0);
},
{
name = top;
pos = (462,1500);
}
);
shapes = (
{
closed = 1;
nodes = (
(920,0,l),
(920,4,l),
(680,4,l),
(680,1496,l),
(920,1496,l),
(920,1500,l),
(30,1500,l),
(30,1496,l),
(250,1496,l),
(250,4,l),
(30,4,l),
(30,0,l)
);
}
);
};
layerId = "96DEB648-6659-45A7-975A-5247D52A4CB5";
shapes = (
{
closed = 1;
nodes = (
(920,0,l),
(920,4,l),
(680,4,l),
(680,1496,l),
(920,1496,l),
(920,1500,l),
(30,1500,l),
(30,1496,l),
(250,1496,l),
(250,4,l),
(30,4,l),
(30,0,l)
);
}
);
width = 949;
},
{
anchors = (
{
name = bottom;
pos = (466,0);
},
{
name = ogonek;
pos = (526,0);
},
{
name = top;
pos = (462,1500);
}
);
background = {
anchors = (
{
name = bottom;
pos = (466,0);
},
{
name = ogonek;
pos = (526,0);
},
{
name = top;
pos = (462,1500);
}
);
shapes = (
{
closed = 1;
nodes = (
(920,0,l),
(920,72,l),
(680,72,l),
(680,1428,l),
(920,1428,l),
(920,1500,l),
(28,1500,l),
(28,1428,l),
(250,1428,l),
(250,72,l),
(28,72,l),
(28,0,l)
);
}
);
};
layerId = "78E0DE70-2ED7-4EA0-A1D7-377506C0A4B3";
shapes = (
{
closed = 1;
nodes = (
(920,0,l),
(920,72,l),
(680,72,l),
(680,1428,l),
(920,1428,l),
(920,1500,l),
(28,1500,l),
(28,1428,l),
(250,1428,l),
(250,72,l),
(28,72,l),
(28,0,l)
);
}
);
width = 948;
},
{
anchors = (
{
name = bottom;
pos = (402,0);
},
{
name = ogonek;
pos = (402,0);
},
{
name = top;
pos = (406,1500);
}
);
background = {
anchors = (
{
name = bottom;
pos = (402,0);
},
{
name = ogonek;
pos = (402,0);
},
{
name = top;
pos = (406,1500);
}
);
shapes = (
{
closed = 1;
nodes = (
(736,0,l),
(736,73,l),
(496,73,l),
(496,1427,l),
(736,1427,l),
(736,1500,l),
(86,1500,l),
(86,1427,l),
(307,1427,l),
(307,73,l),
(86,73,l),
(86,0,l)
);
}
);
};
layerId = master01;
shapes = (
{
closed = 1;
nodes = (
(736,0,l),
(736,73,l),
(496,73,l),
(496,1427,l),
(736,1427,l),
(736,1500,l),
(86,1500,l),
(86,1427,l),
(307,1427,l),
(307,73,l),
(86,73,l),
(86,0,l)
);
}
);
width = 822;
}
);
unicode = 73;
},
{
color = 10;
glyphname = IJ;
lastChange = "2023-10-05 14:16:21 +0000";
layers = (
{
background = {
anchors = (
{
name = bottom;
pos = (1008,0);
},
{
name = ogonek;
pos = (381,0);
},
{
name = top;
pos = (1246,1500);
}
);
shapes = (
{
closed = 1;
nodes = (
(687,0,l),
(687,4,l),
(447,4,l),
(447,1496,l),
(687,1496,l),
(687,1500,l),
(37,1500,l),
(37,1496,l),
(256,1496,l),
(256,4,l),
(37,4,l),
(37,0,l)
);
},
{
closed = 1;
nodes = (
(919,1500,l),
(919,1496,l),
(1179,1496,l),
(1179,380,ls),
(1179,101,o),
(1152,-54,o),
(1009,-54,cs),
(878,-54,o),
(798,38,o),
(783,127,c),
(798,84,o),
(848,58,o),
(890,58,cs),
(949,58,o),
(1003,92,o),
(1003,168,cs),
(1003,250,o),
(940,285,o),
(890,285,cs),
(829,285,o),
(776,239,o),
(776,155,cs),
(776,55,o),
(864,-61,o),
(1018,-61,cs),
(1246,-61,o),
(1328,199,o),
(1368,340,c),
(1368,1496,l),
(1568,1496,l),
(1568,1500,l)
);
}
);
};
layerId = "131D8093-96F9-49D1-BC5C-300C1D47CA92";
shapes = (
{
alignment = -1;
ref = I;
},
{
alignment = -1;
pos = (760,0);
ref = J;
}
);
width = 1713;
},
{
background = {
anchors = (
{
name = bottom;
pos = (1338,0);
},
{
name = ogonek;
pos = (548,0);
},
{
name = top;
pos = (1706,1500);
}
);
shapes = (
{
closed = 1;
nodes = (
(920,0,l),
(920,4,l),
(680,4,l),
(680,1496,l),
(920,1496,l),
(920,1500,l),
(30,1500,l),
(30,1496,l),
(250,1496,l),
(250,4,l),
(30,4,l),
(30,0,l)
);
},
{
closed = 1;
nodes = (
(1259,1500,l),
(1259,1496,l),
(1519,1496,l),
(1519,380,ls),
(1519,101,o),
(1482,-51,o),
(1319,-51,cs),
(1148,-51,o),
(949,28,o),
(923,212,c),
(947,117,o),
(1053,38,o),
(1160,38,cs),
(1289,38,o),
(1403,127,o),
(1403,263,cs),
(1403,405,o),
(1280,495,o),
(1160,495,cs),
(1029,495,o),
(916,394,o),
(916,250,cs),
(916,50,o),
(1114,-61,o),
(1368,-61,cs),
(1666,-61,o),
(1838,99,o),
(1948,340,c),
(1948,1496,l),
(2148,1496,l),
(2148,1500,l)
);
}
);
};
layerId = "96DEB648-6659-45A7-975A-5247D52A4CB5";
shapes = (
{
alignment = -1;
ref = I;
},
{
alignment = -1;
pos = (900,0);
ref = J;
}
);
width = 2180;
},
{
background = {
anchors = (
{
name = bottom;
pos = (1338,0);
},
{
name = ogonek;
pos = (526,0);
},
{
name = top;
pos = (1706,1500);
}
);
shapes = (
{
closed = 1;
nodes = (
(920,0,l),
(920,72,l),
(680,72,l),
(680,1428,l),
(920,1428,l),
(920,1500,l),
(28,1500,l),
(28,1428,l),
(250,1428,l),
(250,72,l),
(28,72,l),
(28,0,l)
);
},
{
closed = 1;
nodes = (
(1259,1500,l),
(1259,1427,l),
(1519,1427,l),
(1519,380,ls),
(1519,101,o),
(1482,14,o),
(1309,14,cs),
(1258,14,o),
(1198,26,o),
(1144,50,c),
(1143,46,o),
(1143,42,o),
(1142,38,c),
(1277,29,o),
(1403,121,o),
(1403,263,cs),
(1403,405,o),
(1280,495,o),
(1160,495,cs),
(1029,495,o),
(916,394,o),
(916,250,cs),
(916,50,o),
(1114,-61,o),
(1368,-61,cs),
(1666,-61,o),
(1838,99,o),
(1948,340,c),
(1948,1427,l),
(2148,1427,l),
(2148,1500,l)
);
}
);
};
layerId = "78E0DE70-2ED7-4EA0-A1D7-377506C0A4B3";
shapes = (
{
alignment = -1;
ref = I;
},
{
alignment = -1;
pos = (900,0);
ref = J;
}
);
width = 2180;
},
{
background = {
anchors = (
{
name = bottom;
pos = (1068,0);
},
{
name = ogonek;
pos = (402,0);
},
{
name = top;
pos = (1306,1500);
}
);
shapes = (
{
closed = 1;
nodes = (
(736,0,l),
(736,73,l),
(496,73,l),
(496,1427,l),
(736,1427,l),
(736,1500,l),
(86,1500,l),
(86,1427,l),
(307,1427,l),
(307,73,l),
(86,73,l),
(86,0,l)
);
},
{
closed = 1;
nodes = (
(979,1500,l),
(979,1427,l),
(1239,1427,l),
(1239,380,ls),
(1239,101,o),
(1212,14,o),
(1069,14,cs),
(1019,14,o),
(970,42,o),
(941,79,c),
(938,72,o),
(935,66,o),
(932,59,c),
(996,51,o),
(1063,84,o),
(1063,168,cs),
(1063,250,o),
(1000,285,o),
(950,285,cs),
(889,285,o),
(836,239,o),
(836,155,cs),
(836,55,o),
(924,-61,o),
(1078,-61,cs),
(1306,-61,o),
(1388,199,o),
(1428,340,c),
(1428,1427,l),
(1628,1427,l),
(1628,1500,l)
);
}
);
};
layerId = master01;
shapes = (
{
alignment = -1;
ref = I;
},
{
alignment = -1;
pos = (760,0);
ref = J;
}
);
width = 1713;
}
);
unicode = 306;
},
{
color = 10;
glyphname = Iacute;
lastChange = "2023-10-05 14:16:21 +0000";
layers = (
{
background = {
anchors = (
{
name = bottom;
pos = (349,0);
},
{
name = ogonek;
pos = (381,0);
},
{
name = top;
pos = (353,1500);
}
);
shapes = (
{
closed = 1;
nodes = (
(687,0,l),
(687,4,l),
(447,4,l),
(447,1496,l),
(687,1496,l),
(687,1500,l),
(37,1500,l),
(37,1496,l),
(256,1496,l),
(256,4,l),
(37,4,l),
(37,0,l)
);
},
{
closed = 1;
nodes = (
(555,1817,ls),
(589,1832,o),
(601,1882,o),
(582,1915,cs),
(563,1948,o),
(507,1971,o),
(470,1926,cs),
(279,1696,l),
(281,1693,l)
);
}
);
};
layerId = "131D8093-96F9-49D1-BC5C-300C1D47CA92";
shapes = (
{
ref = I;
},
{
pos = (-65,0);
ref = acutecomb;
}
);
width = 723;
},
{
background = {
anchors = (
{
name = bottom;
pos = (466,0);
},
{
name = ogonek;
pos = (548,0);
},
{
name = top;
pos = (462,1500);
}
);
shapes = (
{
closed = 1;
nodes = (
(920,0,l),
(920,4,l),
(680,4,l),
(680,1496,l),
(920,1496,l),
(920,1500,l),
(30,1500,l),
(30,1496,l),
(250,1496,l),
(250,4,l),
(30,4,l),
(30,0,l)
);
},
{
closed = 1;
nodes = (
(631,1718,ls),
(790,1739,o),
(847,1905,o),
(781,2001,cs),
(727,2079,o),
(551,2104,o),
(476,1956,cs),
(337,1683,l),
(339,1680,l)
);
}
);
};
layerId = "96DEB648-6659-45A7-975A-5247D52A4CB5";
shapes = (
{
ref = I;
},
{
pos = (72,0);
ref = acutecomb;
}
);
width = 949;
},
{
background = {
anchors = (
{
name = bottom;
pos = (466,0);
},
{
name = ogonek;
pos = (526,0);
},
{
name = top;
pos = (462,1500);
}
);
shapes = (
{
closed = 1;
nodes = (
(920,0,l),
(920,72,l),
(680,72,l),
(680,1428,l),
(920,1428,l),
(920,1500,l),
(28,1500,l),
(28,1428,l),
(250,1428,l),
(250,72,l),
(28,72,l),
(28,0,l)
);
},
{
closed = 1;
nodes = (
(631,1718,ls),
(789,1752,o),
(847,1905,o),
(781,2001,cs),
(727,2079,o),
(562,2099,o),
(476,1956,cs),
(327,1708,l),
(359,1660,l)
);
}
);
};
layerId = "78E0DE70-2ED7-4EA0-A1D7-377506C0A4B3";
shapes = (
{
ref = I;
},
{
pos = (67,0);
ref = acutecomb;
}
);
width = 948;
},
{
background = {
anchors = (
{
name = bottom;
pos = (402,0);
},
{
name = ogonek;
pos = (402,0);
},
{
name = top;
pos = (406,1500);
}
);
shapes = (
{
closed = 1;
nodes = (
(736,0,l),
(736,73,l),
(496,73,l),
(496,1427,l),
(736,1427,l),
(736,1500,l),
(86,1500,l),
(86,1427,l),
(307,1427,l),
(307,73,l),
(86,73,l),
(86,0,l)
);
},
{
closed = 1;
nodes = (
(608,1817,ls),
(640,1836,o),
(654,1882,o),
(635,1915,cs),
(616,1948,o),
(565,1967,o),
(523,1926,cs),
(311,1719,l),
(356,1670,l)
);
}
);
};
layerId = master01;
shapes = (
{
ref = I;
},
{
pos = (-23,0);
ref = acutecomb;
}
);
width = 822;
}
);
unicode = 205;
},
{
color = 10;
glyphname = Ibreve;
lastChange = "2023-10-05 14:16:21 +0000";
layers = (
{
background = {
anchors = (
{
name = bottom;
pos = (349,0);
},
{
name = ogonek;
pos = (381,0);
},
{
name = top;
pos = (353,1500);
}
);
shapes = (
{
closed = 1;
nodes = (
(687,0,l),
(687,4,l),
(447,4,l),
(447,1496,l),
(687,1496,l),
(687,1500,l),
(37,1500,l),
(37,1496,l),
(256,1496,l),
(256,4,l),
(37,4,l),
(37,0,l)
);
},
{
closed = 1;
nodes = (
(533,1680,o),
(573,1816,o),
(573,1938,c),
(569,1938,l),
(569,1840,o),
(461,1790,o),
(353,1790,cs),
(245,1790,o),
(137,1840,o),
(137,1938,c),
(133,1938,l),
(133,1816,o),
(173,1680,o),
(353,1680,cs)
);
}
);
};
layerId = "131D8093-96F9-49D1-BC5C-300C1D47CA92";
shapes = (
{
ref = I;
},
{
pos = (-147,0);
ref = brevecomb;
}
);
width = 723;
},
{
background = {
anchors = (
{
name = bottom;
pos = (466,0);
},
{
name = ogonek;
pos = (548,0);
},
{
name = top;
pos = (462,1500);
}
);
shapes = (
{
closed = 1;
nodes = (
(920,0,l),
(920,4,l),
(680,4,l),
(680,1496,l),
(920,1496,l),
(920,1500,l),
(30,1500,l),
(30,1496,l),
(250,1496,l),
(250,4,l),
(30,4,l),
(30,0,l)
);
},
{
closed = 1;
nodes = (
(622,1680,o),
(722,1796,o),
(722,2058,c),
(718,2058,l),
(718,1970,o),
(570,1950,o),
(462,1950,cs),
(354,1950,o),
(206,1970,o),
(206,2058,c),
(202,2058,l),
(202,1796,o),
(302,1680,o),
(462,1680,cs)
);
}
);
};
layerId = "96DEB648-6659-45A7-975A-5247D52A4CB5";
shapes = (
{
ref = I;
},
{
pos = (-38,0);
ref = brevecomb;
}
);
width = 949;
},
{
background = {
anchors = (
{
name = bottom;
pos = (466,0);
},
{
name = ogonek;
pos = (526,0);
},
{
name = top;
pos = (462,1500);
}
);
shapes = (
{
closed = 1;
nodes = (
(920,0,l),
(920,72,l),
(680,72,l),
(680,1428,l),
(920,1428,l),
(920,1500,l),
(28,1500,l),
(28,1428,l),
(250,1428,l),
(250,72,l),
(28,72,l),
(28,0,l)
);
},
{
closed = 1;
nodes = (
(622,1680,o),
(722,1796,o),
(722,2058,c),
(650,2058,l),
(650,1970,o),
(570,1950,o),
(462,1950,cs),
(354,1950,o),
(274,1970,o),
(274,2058,c),
(202,2058,l),
(202,1796,o),
(302,1680,o),
(462,1680,cs)
);
}
);
};
layerId = "78E0DE70-2ED7-4EA0-A1D7-377506C0A4B3";
shapes = (
{
ref = I;
},
{
pos = (-38,0);
ref = brevecomb;
}
);
width = 948;
},
{
background = {
anchors = (
{
name = bottom;
pos = (402,0);
},
{
name = ogonek;
pos = (402,0);
},
{
name = top;
pos = (406,1500);
}
);
shapes = (
{
closed = 1;
nodes = (
(736,0,l),
(736,73,l),
(496,73,l),
(496,1427,l),
(736,1427,l),
(736,1500,l),
(86,1500,l),
(86,1427,l),
(307,1427,l),
(307,73,l),
(86,73,l),
(86,0,l)
);
},
{
closed = 1;
nodes = (
(586,1680,o),
(627,1816,o),
(627,1938,c),
(587,1938,l),
(587,1840,o),
(513,1790,o),
(406,1790,cs),
(299,1790,o),
(227,1840,o),
(227,1938,c),
(188,1938,l),
(188,1816,o),
(226,1680,o),
(406,1680,cs)
);
}
);
};
layerId = master01;
shapes = (
{
ref = I;
},
{
pos = (-93,0);
ref = brevecomb;
}
);
width = 822;
}
);
unicode = 300;
},
{
color = 10;
glyphname = Icircumflex;
lastChange = "2023-10-05 14:16:21 +0000";
layers = (
{
background = {
anchors = (
{
name = bottom;
pos = (349,0);
},
{
name = ogonek;
pos = (381,0);
},
{
name = top;
pos = (353,1500);
}
);
shapes = (
{
closed = 1;
nodes = (
(687,0,l),
(687,4,l),
(447,4,l),
(447,1496,l),
(687,1496,l),
(687,1500,l),
(37,1500,l),
(37,1496,l),
(256,1496,l),
(256,4,l),
(37,4,l),
(37,0,l)
);
},
{
closed = 1;
nodes = (
(353,1849,l),
(637,1715,l),
(639,1719,l),
(419,1939,l),
(289,1939,l),
(69,1719,l),
(71,1715,l)
);
}
);
};
layerId = "131D8093-96F9-49D1-BC5C-300C1D47CA92";
shapes = (
{
ref = I;
},
{
pos = (-146,0);
ref = circumflexcomb;
}
);
width = 723;
},
{
background = {
anchors = (
{
name = bottom;
pos = (466,0);
},
{
name = ogonek;
pos = (548,0);
},
{
name = top;
pos = (462,1500);
}
);
shapes = (
{
closed = 1;
nodes = (
(920,0,l),
(920,4,l),
(680,4,l),
(680,1496,l),
(920,1496,l),
(920,1500,l),
(30,1500,l),
(30,1496,l),
(250,1496,l),
(250,4,l),
(30,4,l),
(30,0,l)
);
},
{
closed = 1;
nodes = (
(462,1845,l),
(826,1713,l),
(828,1715,l),
(568,2035,l),
(358,2035,l),
(98,1715,l),
(100,1713,l)
);
}
);
};
layerId = "96DEB648-6659-45A7-975A-5247D52A4CB5";
shapes = (
{
ref = I;
},
{
pos = (-37,0);
ref = circumflexcomb;
}
);
width = 949;
},
{
background = {
anchors = (
{
name = bottom;
pos = (466,0);
},
{
name = ogonek;
pos = (526,0);
},
{
name = top;
pos = (462,1500);
}
);
shapes = (
{
closed = 1;
nodes = (
(920,0,l),
(920,72,l),
(680,72,l),
(680,1428,l),
(920,1428,l),
(920,1500,l),
(28,1500,l),
(28,1428,l),
(250,1428,l),
(250,72,l),
(28,72,l),
(28,0,l)
);
},
{
closed = 1;
nodes = (
(462,1845,l),
(790,1679,l),
(828,1715,l),
(568,2035,l),
(358,2035,l),
(98,1715,l),
(134,1679,l)
);
}
);
};
layerId = "78E0DE70-2ED7-4EA0-A1D7-377506C0A4B3";
shapes = (
{
ref = I;
},
{
pos = (-37,0);
ref = circumflexcomb;
}
);
width = 948;
},
{
background = {
anchors = (
{
name = bottom;
pos = (402,0);
},
{
name = ogonek;
pos = (402,0);
},
{
name = top;
pos = (406,1500);
}
);
shapes = (
{
closed = 1;
nodes = (
(736,0,l),
(736,73,l),
(496,73,l),
(496,1427,l),
(736,1427,l),
(736,1500,l),
(86,1500,l),
(86,1427,l),
(307,1427,l),
(307,73,l),
(86,73,l),
(86,0,l)
);
},
{
closed = 1;
nodes = (
(406,1849,l),
(655,1682,l),
(692,1719,l),
(472,1939,l),
(342,1939,l),
(122,1719,l),
(159,1682,l)
);
}
);
};
layerId = master01;
shapes = (
{
ref = I;
},
{
pos = (-93,0);
ref = circumflexcomb;
}
);
width = 822;
}
);
unicode = 206;
},
{
color = 10;
glyphname = Idieresis;
lastChange = "2023-10-05 14:16:21 +0000";
layers = (
{
background = {
anchors = (
{
name = bottom;
pos = (349,0);
},
{
name = ogonek;
pos = (381,0);
},
{
name = top;
pos = (353,1500);
}
);
shapes = (
{
closed = 1;
nodes = (
(687,0,l),
(687,4,l),
(447,4,l),
(447,1496,l),
(687,1496,l),
(687,1500,l),
(37,1500,l),
(37,1496,l),
(256,1496,l),
(256,4,l),
(37,4,l),
(37,0,l)
);
},
{
closed = 1;
nodes = (
(565,1690,o),
(608,1733,o),
(608,1786,cs),
(608,1839,o),
(565,1883,o),
(512,1883,cs),
(459,1883,o),
(416,1839,o),
(416,1786,cs),
(416,1733,o),
(459,1690,o),
(512,1690,cs)
);
},
{
closed = 1;
nodes = (
(245,1690,o),
(288,1733,o),
(288,1786,cs),
(288,1839,o),
(245,1883,o),
(192,1883,cs),
(139,1883,o),
(96,1839,o),
(96,1786,cs),
(96,1733,o),
(139,1690,o),
(192,1690,cs)
);
}
);
};
layerId = "131D8093-96F9-49D1-BC5C-300C1D47CA92";
shapes = (
{
ref = I;
},
{
pos = (-148,0);
ref = dieresiscomb;
}
);
width = 723;
},
{
background = {
anchors = (
{
name = bottom;
pos = (466,0);
},
{
name = ogonek;
pos = (548,0);
},
{
name = top;
pos = (462,1500);
}
);
shapes = (
{
closed = 1;
nodes = (
(920,0,l),
(920,4,l),
(680,4,l),
(680,1496,l),
(920,1496,l),
(920,1500,l),
(30,1500,l),
(30,1496,l),
(250,1496,l),
(250,4,l),
(30,4,l),
(30,0,l)
);
},
{
closed = 1;
nodes = (
(750,1680,o),
(811,1740,o),
(811,1814,cs),
(811,1888,o),
(750,1949,o),
(676,1949,cs),
(602,1949,o),
(542,1888,o),
(542,1814,cs),
(542,1740,o),
(602,1680,o),
(676,1680,cs)
);
},
{
closed = 1;
nodes = (
(322,1680,o),
(383,1740,o),
(383,1814,cs),
(383,1888,o),
(322,1949,o),
(248,1949,cs),
(174,1949,o),
(114,1888,o),
(114,1814,cs),
(114,1740,o),
(174,1680,o),
(248,1680,cs)
);
}
);
};
layerId = "96DEB648-6659-45A7-975A-5247D52A4CB5";
shapes = (
{
ref = I;
},
{
pos = (-38,0);
ref = dieresiscomb;
}
);
width = 949;
},
{
background = {
anchors = (
{
name = bottom;
pos = (466,0);
},
{
name = ogonek;
pos = (526,0);
},
{
name = top;
pos = (462,1500);
}
);
shapes = (
{
closed = 1;
nodes = (
(920,0,l),
(920,72,l),
(680,72,l),
(680,1428,l),
(920,1428,l),
(920,1500,l),
(28,1500,l),
(28,1428,l),
(250,1428,l),
(250,72,l),
(28,72,l),
(28,0,l)
);
},
{
closed = 1;
nodes = (
(750,1680,o),
(811,1740,o),
(811,1814,cs),
(811,1888,o),
(750,1949,o),
(676,1949,cs),
(602,1949,o),
(542,1888,o),
(542,1814,cs),
(542,1740,o),
(602,1680,o),
(676,1680,cs)
);
},
{
closed = 1;
nodes = (
(322,1680,o),
(383,1740,o),
(383,1814,cs),
(383,1888,o),
(322,1949,o),
(248,1949,cs),
(174,1949,o),
(114,1888,o),
(114,1814,cs),
(114,1740,o),
(174,1680,o),
(248,1680,cs)
);
}
);
};
layerId = "78E0DE70-2ED7-4EA0-A1D7-377506C0A4B3";
shapes = (
{
ref = I;
},
{
pos = (-38,0);
ref = dieresiscomb;
}
);
width = 948;
},
{
background = {
anchors = (
{
name = bottom;
pos = (402,0);
},
{
name = ogonek;
pos = (402,0);
},
{
name = top;
pos = (406,1500);
}
);
shapes = (
{
closed = 1;
nodes = (
(736,0,l),
(736,73,l),
(496,73,l),
(496,1427,l),
(736,1427,l),
(736,1500,l),
(86,1500,l),
(86,1427,l),
(307,1427,l),
(307,73,l),
(86,73,l),
(86,0,l)
);
},
{
closed = 1;
nodes = (
(618,1690,o),
(661,1733,o),
(661,1786,cs),
(661,1839,o),
(618,1883,o),
(565,1883,cs),
(512,1883,o),
(469,1839,o),
(469,1786,cs),
(469,1733,o),
(512,1690,o),
(565,1690,cs)
);
},
{
closed = 1;
nodes = (
(298,1690,o),
(341,1733,o),
(341,1786,cs),
(341,1839,o),
(298,1883,o),
(245,1883,cs),
(192,1883,o),
(149,1839,o),
(149,1786,cs),
(149,1733,o),
(192,1690,o),
(245,1690,cs)
);
}
);
};
layerId = master01;
shapes = (
{
ref = I;
},
{
pos = (-95,0);
ref = dieresiscomb;
}
);
width = 822;
}
);
unicode = 207;
},
{
color = 10;
glyphname = Idotaccent;
lastChange = "2023-10-05 14:16:21 +0000";
layers = (
{
background = {
anchors = (
{
name = bottom;
pos = (349,0);
},
{
name = ogonek;
pos = (381,0);
},
{
name = top;
pos = (353,1500);
}
);
shapes = (
{
closed = 1;
nodes = (
(687,0,l),
(687,4,l),
(447,4,l),
(447,1496,l),
(687,1496,l),
(687,1500,l),
(37,1500,l),
(37,1496,l),
(256,1496,l),
(256,4,l),
(37,4,l),
(37,0,l)
);
},
{
closed = 1;
nodes = (
(419,1860,o),
(473,1914,o),
(473,1980,cs),
(473,2046,o),
(419,2100,o),
(353,2100,cs),
(287,2100,o),
(233,2046,o),
(233,1980,cs),
(233,1914,o),
(287,1860,o),
(353,1860,cs)
);
}
);
};
layerId = "131D8093-96F9-49D1-BC5C-300C1D47CA92";
shapes = (
{
ref = I;
},
{
pos = (-147,580);
ref = dotaccentcomb;
}
);
width = 723;
},
{
background = {
anchors = (
{
name = bottom;
pos = (466,0);
},
{
name = ogonek;
pos = (548,0);
},
{
name = top;
pos = (462,1500);
}
);
shapes = (
{
closed = 1;
nodes = (
(920,0,l),
(920,4,l),
(680,4,l),
(680,1496,l),
(920,1496,l),
(920,1500,l),
(30,1500,l),
(30,1496,l),
(250,1496,l),
(250,4,l),
(30,4,l),
(30,0,l)
);
},
{
closed = 1;
nodes = (
(589,1660,o),
(683,1754,o),
(683,1880,cs),
(683,2006,o),
(589,2100,o),
(463,2100,cs),
(337,2100,o),
(243,2006,o),
(243,1880,cs),
(243,1754,o),
(337,1660,o),
(463,1660,cs)
);
}
);
};
layerId = "96DEB648-6659-45A7-975A-5247D52A4CB5";
shapes = (
{
ref = I;
},
{
pos = (-38,580);
ref = dotaccentcomb;
}
);
width = 949;
},
{
background = {
anchors = (
{
name = bottom;
pos = (466,0);
},
{
name = ogonek;
pos = (526,0);
},
{
name = top;
pos = (462,1500);
}
);
shapes = (
{
closed = 1;
nodes = (
(920,0,l),
(920,72,l),
(680,72,l),
(680,1428,l),
(920,1428,l),
(920,1500,l),
(28,1500,l),
(28,1428,l),
(250,1428,l),
(250,72,l),
(28,72,l),
(28,0,l)
);
},
{
closed = 1;
nodes = (
(588,1660,o),
(682,1754,o),
(682,1880,cs),
(682,2006,o),
(588,2100,o),
(462,2100,cs),
(336,2100,o),
(242,2006,o),
(242,1880,cs),
(242,1754,o),
(336,1660,o),
(462,1660,cs)
);
}
);
};
layerId = "78E0DE70-2ED7-4EA0-A1D7-377506C0A4B3";
shapes = (
{
ref = I;
},
{
pos = (-38,580);
ref = dotaccentcomb;
}
);
width = 948;
},
{
background = {
anchors = (
{
name = bottom;
pos = (402,0);
},
{
name = ogonek;
pos = (402,0);
},
{
name = top;
pos = (406,1500);
}
);
shapes = (
{
closed = 1;
nodes = (
(736,0,l),
(736,73,l),
(496,73,l),
(496,1427,l),
(736,1427,l),
(736,1500,l),
(86,1500,l),
(86,1427,l),
(307,1427,l),
(307,73,l),
(86,73,l),
(86,0,l)
);
},
{
closed = 1;
nodes = (
(473,1849,o),
(527,1904,o),
(527,1970,cs),
(527,2036,o),
(473,2090,o),
(407,2090,cs),
(341,2090,o),
(287,2036,o),
(287,1970,cs),
(287,1904,o),
(341,1849,o),
(407,1849,cs)
);
}
);
};
layerId = master01;
shapes = (
{
ref = I;
},
{
pos = (-94,580);
ref = dotaccentcomb;
}
);
width = 822;
}
);
unicode = 304;
},
{
color = 10;
glyphname = Igrave;
lastChange = "2023-10-05 14:16:21 +0000";
layers = (
{
background = {
anchors = (
{
name = bottom;
pos = (349,0);
},
{
name = ogonek;
pos = (381,0);
},
{
name = top;
pos = (353,1500);
}
);
shapes = (
{
closed = 1;
nodes = (
(687,0,l),
(687,4,l),
(447,4,l),
(447,1496,l),
(687,1496,l),
(687,1500,l),
(37,1500,l),
(37,1496,l),
(256,1496,l),
(256,4,l),
(37,4,l),
(37,0,l)
);
},
{
closed = 1;
nodes = (
(427,1696,l),
(236,1926,ls),
(199,1971,o),
(143,1948,o),
(124,1915,cs),
(105,1882,o),
(117,1832,o),
(151,1817,cs),
(425,1693,l)
);
}
);
};
layerId = "131D8093-96F9-49D1-BC5C-300C1D47CA92";
shapes = (
{
ref = I;
},
{
pos = (-229,0);
ref = gravecomb;
}
);
width = 723;
},
{
background = {
anchors = (
{
name = bottom;
pos = (466,0);
},
{
name = ogonek;
pos = (548,0);
},
{
name = top;
pos = (462,1500);
}
);
shapes = (
{
closed = 1;
nodes = (
(920,0,l),
(920,4,l),
(680,4,l),
(680,1496,l),
(920,1496,l),
(920,1500,l),
(30,1500,l),
(30,1496,l),
(250,1496,l),
(250,4,l),
(30,4,l),
(30,0,l)
);
},
{
closed = 1;
nodes = (
(584,1683,l),
(445,1956,ls),
(369,2104,o),
(194,2079,o),
(140,2001,cs),
(74,1905,o),
(130,1739,o),
(290,1718,cs),
(582,1680,l)
);
}
);
};
layerId = "96DEB648-6659-45A7-975A-5247D52A4CB5";
shapes = (
{
ref = I;
},
{
pos = (-152,0);
ref = gravecomb;
}
);
width = 949;
},
{
background = {
anchors = (
{
name = bottom;
pos = (466,0);
},
{
name = ogonek;
pos = (526,0);
},
{
name = top;
pos = (462,1500);
}
);
shapes = (
{
closed = 1;
nodes = (
(920,0,l),
(920,72,l),
(680,72,l),
(680,1428,l),
(920,1428,l),
(920,1500,l),
(28,1500,l),
(28,1428,l),
(250,1428,l),
(250,72,l),
(28,72,l),
(28,0,l)
);
},
{
closed = 1;
nodes = (
(594,1708,l),
(445,1956,ls),
(359,2099,o),
(193,2079,o),
(140,2001,cs),
(74,1905,o),
(132,1752,o),
(290,1718,cs),
(562,1660,l)
);
}
);
};
layerId = "78E0DE70-2ED7-4EA0-A1D7-377506C0A4B3";
shapes = (
{
ref = I;
},
{
pos = (-147,0);
ref = gravecomb;
}
);
width = 948;
},
{
background = {
anchors = (
{
name = bottom;
pos = (402,0);
},
{
name = ogonek;
pos = (402,0);
},
{
name = top;
pos = (406,1500);
}
);
shapes = (
{
closed = 1;
nodes = (
(736,0,l),
(736,73,l),
(496,73,l),
(496,1427,l),
(736,1427,l),
(736,1500,l),
(86,1500,l),
(86,1427,l),
(307,1427,l),
(307,73,l),
(86,73,l),
(86,0,l)
);
},
{
closed = 1;
nodes = (
(501,1719,l),
(289,1926,ls),
(247,1967,o),
(196,1948,o),
(177,1915,cs),
(158,1882,o),
(172,1836,o),
(204,1817,cs),
(456,1670,l)
);
}
);
};
layerId = master01;
shapes = (
{
ref = I;
},
{
pos = (-165,0);
ref = gravecomb;
}
);
width = 822;
}
);
unicode = 204;
},
{
color = 10;
glyphname = Imacron;
lastChange = "2023-10-05 14:16:21 +0000";
layers = (
{
background = {
anchors = (
{
name = bottom;
pos = (349,0);
},
{
name = ogonek;
pos = (381,0);
},
{
name = top;
pos = (353,1500);
}
);
shapes = (
{
closed = 1;
nodes = (
(687,0,l),
(687,4,l),
(447,4,l),
(447,1496,l),
(687,1496,l),
(687,1500,l),
(37,1500,l),
(37,1496,l),
(256,1496,l),
(256,4,l),
(37,4,l),
(37,0,l)
);
},
{
closed = 1;
nodes = (
(593,1700,l),
(593,1704,l),
(113,1704,l),
(113,1700,l)
);
}
);
};
layerId = "131D8093-96F9-49D1-BC5C-300C1D47CA92";
shapes = (
{
ref = I;
},
{
pos = (-147,0);
ref = macroncomb;
}
);
width = 723;
},
{
background = {
anchors = (
{
name = bottom;
pos = (466,0);
},
{
name = ogonek;
pos = (548,0);
},
{
name = top;
pos = (462,1500);
}
);
shapes = (
{
closed = 1;
nodes = (
(920,0,l),
(920,4,l),
(680,4,l),
(680,1496,l),
(920,1496,l),
(920,1500,l),
(30,1500,l),
(30,1496,l),
(250,1496,l),
(250,4,l),
(30,4,l),
(30,0,l)
);
},
{
closed = 1;
nodes = (
(702,1700,l),
(702,1704,l),
(222,1704,l),
(222,1700,l)
);
}
);
};
layerId = "96DEB648-6659-45A7-975A-5247D52A4CB5";
shapes = (
{
ref = I;
},
{
pos = (-38,0);
ref = macroncomb;
}
);
width = 949;
},
{
background = {
anchors = (
{
name = bottom;
pos = (466,0);
},
{
name = ogonek;
pos = (526,0);
},
{
name = top;
pos = (462,1500);
}
);
shapes = (
{
closed = 1;
nodes = (
(920,0,l),
(920,72,l),
(680,72,l),
(680,1428,l),
(920,1428,l),
(920,1500,l),
(28,1500,l),
(28,1428,l),
(250,1428,l),
(250,72,l),
(28,72,l),
(28,0,l)
);
},
{
closed = 1;
nodes = (
(702,1700,l),
(702,1772,l),
(222,1772,l),
(222,1700,l)
);
}
);
};
layerId = "78E0DE70-2ED7-4EA0-A1D7-377506C0A4B3";
shapes = (
{
ref = I;
},
{
pos = (-38,0);
ref = macroncomb;
}
);
width = 948;
},
{
background = {
anchors = (
{
name = bottom;
pos = (402,0);
},
{
name = ogonek;
pos = (402,0);
},
{
name = top;
pos = (406,1500);
}
);
shapes = (
{
closed = 1;
nodes = (
(736,0,l),
(736,73,l),
(496,73,l),
(496,1427,l),
(736,1427,l),
(736,1500,l),
(86,1500,l),
(86,1427,l),
(307,1427,l),
(307,73,l),
(86,73,l),
(86,0,l)
);
},
{
closed = 1;
nodes = (
(646,1700,l),
(646,1772,l),
(166,1772,l),
(166,1700,l)
);
}
);
};
layerId = master01;
shapes = (
{
ref = I;
},
{
pos = (-94,0);
ref = macroncomb;
}
);
width = 822;
}
);
unicode = 298;
},
{
color = 10;
glyphname = Iogonek;
lastChange = "2023-10-05 14:16:21 +0000";
layers = (
{
background = {
anchors = (
{
name = bottom;
pos = (349,0);
},
{
name = ogonek;
pos = (381,0);
},
{
name = top;
pos = (353,1500);
}
);
shapes = (
{
closed = 1;
nodes = (
(687,0,l),
(687,4,l),
(447,4,l),
(447,1496,l),
(687,1496,l),
(687,1500,l),
(37,1500,l),
(37,1496,l),
(256,1496,l),
(256,4,l),
(37,4,l),
(37,0,l)
);
},
{
closed = 1;
nodes = (
(506,-419,o),
(564,-329,o),
(594,-273,c),
(592,-271,l),
(554,-333,o),
(520,-383,o),
(448,-383,cs),
(380,-383,o),
(334,-311,o),
(334,-217,cs),
(334,-91,o),
(368,1,o),
(430,35,c),
(426,39,l),
(304,-1,o),
(148,-87,o),
(148,-247,cs),
(148,-367,o),
(262,-419,o),
(364,-419,cs)
);
}
);
};
layerId = "131D8093-96F9-49D1-BC5C-300C1D47CA92";
shapes = (
{
ref = I;
},
{
pos = (-129,-47);
ref = ogonekcomb;
}
);
width = 723;
},
{
background = {
anchors = (
{
name = bottom;
pos = (466,0);
},
{
name = ogonek;
pos = (548,0);
},
{
name = top;
pos = (462,1500);
}
);
shapes = (
{
closed = 1;
nodes = (
(920,0,l),
(920,4,l),
(680,4,l),
(680,1496,l),
(920,1496,l),
(920,1500,l),
(30,1500,l),
(30,1496,l),
(250,1496,l),
(250,4,l),
(30,4,l),
(30,0,l)
);
},
{
closed = 1;
nodes = (
(643,-474,o),
(681,-384,o),
(711,-328,c),
(709,-326,l),
(679,-384,o),
(653,-422,o),
(609,-422,cs),
(561,-422,o),
(511,-366,o),
(511,-232,cs),
(511,-86,o),
(563,6,o),
(585,20,c),
(583,24,l),
(401,-26,o),
(165,-142,o),
(165,-302,cs),
(165,-422,o),
(279,-474,o),
(441,-474,cs)
);
}
);
};
layerId = "96DEB648-6659-45A7-975A-5247D52A4CB5";
shapes = (
{
ref = I;
},
{
pos = (-62,-37);
ref = ogonekcomb;
}
);
width = 949;
},
{
background = {
anchors = (
{
name = bottom;
pos = (466,0);
},
{
name = ogonek;
pos = (526,0);
},
{
name = top;
pos = (462,1500);
}
);
shapes = (
{
closed = 1;
nodes = (
(920,0,l),
(920,72,l),
(680,72,l),
(680,1428,l),
(920,1428,l),
(920,1500,l),
(28,1500,l),
(28,1428,l),
(250,1428,l),
(250,72,l),
(28,72,l),
(28,0,l)
);
},
{
closed = 1;
nodes = (
(621,-474,o),
(661,-384,o),
(689,-328,c),
(627,-300,l),
(609,-332,o),
(593,-358,o),
(557,-358,cs),
(517,-358,o),
(489,-320,o),
(489,-235,cs),
(489,-109,o),
(549,-12,o),
(569,2,c),
(551,54,l),
(369,4,o),
(143,-142,o),
(143,-302,cs),
(143,-422,o),
(257,-474,o),
(419,-474,cs)
);
}
);
};
layerId = "78E0DE70-2ED7-4EA0-A1D7-377506C0A4B3";
shapes = (
{
ref = I;
},
{
pos = (-84,-37);
ref = ogonekcomb;
}
);
width = 948;
},
{
background = {
anchors = (
{
name = bottom;
pos = (402,0);
},
{
name = ogonek;
pos = (402,0);
},
{
name = top;
pos = (406,1500);
}
);
shapes = (
{
closed = 1;
nodes = (
(736,0,l),
(736,73,l),
(496,73,l),
(496,1427,l),
(736,1427,l),
(736,1500,l),
(86,1500,l),
(86,1427,l),
(307,1427,l),
(307,73,l),
(86,73,l),
(86,0,l)
);
},
{
closed = 1;
nodes = (
(528,-419,o),
(585,-331,o),
(614,-274,c),
(567,-242,l),
(546,-284,o),
(507,-322,o),
(450,-322,cs),
(382,-322,o),
(355,-271,o),
(355,-197,cs),
(355,-111,o),
(410,-34,o),
(472,0,c),
(451,38,l),
(327,-2,o),
(169,-88,o),
(169,-247,cs),
(169,-367,o),
(283,-419,o),
(385,-419,cs)
);
}
);
};
layerId = master01;
shapes = (
{
ref = I;
},
{
pos = (-109,-47);
ref = ogonekcomb;
}
);
width = 822;
}
);
unicode = 302;
},
{
color = 10;
glyphname = Itilde;
lastChange = "2023-10-05 14:16:21 +0000";
layers = (
{
background = {
anchors = (
{
name = bottom;
pos = (349,0);
},
{
name = ogonek;
pos = (381,0);
},
{
name = top;
pos = (353,1500);
}
);
shapes = (
{
closed = 1;
nodes = (
(687,0,l),
(687,4,l),
(447,4,l),
(447,1496,l),
(687,1496,l),
(687,1500,l),
(37,1500,l),
(37,1496,l),
(256,1496,l),
(256,4,l),
(37,4,l),
(37,0,l)
);
},
{
closed = 1;
nodes = (
(645,1680,o),
(705,1744,o),
(705,1934,c),
(701,1934,l),
(701,1830,o),
(645,1796,o),
(559,1796,cs),
(447,1796,o),
(347,1954,o),
(207,1954,cs),
(109,1954,o),
(9,1870,o),
(9,1700,c),
(13,1700,l),
(13,1804,o),
(89,1838,o),
(155,1838,cs),
(281,1838,o),
(393,1680,o),
(527,1680,cs)
);
}
);
};
layerId = "131D8093-96F9-49D1-BC5C-300C1D47CA92";
shapes = (
{
ref = I;
},
{
pos = (-143,0);
ref = tildecomb;
}
);
width = 723;
},
{
background = {
anchors = (
{
name = bottom;
pos = (466,0);
},
{
name = ogonek;
pos = (548,0);
},
{
name = top;
pos = (462,1500);
}
);
shapes = (
{
closed = 1;
nodes = (
(920,0,l),
(920,4,l),
(680,4,l),
(680,1496,l),
(920,1496,l),
(920,1500,l),
(30,1500,l),
(30,1496,l),
(250,1496,l),
(250,4,l),
(30,4,l),
(30,0,l)
);
},
{
closed = 1;
nodes = (
(804,1640,o),
(804,1784,o),
(804,1974,c),
(800,1974,l),
(800,1930,o),
(764,1876,o),
(678,1876,cs),
(526,1876,o),
(486,2034,o),
(306,2034,cs),
(148,2034,o),
(108,1870,o),
(108,1700,c),
(112,1700,l),
(112,1744,o),
(148,1798,o),
(234,1798,cs),
(400,1798,o),
(452,1640,o),
(626,1640,cs)
);
}
);
};
layerId = "96DEB648-6659-45A7-975A-5247D52A4CB5";
shapes = (
{
ref = I;
},
{
pos = (-44,0);
ref = tildecomb;
}
);
width = 949;
},
{
background = {
anchors = (
{
name = bottom;
pos = (466,0);
},
{
name = ogonek;
pos = (526,0);
},
{
name = top;
pos = (462,1500);
}
);
shapes = (
{
closed = 1;
nodes = (
(920,0,l),
(920,72,l),
(680,72,l),
(680,1428,l),
(920,1428,l),
(920,1500,l),
(28,1500,l),
(28,1428,l),
(250,1428,l),
(250,72,l),
(28,72,l),
(28,0,l)
);
},
{
closed = 1;
nodes = (
(804,1640,o),
(804,1786,o),
(804,1974,c),
(732,1974,l),
(732,1930,o),
(700,1876,o),
(654,1876,cs),
(530,1876,o),
(486,2034,o),
(306,2034,cs),
(148,2034,o),
(108,1870,o),
(108,1700,c),
(182,1700,l),
(182,1744,o),
(212,1796,o),
(258,1796,cs),
(394,1796,o),
(452,1640,o),
(626,1640,cs)
);
}
);
};
layerId = "78E0DE70-2ED7-4EA0-A1D7-377506C0A4B3";
shapes = (
{
ref = I;
},
{
pos = (-44,0);
ref = tildecomb;
}
);
width = 948;
},
{
background = {
anchors = (
{
name = bottom;
pos = (402,0);
},
{
name = ogonek;
pos = (402,0);
},
{
name = top;
pos = (406,1500);
}
);
shapes = (
{
closed = 1;
nodes = (
(736,0,l),
(736,73,l),
(496,73,l),
(496,1427,l),
(736,1427,l),
(736,1500,l),
(86,1500,l),
(86,1427,l),
(307,1427,l),
(307,73,l),
(86,73,l),
(86,0,l)
);
},
{
closed = 1;
nodes = (
(674,1680,o),
(758,1745,o),
(758,1934,c),
(685,1934,l),
(685,1830,o),
(639,1796,o),
(573,1796,cs),
(481,1796,o),
(458,1954,o),
(284,1954,cs),
(186,1954,o),
(62,1870,o),
(62,1700,c),
(136,1700,l),
(136,1804,o),
(181,1838,o),
(247,1838,cs),
(352,1838,o),
(388,1680,o),
(556,1680,cs)
);
}
);
};
layerId = master01;
shapes = (
{
ref = I;
},
{
pos = (-90,0);
ref = tildecomb;
}
);
width = 822;
}
);
unicode = 296;
},
